<svg width="142" height="192" viewBox="0 0 142 192" fill="none" xmlns="http://www.w3.org/2000/svg">
<path d="M0 10C0 4.47715 4.47715 0 10 0H132C137.523 0 142 4.47715 142 10V182C142 187.523 137.523 192 132 192H10C4.47715 192 0 187.523 0 182V10Z" fill="#F3E7DD"/>
<path d="M18.48 32H21.12L23.3 22.12H23.34L25.36 32H28.02L31.18 17.56H28.6L26.68 27H26.64L24.64 17.56H21.98L20 27H19.96L18.02 17.56H15.46L18.48 32Z" fill="#413B89"/>
<path d="M31.6602 27.36C31.6602 30.92 33.5402 32.2 36.2202 32.2C38.9002 32.2 40.7802 30.92 40.7802 27.36V22.2C40.7802 18.64 38.9002 17.36 36.2202 17.36C33.5402 17.36 31.6602 18.64 31.6602 22.2V27.36ZM34.4202 21.84C34.4202 20.24 35.1202 19.8 36.2202 19.8C37.3202 19.8 38.0202 20.24 38.0202 21.84V27.72C38.0202 29.32 37.3202 29.76 36.2202 29.76C35.1202 29.76 34.4202 29.32 34.4202 27.72V21.84Z" fill="#413B89"/>
<path d="M51.4534 32L48.7334 25.56C50.2734 24.98 50.9134 23.68 50.9134 21.88C50.9134 19.16 49.3334 17.56 46.0134 17.56H42.0134V32H44.7734V26.12H46.0934L48.4934 32H51.4534ZM44.7734 19.84H46.1934C47.4134 19.84 48.1534 20.44 48.1534 21.84C48.1534 23.24 47.4134 23.84 46.1934 23.84H44.7734V19.84Z" fill="#413B89"/>
<path d="M54.8867 32V27.58L55.9667 25.94L58.8467 32H61.9467L57.8067 23.38L61.5267 17.56H58.5067L54.9267 23.52H54.8867V17.56H52.1267V32H54.8867Z" fill="#413B89"/>
<path d="M19 50V43.76H22.48V41.32H19V38H23.44V35.56H16.24V50H19Z" fill="#413B89"/>
<path d="M23.8867 45.36C23.8867 48.92 25.7667 50.2 28.4467 50.2C31.1267 50.2 33.0067 48.92 33.0067 45.36V40.2C33.0067 36.64 31.1267 35.36 28.4467 35.36C25.7667 35.36 23.8867 36.64 23.8867 40.2V45.36ZM26.6467 39.84C26.6467 38.24 27.3467 37.8 28.4467 37.8C29.5467 37.8 30.2467 38.24 30.2467 39.84V45.72C30.2467 47.32 29.5467 47.76 28.4467 47.76C27.3467 47.76 26.6467 47.32 26.6467 45.72V39.84Z" fill="#413B89"/>
<path d="M43.68 50L40.96 43.56C42.5 42.98 43.14 41.68 43.14 39.88C43.14 37.16 41.56 35.56 38.24 35.56H34.24V50H37V44.12H38.32L40.72 50H43.68ZM37 37.84H38.42C39.64 37.84 40.38 38.44 40.38 39.84C40.38 41.24 39.64 41.84 38.42 41.84H37V37.84Z" fill="#413B89"/>
<path d="M18.76 68V56.64H18.8L21.74 68H23.82L26.76 56.64H26.8V68H29.16V53.56H25.3L22.8 63.04H22.76L20.26 53.56H16.4V68H18.76Z" fill="#413B89"/>
<path d="M30.5664 63.36C30.5664 66.92 32.4464 68.2 35.1264 68.2C37.8064 68.2 39.6864 66.92 39.6864 63.36V58.2C39.6864 54.64 37.8064 53.36 35.1264 53.36C32.4464 53.36 30.5664 54.64 30.5664 58.2V63.36ZM33.3264 57.84C33.3264 56.24 34.0264 55.8 35.1264 55.8C36.2264 55.8 36.9264 56.24 36.9264 57.84V63.72C36.9264 65.32 36.2264 65.76 35.1264 65.76C34.0264 65.76 33.3264 65.32 33.3264 63.72V57.84Z" fill="#413B89"/>
<path d="M43.5997 68V58.68H43.6397L47.8597 68H50.4997V53.56H47.9797V62.12H47.9397L44.0997 53.56H41.0797V68H43.5997Z" fill="#413B89"/>
<path d="M59.9063 68V65.56H54.9063V61.76H58.5663V59.32H54.9063V56H59.7063V53.56H52.1463V68H59.9063Z" fill="#413B89"/>
<path d="M63.0863 53.56H60.1463L64.0863 62.16V68H66.8463V62.16L70.7863 53.56H67.8463L65.5063 59.38L63.0863 53.56Z" fill="#413B89"/>
<path d="M16.24 86H20.08C23.24 86 25 84.64 25.12 81V76.56C25 72.92 23.24 71.56 20.08 71.56H16.24V86ZM19 74H19.96C21.68 74 22.36 74.84 22.36 76.88V80.68C22.36 82.84 21.48 83.56 19.96 83.56H19V74Z" fill="#413B89"/>
<path d="M34.1133 86V83.56H29.1133V79.76H32.7733V77.32H29.1133V74H33.9133V71.56H26.3533V86H34.1133Z" fill="#413B89"/>
<path d="M43.9333 74.86C43.4533 72.82 41.9533 71.36 39.4933 71.36C36.6333 71.36 35.1533 72.92 35.1533 75.4C35.1533 79.44 41.3133 79.48 41.3133 82.2C41.3133 83.28 40.5733 83.92 39.6133 83.92C38.7933 83.92 37.7933 83.3 37.4733 81.56L34.7533 82.14C35.4933 84.98 37.2333 86.2 39.4733 86.2C42.3733 86.2 44.0733 84.56 44.0733 82.08C44.0733 77.56 37.9133 77.4 37.9133 75.22C37.9133 74.24 38.4533 73.64 39.4333 73.64C40.3933 73.64 40.9933 74.22 41.4533 75.58L43.9333 74.86Z" fill="#413B89"/>
<path d="M48.3866 86V71.56H45.6266V86H48.3866Z" fill="#413B89"/>
<path d="M57.353 86H58.793V78.6H54.093V80.88H56.033V81.76C56.033 83 55.393 83.76 54.353 83.76C53.253 83.76 52.553 83.32 52.553 81.72V75.84C52.553 74.24 53.253 73.8 54.353 73.8C55.353 73.8 56.033 74.4 56.033 76.26H58.793C58.693 72.98 57.173 71.36 54.353 71.36C51.673 71.36 49.793 72.64 49.793 76.2V81.36C49.793 84.92 51.673 86.2 54.353 86.2C55.393 86.2 56.193 85.64 56.933 84.8L57.353 86Z" fill="#413B89"/>
<path d="M62.8263 86V76.68H62.8663L67.0863 86H69.7263V71.56H67.2063V80.12H67.1663L63.3263 71.56H60.3063V86H62.8263Z" fill="#413B89"/>
<path d="M19 104V97.76H22.48V95.32H19V92H23.44V89.56H16.24V104H19Z" fill="#413B89"/>
<path d="M23.8867 99.36C23.8867 102.92 25.7667 104.2 28.4467 104.2C31.1267 104.2 33.0067 102.92 33.0067 99.36V94.2C33.0067 90.64 31.1267 89.36 28.4467 89.36C25.7667 89.36 23.8867 90.64 23.8867 94.2V99.36ZM26.6467 93.84C26.6467 92.24 27.3467 91.8 28.4467 91.8C29.5467 91.8 30.2467 92.24 30.2467 93.84V99.72C30.2467 101.32 29.5467 101.76 28.4467 101.76C27.3467 101.76 26.6467 101.32 26.6467 99.72V93.84Z" fill="#413B89"/>
<path d="M43.68 104L40.96 97.56C42.5 96.98 43.14 95.68 43.14 93.88C43.14 91.16 41.56 89.56 38.24 89.56H34.24V104H37V98.12H38.32L40.72 104H43.68ZM37 91.84H38.42C39.64 91.84 40.38 92.44 40.38 93.84C40.38 95.24 39.64 95.84 38.42 95.84H37V91.84Z" fill="#413B89"/>
<path d="M23.44 122V119.56H19V107.56H16.24V122H23.44Z" fill="#413B89"/>
<path d="M23.8867 117.36C23.8867 120.92 25.7667 122.2 28.4467 122.2C31.1267 122.2 33.0067 120.92 33.0067 117.36V112.2C33.0067 108.64 31.1267 107.36 28.4467 107.36C25.7667 107.36 23.8867 108.64 23.8867 112.2V117.36ZM26.6467 111.84C26.6467 110.24 27.3467 109.8 28.4467 109.8C29.5467 109.8 30.2467 110.24 30.2467 111.84V117.72C30.2467 119.32 29.5467 119.76 28.4467 119.76C27.3467 119.76 26.6467 119.32 26.6467 117.72V111.84Z" fill="#413B89"/>
<path d="M37 122H40.14L43.82 107.56H41.12L38.6 117.88H38.56L36.02 107.56H33.3L37 122Z" fill="#413B89"/>
<path d="M52.1133 122V119.56H47.1133V115.76H50.7733V113.32H47.1133V110H51.9133V107.56H44.3533V122H52.1133Z" fill="#413B89"/>
<path d="M0 151H142V180H0V151Z" fill="#413B89"/>
<path d="M17.67 172L16.99 170.39C17.375 170.245 17.535 169.92 17.535 169.47C17.535 168.79 17.14 168.39 16.31 168.39H15.31V172H16V170.53H16.33L16.93 172H17.67ZM16 168.96H16.355C16.66 168.96 16.845 169.11 16.845 169.46C16.845 169.81 16.66 169.96 16.355 169.96H16V168.96Z" fill="#FDFDFE"/>
<path d="M19.7699 172V170.895L20.0399 170.485L20.7599 172H21.5349L20.4999 169.845L21.4299 168.39H20.6749L19.7799 169.88H19.7699V168.39H19.0799V172H19.7699Z" fill="#FDFDFE"/>
<path d="M23.5982 172V171.39H22.3482V170.44H23.2632V169.83H22.3482V169H23.5482V168.39H21.6582V172H23.5982Z" fill="#FDFDFE"/>
<path d="M25.7582 172V171.39H24.6482V168.39H23.9582V172H25.7582Z" fill="#FDFDFE"/>
<path d="M27.7799 172V171.39H26.6699V168.39H25.9799V172H27.7799Z" fill="#FDFDFE"/>
<path d="M28.1155 168.39H27.3805L28.3655 170.54V172H29.0555V170.54L30.0405 168.39H29.3055L28.7205 169.845L28.1155 168.39Z" fill="#FDFDFE"/>
</svg>
