<svg width="142" height="192" viewBox="0 0 142 192" fill="none" xmlns="http://www.w3.org/2000/svg">
<path d="M0 10C0 4.47715 4.47715 0 10 0H132C137.523 0 142 4.47715 142 10V182C142 187.523 137.523 192 132 192H10C4.47715 192 0 187.523 0 182V10Z" fill="#413B89"/>
<g filter="url(#filter0_b)">
<path d="M0.499998 120.831C0.499998 130.154 1.83648 139.387 5.40456 148.001C8.97264 156.615 14.2025 164.442 20.7954 171.035C27.3884 177.628 35.2154 182.858 43.8295 186.426C52.4436 189.994 61.6761 190.831 71 190.831L71 120.831L0.499998 120.831Z" fill="#F3E7DD"/>
</g>
<path d="M71 50.5C61.7418 50.5 52.5743 52.3365 44.0208 55.9045C35.4674 59.4726 27.6955 64.7025 21.149 71.2954C14.6024 77.8884 9.40945 85.7154 5.86649 94.3295C2.32353 102.944 0.499999 112.176 0.5 121.5L71 121.5L71 50.5Z" fill="#F9DFF3"/>
<path d="M19.442 19.908V18.074H11.224V19.908H14.36V28H16.306V19.908H19.442Z" fill="white"/>
<path d="M22.005 23.954C22.047 23.198 22.509 22.61 23.293 22.61C24.189 22.61 24.567 23.212 24.567 23.982V28H26.429V23.66C26.429 22.148 25.617 20.93 23.867 20.93C23.209 20.93 22.453 21.154 22.005 21.686V17.864H20.143V28H22.005V23.954Z" fill="white"/>
<path d="M29.1168 23.772C29.1588 23.142 29.6908 22.414 30.6568 22.414C31.7208 22.414 32.1688 23.086 32.1968 23.772H29.1168ZM32.3788 25.564C32.1548 26.18 31.6788 26.614 30.8108 26.614C29.8868 26.614 29.1168 25.956 29.0748 25.046H34.0028C34.0028 25.018 34.0308 24.738 34.0308 24.472C34.0308 22.26 32.7568 20.902 30.6288 20.902C28.8648 20.902 27.2408 22.33 27.2408 24.528C27.2408 26.852 28.9068 28.21 30.7968 28.21C32.4908 28.21 33.5828 27.216 33.9328 26.026L32.3788 25.564Z" fill="white"/>
<path d="M44.654 20.44C44.43 19.32 43.506 17.864 41.098 17.864C39.222 17.864 37.64 19.208 37.64 20.972C37.64 22.47 38.662 23.492 40.244 23.814L41.63 24.094C42.4 24.248 42.834 24.696 42.834 25.27C42.834 25.97 42.26 26.488 41.224 26.488C39.824 26.488 39.138 25.606 39.054 24.626L37.262 25.102C37.416 26.516 38.578 28.21 41.21 28.21C43.52 28.21 44.794 26.67 44.794 25.144C44.794 23.744 43.828 22.568 42.022 22.218L40.636 21.952C39.908 21.812 39.558 21.378 39.558 20.832C39.558 20.174 40.174 19.572 41.112 19.572C42.372 19.572 42.82 20.426 42.918 20.972L44.654 20.44Z" fill="white"/>
<path d="M48.0896 19.054H46.4096V20.02C46.4096 20.636 46.0736 21.112 45.3456 21.112H44.9956V22.764H46.2416V25.97C46.2416 27.3 47.0816 28.098 48.4256 28.098C48.9716 28.098 49.3076 28 49.4756 27.93V26.39C49.3776 26.418 49.1256 26.446 48.9016 26.446C48.3696 26.446 48.0896 26.25 48.0896 25.648V22.764H49.4756V21.112H48.0896V19.054Z" fill="white"/>
<path d="M55.0463 28H56.8243C56.7963 27.762 56.7543 27.286 56.7543 26.754V21.112H54.8923V25.116C54.8923 25.914 54.4163 26.474 53.5903 26.474C52.7223 26.474 52.3303 25.858 52.3303 25.088V21.112H50.4683V25.466C50.4683 26.964 51.4203 28.182 53.0863 28.182C53.8143 28.182 54.6123 27.902 54.9903 27.258C54.9903 27.538 55.0183 27.86 55.0463 28Z" fill="white"/>
<path d="M64.7201 17.864H62.8861V21.798C62.6901 21.434 62.1301 20.944 60.9401 20.944C58.9941 20.944 57.6361 22.526 57.6361 24.542C57.6361 26.628 59.0361 28.168 60.9961 28.168C61.9201 28.168 62.6201 27.748 62.9281 27.202C62.9281 27.524 62.9701 27.86 62.9981 28H64.7761C64.7481 27.72 64.7201 27.216 64.7201 26.754V17.864ZM59.5121 24.542C59.5121 23.31 60.2681 22.61 61.2201 22.61C62.1721 22.61 62.9141 23.296 62.9141 24.528C62.9141 25.774 62.1721 26.502 61.2201 26.502C60.2401 26.502 59.5121 25.774 59.5121 24.542Z" fill="white"/>
<path d="M68.56 30.716L72.886 21.112H70.898L69.204 25.144L67.37 21.112H65.284L68.21 27.132L66.586 30.716H68.56Z" fill="white"/>
<path d="M79.447 26.516C78.537 26.516 77.697 25.844 77.697 24.556C77.697 23.254 78.537 22.596 79.447 22.596C80.357 22.596 81.197 23.254 81.197 24.556C81.197 25.858 80.357 26.516 79.447 26.516ZM79.447 20.902C77.389 20.902 75.835 22.428 75.835 24.556C75.835 26.67 77.389 28.21 79.447 28.21C81.505 28.21 83.059 26.67 83.059 24.556C83.059 22.428 81.505 20.902 79.447 20.902Z" fill="white"/>
<path d="M87.1608 19.404C87.4688 19.404 87.6508 19.446 87.7488 19.474V17.906C87.5948 17.836 87.2168 17.766 86.8248 17.766C85.2988 17.766 84.3188 18.774 84.3188 20.328V21.112L83.1708 21.112V22.708H84.3188V28H86.1948V22.708H87.7488V21.112H86.1948V20.356C86.1948 19.586 86.7408 19.404 87.1608 19.404Z" fill="white"/>
<path d="M12.134 32.074V42H15.97C17.832 42 19.036 40.838 19.036 39.228C19.036 37.996 18.252 37.114 17.286 36.876C18.112 36.596 18.728 35.77 18.728 34.748C18.728 33.208 17.636 32.074 15.704 32.074H12.134ZM14.038 36.176V33.698H15.396C16.334 33.698 16.824 34.174 16.824 34.93C16.824 35.686 16.292 36.176 15.41 36.176H14.038ZM14.038 40.39V37.772H15.634C16.6 37.772 17.104 38.318 17.104 39.102C17.104 39.9 16.544 40.39 15.606 40.39H14.038Z" fill="white"/>
<path d="M24.1516 35.084C24.0116 35.07 23.8716 35.056 23.7176 35.056C23.1296 35.056 22.1776 35.224 21.7576 36.134V35.112H19.9516V42H21.8136V38.85C21.8136 37.366 22.6396 36.904 23.5916 36.904C23.7596 36.904 23.9416 36.918 24.1516 36.96V35.084Z" fill="white"/>
<path d="M24.5224 40.124C24.5224 41.202 25.4184 42.196 26.8884 42.196C27.9104 42.196 28.5684 41.72 28.9184 41.174C28.9184 41.44 28.9464 41.818 28.9884 42H30.6964C30.6544 41.762 30.6124 41.272 30.6124 40.908V37.52C30.6124 36.134 29.8004 34.902 27.6164 34.902C25.7684 34.902 24.7744 36.092 24.6624 37.17L26.3144 37.52C26.3704 36.918 26.8184 36.4 27.6304 36.4C28.4144 36.4 28.7924 36.806 28.7924 37.296C28.7924 37.534 28.6664 37.73 28.2744 37.786L26.5804 38.038C25.4324 38.206 24.5224 38.892 24.5224 40.124ZM27.2804 40.81C26.6784 40.81 26.3844 40.418 26.3844 40.012C26.3844 39.48 26.7624 39.214 27.2384 39.144L28.7924 38.906V39.214C28.7924 40.432 28.0644 40.81 27.2804 40.81Z" fill="white"/>
<path d="M33.7912 42V35.112H31.9292V42H33.7912ZM31.7052 32.858C31.7052 33.474 32.2232 33.992 32.8532 33.992C33.4972 33.992 34.0012 33.474 34.0012 32.858C34.0012 32.214 33.4972 31.696 32.8532 31.696C32.2232 31.696 31.7052 32.214 31.7052 32.858Z" fill="white"/>
<path d="M37.0867 38.038C37.0867 37.24 37.5627 36.61 38.3747 36.61C39.2707 36.61 39.6487 37.212 39.6487 37.982V42H41.5107V37.66C41.5107 36.148 40.7267 34.93 39.0187 34.93C38.2767 34.93 37.4507 35.252 37.0307 35.966V35.112H35.2247V42H37.0867V38.038Z" fill="white"/>
<path d="M45.3195 40.124C45.3195 41.202 46.2155 42.196 47.6855 42.196C48.7075 42.196 49.3655 41.72 49.7155 41.174C49.7155 41.44 49.7435 41.818 49.7855 42H51.4935C51.4515 41.762 51.4095 41.272 51.4095 40.908V37.52C51.4095 36.134 50.5975 34.902 48.4135 34.902C46.5655 34.902 45.5715 36.092 45.4595 37.17L47.1115 37.52C47.1675 36.918 47.6155 36.4 48.4275 36.4C49.2115 36.4 49.5895 36.806 49.5895 37.296C49.5895 37.534 49.4635 37.73 49.0715 37.786L47.3775 38.038C46.2295 38.206 45.3195 38.892 45.3195 40.124ZM48.0775 40.81C47.4755 40.81 47.1815 40.418 47.1815 40.012C47.1815 39.48 47.5595 39.214 48.0355 39.144L49.5895 38.906V39.214C49.5895 40.432 48.8615 40.81 48.0775 40.81Z" fill="white"/>
<path d="M54.5883 38.038C54.5883 37.24 55.0643 36.61 55.8763 36.61C56.7723 36.61 57.1503 37.212 57.1503 37.982V42H59.0123V37.66C59.0123 36.148 58.2283 34.93 56.5203 34.93C55.7783 34.93 54.9523 35.252 54.5323 35.966V35.112H52.7263V42H54.5883V38.038Z" fill="white"/>
<path d="M66.9081 31.864H65.0741V35.798C64.8781 35.434 64.3181 34.944 63.1281 34.944C61.1821 34.944 59.8241 36.526 59.8241 38.542C59.8241 40.628 61.2241 42.168 63.1841 42.168C64.1081 42.168 64.8081 41.748 65.1161 41.202C65.1161 41.524 65.1581 41.86 65.1861 42H66.9641C66.9361 41.72 66.9081 41.216 66.9081 40.754V31.864ZM61.7001 38.542C61.7001 37.31 62.4561 36.61 63.4081 36.61C64.3601 36.61 65.1021 37.296 65.1021 38.528C65.1021 39.774 64.3601 40.502 63.4081 40.502C62.4281 40.502 61.7001 39.774 61.7001 38.542Z" fill="white"/>
<path d="M71.407 32.074V42H75.243C77.105 42 78.3091 40.838 78.3091 39.228C78.3091 37.996 77.5251 37.114 76.5591 36.876C77.385 36.596 78.0011 35.77 78.0011 34.748C78.0011 33.208 76.909 32.074 74.977 32.074H71.407ZM73.3111 36.176V33.698H74.669C75.607 33.698 76.097 34.174 76.097 34.93C76.097 35.686 75.565 36.176 74.683 36.176H73.3111ZM73.3111 40.39V37.772H74.907C75.873 37.772 76.3771 38.318 76.3771 39.102C76.3771 39.9 75.817 40.39 74.879 40.39H73.3111Z" fill="white"/>
<path d="M80.6783 37.772C80.7203 37.142 81.2523 36.414 82.2183 36.414C83.2823 36.414 83.7303 37.086 83.7583 37.772H80.6783ZM83.9403 39.564C83.7163 40.18 83.2403 40.614 82.3723 40.614C81.4483 40.614 80.6783 39.956 80.6363 39.046H85.5643C85.5643 39.018 85.5923 38.738 85.5923 38.472C85.5923 36.26 84.3183 34.902 82.1903 34.902C80.4263 34.902 78.8023 36.33 78.8023 38.528C78.8023 40.852 80.4683 42.21 82.3583 42.21C84.0523 42.21 85.1443 41.216 85.4943 40.026L83.9403 39.564Z" fill="white"/>
<path d="M88.3606 37.954C88.4026 37.198 88.8646 36.61 89.6486 36.61C90.5446 36.61 90.9226 37.212 90.9226 37.982V42H92.7846V37.66C92.7846 36.148 91.9726 34.93 90.2226 34.93C89.5646 34.93 88.8086 35.154 88.3606 35.686V31.864H86.4986V42H88.3606V37.954Z" fill="white"/>
<path d="M93.6944 40.124C93.6944 41.202 94.5904 42.196 96.0604 42.196C97.0824 42.196 97.7404 41.72 98.0904 41.174C98.0904 41.44 98.1184 41.818 98.1604 42H99.8684C99.8264 41.762 99.7844 41.272 99.7844 40.908V37.52C99.7844 36.134 98.9724 34.902 96.7884 34.902C94.9404 34.902 93.9464 36.092 93.8344 37.17L95.4864 37.52C95.5424 36.918 95.9904 36.4 96.8024 36.4C97.5864 36.4 97.9644 36.806 97.9644 37.296C97.9644 37.534 97.8384 37.73 97.4464 37.786L95.7524 38.038C94.6044 38.206 93.6944 38.892 93.6944 40.124ZM96.4524 40.81C95.8504 40.81 95.5564 40.418 95.5564 40.012C95.5564 39.48 95.9344 39.214 96.4104 39.144L97.9644 38.906V39.214C97.9644 40.432 97.2364 40.81 96.4524 40.81Z" fill="white"/>
<path d="M102.963 42V35.112H101.101V42H102.963ZM100.877 32.858C100.877 33.474 101.395 33.992 102.025 33.992C102.669 33.992 103.173 33.474 103.173 32.858C103.173 32.214 102.669 31.696 102.025 31.696C101.395 31.696 100.877 32.214 100.877 32.858Z" fill="white"/>
<path d="M110.893 35.112H108.933L107.295 39.732L105.587 35.112H103.543L106.357 42H108.219L110.893 35.112Z" fill="white"/>
<path d="M114.355 40.516C113.445 40.516 112.605 39.844 112.605 38.556C112.605 37.254 113.445 36.596 114.355 36.596C115.265 36.596 116.105 37.254 116.105 38.556C116.105 39.858 115.265 40.516 114.355 40.516ZM114.355 34.902C112.297 34.902 110.743 36.428 110.743 38.556C110.743 40.67 112.297 42.21 114.355 42.21C116.413 42.21 117.967 40.67 117.967 38.556C117.967 36.428 116.413 34.902 114.355 34.902Z" fill="white"/>
<path d="M123.357 42H125.135C125.107 41.762 125.065 41.286 125.065 40.754V35.112H123.203V39.116C123.203 39.914 122.727 40.474 121.901 40.474C121.033 40.474 120.641 39.858 120.641 39.088V35.112H118.779V39.466C118.779 40.964 119.731 42.182 121.397 42.182C122.125 42.182 122.923 41.902 123.301 41.258C123.301 41.538 123.329 41.86 123.357 42Z" fill="white"/>
<path d="M130.692 35.084C130.552 35.07 130.412 35.056 130.258 35.056C129.67 35.056 128.718 35.224 128.298 36.134V35.112H126.492V42H128.354V38.85C128.354 37.366 129.18 36.904 130.132 36.904C130.3 36.904 130.482 36.918 130.692 36.96V35.084Z" fill="white"/>
<path d="M80 52C80 52.8284 79.3284 53.5 78.5 53.5C77.6716 53.5 77 52.8284 77 52C77 51.1716 77.6716 50.5 78.5 50.5C79.3284 50.5 80 51.1716 80 52Z" fill="url(#paint0_linear)"/>
<path d="M80 59C80 59.8284 79.3284 60.5 78.5 60.5C77.6716 60.5 77 59.8284 77 59C77 58.1716 77.6716 57.5 78.5 57.5C79.3284 57.5 80 58.1716 80 59Z" fill="url(#paint1_linear)"/>
<path d="M80 66C80 66.8284 79.3284 67.5 78.5 67.5C77.6716 67.5 77 66.8284 77 66C77 65.1716 77.6716 64.5 78.5 64.5C79.3284 64.5 80 65.1716 80 66Z" fill="url(#paint2_linear)"/>
<path d="M80 73C80 73.8284 79.3284 74.5 78.5 74.5C77.6716 74.5 77 73.8284 77 73C77 72.1716 77.6716 71.5 78.5 71.5C79.3284 71.5 80 72.1716 80 73Z" fill="url(#paint3_linear)"/>
<path d="M80 80C80 80.8284 79.3284 81.5 78.5 81.5C77.6716 81.5 77 80.8284 77 80C77 79.1716 77.6716 78.5 78.5 78.5C79.3284 78.5 80 79.1716 80 80Z" fill="url(#paint4_linear)"/>
<path d="M80 87C80 87.8284 79.3284 88.5 78.5 88.5C77.6716 88.5 77 87.8284 77 87C77 86.1716 77.6716 85.5 78.5 85.5C79.3284 85.5 80 86.1716 80 87Z" fill="url(#paint5_linear)"/>
<path d="M80 94C80 94.8284 79.3284 95.5 78.5 95.5C77.6716 95.5 77 94.8284 77 94C77 93.1716 77.6716 92.5 78.5 92.5C79.3284 92.5 80 93.1716 80 94Z" fill="url(#paint6_linear)"/>
<path d="M80 101C80 101.828 79.3284 102.5 78.5 102.5C77.6716 102.5 77 101.828 77 101C77 100.172 77.6716 99.5 78.5 99.5C79.3284 99.5 80 100.172 80 101Z" fill="url(#paint7_linear)"/>
<path d="M80 108C80 108.828 79.3284 109.5 78.5 109.5C77.6716 109.5 77 108.828 77 108C77 107.172 77.6716 106.5 78.5 106.5C79.3284 106.5 80 107.172 80 108Z" fill="url(#paint8_linear)"/>
<path d="M80 115C80 115.828 79.3284 116.5 78.5 116.5C77.6716 116.5 77 115.828 77 115C77 114.172 77.6716 113.5 78.5 113.5C79.3284 113.5 80 114.172 80 115Z" fill="url(#paint9_linear)"/>
<path d="M80 122C80 122.828 79.3284 123.5 78.5 123.5C77.6716 123.5 77 122.828 77 122C77 121.172 77.6716 120.5 78.5 120.5C79.3284 120.5 80 121.172 80 122Z" fill="url(#paint10_linear)"/>
<path d="M80 129C80 129.828 79.3284 130.5 78.5 130.5C77.6716 130.5 77 129.828 77 129C77 128.172 77.6716 127.5 78.5 127.5C79.3284 127.5 80 128.172 80 129Z" fill="url(#paint11_linear)"/>
<path d="M80 136C80 136.828 79.3284 137.5 78.5 137.5C77.6716 137.5 77 136.828 77 136C77 135.172 77.6716 134.5 78.5 134.5C79.3284 134.5 80 135.172 80 136Z" fill="url(#paint12_linear)"/>
<path d="M80 143C80 143.828 79.3284 144.5 78.5 144.5C77.6716 144.5 77 143.828 77 143C77 142.172 77.6716 141.5 78.5 141.5C79.3284 141.5 80 142.172 80 143Z" fill="url(#paint13_linear)"/>
<path d="M80 150C80 150.828 79.3284 151.5 78.5 151.5C77.6716 151.5 77 150.828 77 150C77 149.172 77.6716 148.5 78.5 148.5C79.3284 148.5 80 149.172 80 150Z" fill="url(#paint14_linear)"/>
<path d="M80 157C80 157.828 79.3284 158.5 78.5 158.5C77.6716 158.5 77 157.828 77 157C77 156.172 77.6716 155.5 78.5 155.5C79.3284 155.5 80 156.172 80 157Z" fill="url(#paint15_linear)"/>
<path d="M80 164C80 164.828 79.3284 165.5 78.5 165.5C77.6716 165.5 77 164.828 77 164C77 163.172 77.6716 162.5 78.5 162.5C79.3284 162.5 80 163.172 80 164Z" fill="url(#paint16_linear)"/>
<path d="M80 171C80 171.828 79.3284 172.5 78.5 172.5C77.6716 172.5 77 171.828 77 171C77 170.172 77.6716 169.5 78.5 169.5C79.3284 169.5 80 170.172 80 171Z" fill="url(#paint17_linear)"/>
<path d="M80 178C80 178.828 79.3284 179.5 78.5 179.5C77.6716 179.5 77 178.828 77 178C77 177.172 77.6716 176.5 78.5 176.5C79.3284 176.5 80 177.172 80 178Z" fill="url(#paint18_linear)"/>
<path d="M87 52C87 52.8284 86.3284 53.5 85.5 53.5C84.6716 53.5 84 52.8284 84 52C84 51.1716 84.6716 50.5 85.5 50.5C86.3284 50.5 87 51.1716 87 52Z" fill="url(#paint19_linear)"/>
<path d="M87 59C87 59.8284 86.3284 60.5 85.5 60.5C84.6716 60.5 84 59.8284 84 59C84 58.1716 84.6716 57.5 85.5 57.5C86.3284 57.5 87 58.1716 87 59Z" fill="url(#paint20_linear)"/>
<path d="M87 66C87 66.8284 86.3284 67.5 85.5 67.5C84.6716 67.5 84 66.8284 84 66C84 65.1716 84.6716 64.5 85.5 64.5C86.3284 64.5 87 65.1716 87 66Z" fill="url(#paint21_linear)"/>
<path d="M87 73C87 73.8284 86.3284 74.5 85.5 74.5C84.6716 74.5 84 73.8284 84 73C84 72.1716 84.6716 71.5 85.5 71.5C86.3284 71.5 87 72.1716 87 73Z" fill="url(#paint22_linear)"/>
<path d="M87 80C87 80.8284 86.3284 81.5 85.5 81.5C84.6716 81.5 84 80.8284 84 80C84 79.1716 84.6716 78.5 85.5 78.5C86.3284 78.5 87 79.1716 87 80Z" fill="url(#paint23_linear)"/>
<path d="M87 87C87 87.8284 86.3284 88.5 85.5 88.5C84.6716 88.5 84 87.8284 84 87C84 86.1716 84.6716 85.5 85.5 85.5C86.3284 85.5 87 86.1716 87 87Z" fill="url(#paint24_linear)"/>
<path d="M87 94C87 94.8284 86.3284 95.5 85.5 95.5C84.6716 95.5 84 94.8284 84 94C84 93.1716 84.6716 92.5 85.5 92.5C86.3284 92.5 87 93.1716 87 94Z" fill="url(#paint25_linear)"/>
<path d="M87 101C87 101.828 86.3284 102.5 85.5 102.5C84.6716 102.5 84 101.828 84 101C84 100.172 84.6716 99.5 85.5 99.5C86.3284 99.5 87 100.172 87 101Z" fill="url(#paint26_linear)"/>
<path d="M87 108C87 108.828 86.3284 109.5 85.5 109.5C84.6716 109.5 84 108.828 84 108C84 107.172 84.6716 106.5 85.5 106.5C86.3284 106.5 87 107.172 87 108Z" fill="url(#paint27_linear)"/>
<path d="M87 115C87 115.828 86.3284 116.5 85.5 116.5C84.6716 116.5 84 115.828 84 115C84 114.172 84.6716 113.5 85.5 113.5C86.3284 113.5 87 114.172 87 115Z" fill="url(#paint28_linear)"/>
<path d="M87 122C87 122.828 86.3284 123.5 85.5 123.5C84.6716 123.5 84 122.828 84 122C84 121.172 84.6716 120.5 85.5 120.5C86.3284 120.5 87 121.172 87 122Z" fill="url(#paint29_linear)"/>
<path d="M87 129C87 129.828 86.3284 130.5 85.5 130.5C84.6716 130.5 84 129.828 84 129C84 128.172 84.6716 127.5 85.5 127.5C86.3284 127.5 87 128.172 87 129Z" fill="url(#paint30_linear)"/>
<path d="M87 136C87 136.828 86.3284 137.5 85.5 137.5C84.6716 137.5 84 136.828 84 136C84 135.172 84.6716 134.5 85.5 134.5C86.3284 134.5 87 135.172 87 136Z" fill="url(#paint31_linear)"/>
<path d="M87 143C87 143.828 86.3284 144.5 85.5 144.5C84.6716 144.5 84 143.828 84 143C84 142.172 84.6716 141.5 85.5 141.5C86.3284 141.5 87 142.172 87 143Z" fill="url(#paint32_linear)"/>
<path d="M87 150C87 150.828 86.3284 151.5 85.5 151.5C84.6716 151.5 84 150.828 84 150C84 149.172 84.6716 148.5 85.5 148.5C86.3284 148.5 87 149.172 87 150Z" fill="url(#paint33_linear)"/>
<path d="M87 157C87 157.828 86.3284 158.5 85.5 158.5C84.6716 158.5 84 157.828 84 157C84 156.172 84.6716 155.5 85.5 155.5C86.3284 155.5 87 156.172 87 157Z" fill="url(#paint34_linear)"/>
<path d="M87 164C87 164.828 86.3284 165.5 85.5 165.5C84.6716 165.5 84 164.828 84 164C84 163.172 84.6716 162.5 85.5 162.5C86.3284 162.5 87 163.172 87 164Z" fill="url(#paint35_linear)"/>
<path d="M87 171C87 171.828 86.3284 172.5 85.5 172.5C84.6716 172.5 84 171.828 84 171C84 170.172 84.6716 169.5 85.5 169.5C86.3284 169.5 87 170.172 87 171Z" fill="url(#paint36_linear)"/>
<path d="M87 178C87 178.828 86.3284 179.5 85.5 179.5C84.6716 179.5 84 178.828 84 178C84 177.172 84.6716 176.5 85.5 176.5C86.3284 176.5 87 177.172 87 178Z" fill="url(#paint37_linear)"/>
<path d="M94 52C94 52.8284 93.3284 53.5 92.5 53.5C91.6716 53.5 91 52.8284 91 52C91 51.1716 91.6716 50.5 92.5 50.5C93.3284 50.5 94 51.1716 94 52Z" fill="url(#paint38_linear)"/>
<path d="M94 59C94 59.8284 93.3284 60.5 92.5 60.5C91.6716 60.5 91 59.8284 91 59C91 58.1716 91.6716 57.5 92.5 57.5C93.3284 57.5 94 58.1716 94 59Z" fill="url(#paint39_linear)"/>
<path d="M94 66C94 66.8284 93.3284 67.5 92.5 67.5C91.6716 67.5 91 66.8284 91 66C91 65.1716 91.6716 64.5 92.5 64.5C93.3284 64.5 94 65.1716 94 66Z" fill="url(#paint40_linear)"/>
<path d="M94 73C94 73.8284 93.3284 74.5 92.5 74.5C91.6716 74.5 91 73.8284 91 73C91 72.1716 91.6716 71.5 92.5 71.5C93.3284 71.5 94 72.1716 94 73Z" fill="url(#paint41_linear)"/>
<path d="M94 80C94 80.8284 93.3284 81.5 92.5 81.5C91.6716 81.5 91 80.8284 91 80C91 79.1716 91.6716 78.5 92.5 78.5C93.3284 78.5 94 79.1716 94 80Z" fill="url(#paint42_linear)"/>
<path d="M94 87C94 87.8284 93.3284 88.5 92.5 88.5C91.6716 88.5 91 87.8284 91 87C91 86.1716 91.6716 85.5 92.5 85.5C93.3284 85.5 94 86.1716 94 87Z" fill="url(#paint43_linear)"/>
<path d="M94 94C94 94.8284 93.3284 95.5 92.5 95.5C91.6716 95.5 91 94.8284 91 94C91 93.1716 91.6716 92.5 92.5 92.5C93.3284 92.5 94 93.1716 94 94Z" fill="url(#paint44_linear)"/>
<path d="M94 101C94 101.828 93.3284 102.5 92.5 102.5C91.6716 102.5 91 101.828 91 101C91 100.172 91.6716 99.5 92.5 99.5C93.3284 99.5 94 100.172 94 101Z" fill="url(#paint45_linear)"/>
<path d="M94 108C94 108.828 93.3284 109.5 92.5 109.5C91.6716 109.5 91 108.828 91 108C91 107.172 91.6716 106.5 92.5 106.5C93.3284 106.5 94 107.172 94 108Z" fill="url(#paint46_linear)"/>
<path d="M94 115C94 115.828 93.3284 116.5 92.5 116.5C91.6716 116.5 91 115.828 91 115C91 114.172 91.6716 113.5 92.5 113.5C93.3284 113.5 94 114.172 94 115Z" fill="url(#paint47_linear)"/>
<path d="M94 122C94 122.828 93.3284 123.5 92.5 123.5C91.6716 123.5 91 122.828 91 122C91 121.172 91.6716 120.5 92.5 120.5C93.3284 120.5 94 121.172 94 122Z" fill="url(#paint48_linear)"/>
<path d="M94 129C94 129.828 93.3284 130.5 92.5 130.5C91.6716 130.5 91 129.828 91 129C91 128.172 91.6716 127.5 92.5 127.5C93.3284 127.5 94 128.172 94 129Z" fill="url(#paint49_linear)"/>
<path d="M94 136C94 136.828 93.3284 137.5 92.5 137.5C91.6716 137.5 91 136.828 91 136C91 135.172 91.6716 134.5 92.5 134.5C93.3284 134.5 94 135.172 94 136Z" fill="url(#paint50_linear)"/>
<path d="M94 143C94 143.828 93.3284 144.5 92.5 144.5C91.6716 144.5 91 143.828 91 143C91 142.172 91.6716 141.5 92.5 141.5C93.3284 141.5 94 142.172 94 143Z" fill="url(#paint51_linear)"/>
<path d="M94 150C94 150.828 93.3284 151.5 92.5 151.5C91.6716 151.5 91 150.828 91 150C91 149.172 91.6716 148.5 92.5 148.5C93.3284 148.5 94 149.172 94 150Z" fill="url(#paint52_linear)"/>
<path d="M94 157C94 157.828 93.3284 158.5 92.5 158.5C91.6716 158.5 91 157.828 91 157C91 156.172 91.6716 155.5 92.5 155.5C93.3284 155.5 94 156.172 94 157Z" fill="url(#paint53_linear)"/>
<path d="M94 164C94 164.828 93.3284 165.5 92.5 165.5C91.6716 165.5 91 164.828 91 164C91 163.172 91.6716 162.5 92.5 162.5C93.3284 162.5 94 163.172 94 164Z" fill="url(#paint54_linear)"/>
<path d="M94 171C94 171.828 93.3284 172.5 92.5 172.5C91.6716 172.5 91 171.828 91 171C91 170.172 91.6716 169.5 92.5 169.5C93.3284 169.5 94 170.172 94 171Z" fill="url(#paint55_linear)"/>
<path d="M94 178C94 178.828 93.3284 179.5 92.5 179.5C91.6716 179.5 91 178.828 91 178C91 177.172 91.6716 176.5 92.5 176.5C93.3284 176.5 94 177.172 94 178Z" fill="url(#paint56_linear)"/>
<path d="M101 52C101 52.8284 100.328 53.5 99.5 53.5C98.6716 53.5 98 52.8284 98 52C98 51.1716 98.6716 50.5 99.5 50.5C100.328 50.5 101 51.1716 101 52Z" fill="url(#paint57_linear)"/>
<path d="M101 59C101 59.8284 100.328 60.5 99.5 60.5C98.6716 60.5 98 59.8284 98 59C98 58.1716 98.6716 57.5 99.5 57.5C100.328 57.5 101 58.1716 101 59Z" fill="url(#paint58_linear)"/>
<path d="M101 66C101 66.8284 100.328 67.5 99.5 67.5C98.6716 67.5 98 66.8284 98 66C98 65.1716 98.6716 64.5 99.5 64.5C100.328 64.5 101 65.1716 101 66Z" fill="url(#paint59_linear)"/>
<path d="M101 73C101 73.8284 100.328 74.5 99.5 74.5C98.6716 74.5 98 73.8284 98 73C98 72.1716 98.6716 71.5 99.5 71.5C100.328 71.5 101 72.1716 101 73Z" fill="url(#paint60_linear)"/>
<path d="M101 80C101 80.8284 100.328 81.5 99.5 81.5C98.6716 81.5 98 80.8284 98 80C98 79.1716 98.6716 78.5 99.5 78.5C100.328 78.5 101 79.1716 101 80Z" fill="url(#paint61_linear)"/>
<path d="M101 87C101 87.8284 100.328 88.5 99.5 88.5C98.6716 88.5 98 87.8284 98 87C98 86.1716 98.6716 85.5 99.5 85.5C100.328 85.5 101 86.1716 101 87Z" fill="url(#paint62_linear)"/>
<path d="M101 94C101 94.8284 100.328 95.5 99.5 95.5C98.6716 95.5 98 94.8284 98 94C98 93.1716 98.6716 92.5 99.5 92.5C100.328 92.5 101 93.1716 101 94Z" fill="url(#paint63_linear)"/>
<path d="M101 101C101 101.828 100.328 102.5 99.5 102.5C98.6716 102.5 98 101.828 98 101C98 100.172 98.6716 99.5 99.5 99.5C100.328 99.5 101 100.172 101 101Z" fill="url(#paint64_linear)"/>
<path d="M101 108C101 108.828 100.328 109.5 99.5 109.5C98.6716 109.5 98 108.828 98 108C98 107.172 98.6716 106.5 99.5 106.5C100.328 106.5 101 107.172 101 108Z" fill="url(#paint65_linear)"/>
<path d="M101 115C101 115.828 100.328 116.5 99.5 116.5C98.6716 116.5 98 115.828 98 115C98 114.172 98.6716 113.5 99.5 113.5C100.328 113.5 101 114.172 101 115Z" fill="url(#paint66_linear)"/>
<path d="M101 122C101 122.828 100.328 123.5 99.5 123.5C98.6716 123.5 98 122.828 98 122C98 121.172 98.6716 120.5 99.5 120.5C100.328 120.5 101 121.172 101 122Z" fill="url(#paint67_linear)"/>
<path d="M101 129C101 129.828 100.328 130.5 99.5 130.5C98.6716 130.5 98 129.828 98 129C98 128.172 98.6716 127.5 99.5 127.5C100.328 127.5 101 128.172 101 129Z" fill="url(#paint68_linear)"/>
<path d="M101 136C101 136.828 100.328 137.5 99.5 137.5C98.6716 137.5 98 136.828 98 136C98 135.172 98.6716 134.5 99.5 134.5C100.328 134.5 101 135.172 101 136Z" fill="url(#paint69_linear)"/>
<path d="M101 143C101 143.828 100.328 144.5 99.5 144.5C98.6716 144.5 98 143.828 98 143C98 142.172 98.6716 141.5 99.5 141.5C100.328 141.5 101 142.172 101 143Z" fill="url(#paint70_linear)"/>
<path d="M101 150C101 150.828 100.328 151.5 99.5 151.5C98.6716 151.5 98 150.828 98 150C98 149.172 98.6716 148.5 99.5 148.5C100.328 148.5 101 149.172 101 150Z" fill="url(#paint71_linear)"/>
<path d="M101 157C101 157.828 100.328 158.5 99.5 158.5C98.6716 158.5 98 157.828 98 157C98 156.172 98.6716 155.5 99.5 155.5C100.328 155.5 101 156.172 101 157Z" fill="url(#paint72_linear)"/>
<path d="M101 164C101 164.828 100.328 165.5 99.5 165.5C98.6716 165.5 98 164.828 98 164C98 163.172 98.6716 162.5 99.5 162.5C100.328 162.5 101 163.172 101 164Z" fill="url(#paint73_linear)"/>
<path d="M101 171C101 171.828 100.328 172.5 99.5 172.5C98.6716 172.5 98 171.828 98 171C98 170.172 98.6716 169.5 99.5 169.5C100.328 169.5 101 170.172 101 171Z" fill="url(#paint74_linear)"/>
<path d="M101 178C101 178.828 100.328 179.5 99.5 179.5C98.6716 179.5 98 178.828 98 178C98 177.172 98.6716 176.5 99.5 176.5C100.328 176.5 101 177.172 101 178Z" fill="url(#paint75_linear)"/>
<path d="M108 52C108 52.8284 107.328 53.5 106.5 53.5C105.672 53.5 105 52.8284 105 52C105 51.1716 105.672 50.5 106.5 50.5C107.328 50.5 108 51.1716 108 52Z" fill="url(#paint76_linear)"/>
<path d="M108 59C108 59.8284 107.328 60.5 106.5 60.5C105.672 60.5 105 59.8284 105 59C105 58.1716 105.672 57.5 106.5 57.5C107.328 57.5 108 58.1716 108 59Z" fill="url(#paint77_linear)"/>
<path d="M108 66C108 66.8284 107.328 67.5 106.5 67.5C105.672 67.5 105 66.8284 105 66C105 65.1716 105.672 64.5 106.5 64.5C107.328 64.5 108 65.1716 108 66Z" fill="url(#paint78_linear)"/>
<path d="M108 73C108 73.8284 107.328 74.5 106.5 74.5C105.672 74.5 105 73.8284 105 73C105 72.1716 105.672 71.5 106.5 71.5C107.328 71.5 108 72.1716 108 73Z" fill="url(#paint79_linear)"/>
<path d="M108 80C108 80.8284 107.328 81.5 106.5 81.5C105.672 81.5 105 80.8284 105 80C105 79.1716 105.672 78.5 106.5 78.5C107.328 78.5 108 79.1716 108 80Z" fill="url(#paint80_linear)"/>
<path d="M108 87C108 87.8284 107.328 88.5 106.5 88.5C105.672 88.5 105 87.8284 105 87C105 86.1716 105.672 85.5 106.5 85.5C107.328 85.5 108 86.1716 108 87Z" fill="url(#paint81_linear)"/>
<path d="M108 94C108 94.8284 107.328 95.5 106.5 95.5C105.672 95.5 105 94.8284 105 94C105 93.1716 105.672 92.5 106.5 92.5C107.328 92.5 108 93.1716 108 94Z" fill="url(#paint82_linear)"/>
<path d="M108 101C108 101.828 107.328 102.5 106.5 102.5C105.672 102.5 105 101.828 105 101C105 100.172 105.672 99.5 106.5 99.5C107.328 99.5 108 100.172 108 101Z" fill="url(#paint83_linear)"/>
<path d="M108 108C108 108.828 107.328 109.5 106.5 109.5C105.672 109.5 105 108.828 105 108C105 107.172 105.672 106.5 106.5 106.5C107.328 106.5 108 107.172 108 108Z" fill="url(#paint84_linear)"/>
<path d="M108 115C108 115.828 107.328 116.5 106.5 116.5C105.672 116.5 105 115.828 105 115C105 114.172 105.672 113.5 106.5 113.5C107.328 113.5 108 114.172 108 115Z" fill="url(#paint85_linear)"/>
<path d="M108 122C108 122.828 107.328 123.5 106.5 123.5C105.672 123.5 105 122.828 105 122C105 121.172 105.672 120.5 106.5 120.5C107.328 120.5 108 121.172 108 122Z" fill="url(#paint86_linear)"/>
<path d="M108 129C108 129.828 107.328 130.5 106.5 130.5C105.672 130.5 105 129.828 105 129C105 128.172 105.672 127.5 106.5 127.5C107.328 127.5 108 128.172 108 129Z" fill="url(#paint87_linear)"/>
<path d="M108 136C108 136.828 107.328 137.5 106.5 137.5C105.672 137.5 105 136.828 105 136C105 135.172 105.672 134.5 106.5 134.5C107.328 134.5 108 135.172 108 136Z" fill="url(#paint88_linear)"/>
<path d="M108 143C108 143.828 107.328 144.5 106.5 144.5C105.672 144.5 105 143.828 105 143C105 142.172 105.672 141.5 106.5 141.5C107.328 141.5 108 142.172 108 143Z" fill="url(#paint89_linear)"/>
<path d="M108 150C108 150.828 107.328 151.5 106.5 151.5C105.672 151.5 105 150.828 105 150C105 149.172 105.672 148.5 106.5 148.5C107.328 148.5 108 149.172 108 150Z" fill="url(#paint90_linear)"/>
<path d="M108 157C108 157.828 107.328 158.5 106.5 158.5C105.672 158.5 105 157.828 105 157C105 156.172 105.672 155.5 106.5 155.5C107.328 155.5 108 156.172 108 157Z" fill="url(#paint91_linear)"/>
<path d="M108 164C108 164.828 107.328 165.5 106.5 165.5C105.672 165.5 105 164.828 105 164C105 163.172 105.672 162.5 106.5 162.5C107.328 162.5 108 163.172 108 164Z" fill="url(#paint92_linear)"/>
<path d="M108 171C108 171.828 107.328 172.5 106.5 172.5C105.672 172.5 105 171.828 105 171C105 170.172 105.672 169.5 106.5 169.5C107.328 169.5 108 170.172 108 171Z" fill="url(#paint93_linear)"/>
<path d="M108 178C108 178.828 107.328 179.5 106.5 179.5C105.672 179.5 105 178.828 105 178C105 177.172 105.672 176.5 106.5 176.5C107.328 176.5 108 177.172 108 178Z" fill="url(#paint94_linear)"/>
<path d="M115 52C115 52.8284 114.328 53.5 113.5 53.5C112.672 53.5 112 52.8284 112 52C112 51.1716 112.672 50.5 113.5 50.5C114.328 50.5 115 51.1716 115 52Z" fill="url(#paint95_linear)"/>
<path d="M115 59C115 59.8284 114.328 60.5 113.5 60.5C112.672 60.5 112 59.8284 112 59C112 58.1716 112.672 57.5 113.5 57.5C114.328 57.5 115 58.1716 115 59Z" fill="url(#paint96_linear)"/>
<path d="M115 66C115 66.8284 114.328 67.5 113.5 67.5C112.672 67.5 112 66.8284 112 66C112 65.1716 112.672 64.5 113.5 64.5C114.328 64.5 115 65.1716 115 66Z" fill="url(#paint97_linear)"/>
<path d="M115 73C115 73.8284 114.328 74.5 113.5 74.5C112.672 74.5 112 73.8284 112 73C112 72.1716 112.672 71.5 113.5 71.5C114.328 71.5 115 72.1716 115 73Z" fill="url(#paint98_linear)"/>
<path d="M115 80C115 80.8284 114.328 81.5 113.5 81.5C112.672 81.5 112 80.8284 112 80C112 79.1716 112.672 78.5 113.5 78.5C114.328 78.5 115 79.1716 115 80Z" fill="url(#paint99_linear)"/>
<path d="M115 87C115 87.8284 114.328 88.5 113.5 88.5C112.672 88.5 112 87.8284 112 87C112 86.1716 112.672 85.5 113.5 85.5C114.328 85.5 115 86.1716 115 87Z" fill="url(#paint100_linear)"/>
<path d="M115 94C115 94.8284 114.328 95.5 113.5 95.5C112.672 95.5 112 94.8284 112 94C112 93.1716 112.672 92.5 113.5 92.5C114.328 92.5 115 93.1716 115 94Z" fill="url(#paint101_linear)"/>
<path d="M115 101C115 101.828 114.328 102.5 113.5 102.5C112.672 102.5 112 101.828 112 101C112 100.172 112.672 99.5 113.5 99.5C114.328 99.5 115 100.172 115 101Z" fill="url(#paint102_linear)"/>
<path d="M115 108C115 108.828 114.328 109.5 113.5 109.5C112.672 109.5 112 108.828 112 108C112 107.172 112.672 106.5 113.5 106.5C114.328 106.5 115 107.172 115 108Z" fill="url(#paint103_linear)"/>
<path d="M115 115C115 115.828 114.328 116.5 113.5 116.5C112.672 116.5 112 115.828 112 115C112 114.172 112.672 113.5 113.5 113.5C114.328 113.5 115 114.172 115 115Z" fill="url(#paint104_linear)"/>
<path d="M115 122C115 122.828 114.328 123.5 113.5 123.5C112.672 123.5 112 122.828 112 122C112 121.172 112.672 120.5 113.5 120.5C114.328 120.5 115 121.172 115 122Z" fill="url(#paint105_linear)"/>
<path d="M115 129C115 129.828 114.328 130.5 113.5 130.5C112.672 130.5 112 129.828 112 129C112 128.172 112.672 127.5 113.5 127.5C114.328 127.5 115 128.172 115 129Z" fill="url(#paint106_linear)"/>
<path d="M115 136C115 136.828 114.328 137.5 113.5 137.5C112.672 137.5 112 136.828 112 136C112 135.172 112.672 134.5 113.5 134.5C114.328 134.5 115 135.172 115 136Z" fill="url(#paint107_linear)"/>
<path d="M115 143C115 143.828 114.328 144.5 113.5 144.5C112.672 144.5 112 143.828 112 143C112 142.172 112.672 141.5 113.5 141.5C114.328 141.5 115 142.172 115 143Z" fill="url(#paint108_linear)"/>
<path d="M115 150C115 150.828 114.328 151.5 113.5 151.5C112.672 151.5 112 150.828 112 150C112 149.172 112.672 148.5 113.5 148.5C114.328 148.5 115 149.172 115 150Z" fill="url(#paint109_linear)"/>
<path d="M115 157C115 157.828 114.328 158.5 113.5 158.5C112.672 158.5 112 157.828 112 157C112 156.172 112.672 155.5 113.5 155.5C114.328 155.5 115 156.172 115 157Z" fill="url(#paint110_linear)"/>
<path d="M115 164C115 164.828 114.328 165.5 113.5 165.5C112.672 165.5 112 164.828 112 164C112 163.172 112.672 162.5 113.5 162.5C114.328 162.5 115 163.172 115 164Z" fill="url(#paint111_linear)"/>
<path d="M115 171C115 171.828 114.328 172.5 113.5 172.5C112.672 172.5 112 171.828 112 171C112 170.172 112.672 169.5 113.5 169.5C114.328 169.5 115 170.172 115 171Z" fill="url(#paint112_linear)"/>
<path d="M115 178C115 178.828 114.328 179.5 113.5 179.5C112.672 179.5 112 178.828 112 178C112 177.172 112.672 176.5 113.5 176.5C114.328 176.5 115 177.172 115 178Z" fill="url(#paint113_linear)"/>
<path d="M122 52C122 52.8284 121.328 53.5 120.5 53.5C119.672 53.5 119 52.8284 119 52C119 51.1716 119.672 50.5 120.5 50.5C121.328 50.5 122 51.1716 122 52Z" fill="url(#paint114_linear)"/>
<path d="M122 59C122 59.8284 121.328 60.5 120.5 60.5C119.672 60.5 119 59.8284 119 59C119 58.1716 119.672 57.5 120.5 57.5C121.328 57.5 122 58.1716 122 59Z" fill="url(#paint115_linear)"/>
<path d="M122 66C122 66.8284 121.328 67.5 120.5 67.5C119.672 67.5 119 66.8284 119 66C119 65.1716 119.672 64.5 120.5 64.5C121.328 64.5 122 65.1716 122 66Z" fill="url(#paint116_linear)"/>
<path d="M122 73C122 73.8284 121.328 74.5 120.5 74.5C119.672 74.5 119 73.8284 119 73C119 72.1716 119.672 71.5 120.5 71.5C121.328 71.5 122 72.1716 122 73Z" fill="url(#paint117_linear)"/>
<path d="M122 80C122 80.8284 121.328 81.5 120.5 81.5C119.672 81.5 119 80.8284 119 80C119 79.1716 119.672 78.5 120.5 78.5C121.328 78.5 122 79.1716 122 80Z" fill="url(#paint118_linear)"/>
<path d="M122 87C122 87.8284 121.328 88.5 120.5 88.5C119.672 88.5 119 87.8284 119 87C119 86.1716 119.672 85.5 120.5 85.5C121.328 85.5 122 86.1716 122 87Z" fill="url(#paint119_linear)"/>
<path d="M122 94C122 94.8284 121.328 95.5 120.5 95.5C119.672 95.5 119 94.8284 119 94C119 93.1716 119.672 92.5 120.5 92.5C121.328 92.5 122 93.1716 122 94Z" fill="url(#paint120_linear)"/>
<path d="M122 101C122 101.828 121.328 102.5 120.5 102.5C119.672 102.5 119 101.828 119 101C119 100.172 119.672 99.5 120.5 99.5C121.328 99.5 122 100.172 122 101Z" fill="url(#paint121_linear)"/>
<path d="M122 108C122 108.828 121.328 109.5 120.5 109.5C119.672 109.5 119 108.828 119 108C119 107.172 119.672 106.5 120.5 106.5C121.328 106.5 122 107.172 122 108Z" fill="url(#paint122_linear)"/>
<path d="M122 115C122 115.828 121.328 116.5 120.5 116.5C119.672 116.5 119 115.828 119 115C119 114.172 119.672 113.5 120.5 113.5C121.328 113.5 122 114.172 122 115Z" fill="url(#paint123_linear)"/>
<path d="M122 122C122 122.828 121.328 123.5 120.5 123.5C119.672 123.5 119 122.828 119 122C119 121.172 119.672 120.5 120.5 120.5C121.328 120.5 122 121.172 122 122Z" fill="url(#paint124_linear)"/>
<path d="M122 129C122 129.828 121.328 130.5 120.5 130.5C119.672 130.5 119 129.828 119 129C119 128.172 119.672 127.5 120.5 127.5C121.328 127.5 122 128.172 122 129Z" fill="url(#paint125_linear)"/>
<path d="M122 136C122 136.828 121.328 137.5 120.5 137.5C119.672 137.5 119 136.828 119 136C119 135.172 119.672 134.5 120.5 134.5C121.328 134.5 122 135.172 122 136Z" fill="url(#paint126_linear)"/>
<path d="M122 143C122 143.828 121.328 144.5 120.5 144.5C119.672 144.5 119 143.828 119 143C119 142.172 119.672 141.5 120.5 141.5C121.328 141.5 122 142.172 122 143Z" fill="url(#paint127_linear)"/>
<path d="M122 150C122 150.828 121.328 151.5 120.5 151.5C119.672 151.5 119 150.828 119 150C119 149.172 119.672 148.5 120.5 148.5C121.328 148.5 122 149.172 122 150Z" fill="url(#paint128_linear)"/>
<path d="M122 157C122 157.828 121.328 158.5 120.5 158.5C119.672 158.5 119 157.828 119 157C119 156.172 119.672 155.5 120.5 155.5C121.328 155.5 122 156.172 122 157Z" fill="url(#paint129_linear)"/>
<path d="M122 164C122 164.828 121.328 165.5 120.5 165.5C119.672 165.5 119 164.828 119 164C119 163.172 119.672 162.5 120.5 162.5C121.328 162.5 122 163.172 122 164Z" fill="url(#paint130_linear)"/>
<path d="M122 171C122 171.828 121.328 172.5 120.5 172.5C119.672 172.5 119 171.828 119 171C119 170.172 119.672 169.5 120.5 169.5C121.328 169.5 122 170.172 122 171Z" fill="url(#paint131_linear)"/>
<path d="M122 178C122 178.828 121.328 179.5 120.5 179.5C119.672 179.5 119 178.828 119 178C119 177.172 119.672 176.5 120.5 176.5C121.328 176.5 122 177.172 122 178Z" fill="url(#paint132_linear)"/>
<path d="M129 52C129 52.8284 128.328 53.5 127.5 53.5C126.672 53.5 126 52.8284 126 52C126 51.1716 126.672 50.5 127.5 50.5C128.328 50.5 129 51.1716 129 52Z" fill="url(#paint133_linear)"/>
<path d="M129 59C129 59.8284 128.328 60.5 127.5 60.5C126.672 60.5 126 59.8284 126 59C126 58.1716 126.672 57.5 127.5 57.5C128.328 57.5 129 58.1716 129 59Z" fill="url(#paint134_linear)"/>
<path d="M129 66C129 66.8284 128.328 67.5 127.5 67.5C126.672 67.5 126 66.8284 126 66C126 65.1716 126.672 64.5 127.5 64.5C128.328 64.5 129 65.1716 129 66Z" fill="url(#paint135_linear)"/>
<path d="M129 73C129 73.8284 128.328 74.5 127.5 74.5C126.672 74.5 126 73.8284 126 73C126 72.1716 126.672 71.5 127.5 71.5C128.328 71.5 129 72.1716 129 73Z" fill="url(#paint136_linear)"/>
<path d="M129 80C129 80.8284 128.328 81.5 127.5 81.5C126.672 81.5 126 80.8284 126 80C126 79.1716 126.672 78.5 127.5 78.5C128.328 78.5 129 79.1716 129 80Z" fill="url(#paint137_linear)"/>
<path d="M129 87C129 87.8284 128.328 88.5 127.5 88.5C126.672 88.5 126 87.8284 126 87C126 86.1716 126.672 85.5 127.5 85.5C128.328 85.5 129 86.1716 129 87Z" fill="url(#paint138_linear)"/>
<path d="M129 94C129 94.8284 128.328 95.5 127.5 95.5C126.672 95.5 126 94.8284 126 94C126 93.1716 126.672 92.5 127.5 92.5C128.328 92.5 129 93.1716 129 94Z" fill="url(#paint139_linear)"/>
<path d="M129 101C129 101.828 128.328 102.5 127.5 102.5C126.672 102.5 126 101.828 126 101C126 100.172 126.672 99.5 127.5 99.5C128.328 99.5 129 100.172 129 101Z" fill="url(#paint140_linear)"/>
<path d="M129 108C129 108.828 128.328 109.5 127.5 109.5C126.672 109.5 126 108.828 126 108C126 107.172 126.672 106.5 127.5 106.5C128.328 106.5 129 107.172 129 108Z" fill="url(#paint141_linear)"/>
<path d="M129 115C129 115.828 128.328 116.5 127.5 116.5C126.672 116.5 126 115.828 126 115C126 114.172 126.672 113.5 127.5 113.5C128.328 113.5 129 114.172 129 115Z" fill="url(#paint142_linear)"/>
<path d="M129 122C129 122.828 128.328 123.5 127.5 123.5C126.672 123.5 126 122.828 126 122C126 121.172 126.672 120.5 127.5 120.5C128.328 120.5 129 121.172 129 122Z" fill="url(#paint143_linear)"/>
<path d="M129 129C129 129.828 128.328 130.5 127.5 130.5C126.672 130.5 126 129.828 126 129C126 128.172 126.672 127.5 127.5 127.5C128.328 127.5 129 128.172 129 129Z" fill="url(#paint144_linear)"/>
<path d="M129 136C129 136.828 128.328 137.5 127.5 137.5C126.672 137.5 126 136.828 126 136C126 135.172 126.672 134.5 127.5 134.5C128.328 134.5 129 135.172 129 136Z" fill="url(#paint145_linear)"/>
<path d="M129 143C129 143.828 128.328 144.5 127.5 144.5C126.672 144.5 126 143.828 126 143C126 142.172 126.672 141.5 127.5 141.5C128.328 141.5 129 142.172 129 143Z" fill="url(#paint146_linear)"/>
<path d="M129 150C129 150.828 128.328 151.5 127.5 151.5C126.672 151.5 126 150.828 126 150C126 149.172 126.672 148.5 127.5 148.5C128.328 148.5 129 149.172 129 150Z" fill="url(#paint147_linear)"/>
<path d="M129 157C129 157.828 128.328 158.5 127.5 158.5C126.672 158.5 126 157.828 126 157C126 156.172 126.672 155.5 127.5 155.5C128.328 155.5 129 156.172 129 157Z" fill="url(#paint148_linear)"/>
<path d="M129 164C129 164.828 128.328 165.5 127.5 165.5C126.672 165.5 126 164.828 126 164C126 163.172 126.672 162.5 127.5 162.5C128.328 162.5 129 163.172 129 164Z" fill="url(#paint149_linear)"/>
<path d="M129 171C129 171.828 128.328 172.5 127.5 172.5C126.672 172.5 126 171.828 126 171C126 170.172 126.672 169.5 127.5 169.5C128.328 169.5 129 170.172 129 171Z" fill="url(#paint150_linear)"/>
<path d="M129 178C129 178.828 128.328 179.5 127.5 179.5C126.672 179.5 126 178.828 126 178C126 177.172 126.672 176.5 127.5 176.5C128.328 176.5 129 177.172 129 178Z" fill="url(#paint151_linear)"/>
<path d="M136 52C136 52.8284 135.328 53.5 134.5 53.5C133.672 53.5 133 52.8284 133 52C133 51.1716 133.672 50.5 134.5 50.5C135.328 50.5 136 51.1716 136 52Z" fill="url(#paint152_linear)"/>
<path d="M136 59C136 59.8284 135.328 60.5 134.5 60.5C133.672 60.5 133 59.8284 133 59C133 58.1716 133.672 57.5 134.5 57.5C135.328 57.5 136 58.1716 136 59Z" fill="url(#paint153_linear)"/>
<path d="M136 66C136 66.8284 135.328 67.5 134.5 67.5C133.672 67.5 133 66.8284 133 66C133 65.1716 133.672 64.5 134.5 64.5C135.328 64.5 136 65.1716 136 66Z" fill="url(#paint154_linear)"/>
<path d="M136 73C136 73.8284 135.328 74.5 134.5 74.5C133.672 74.5 133 73.8284 133 73C133 72.1716 133.672 71.5 134.5 71.5C135.328 71.5 136 72.1716 136 73Z" fill="url(#paint155_linear)"/>
<path d="M136 80C136 80.8284 135.328 81.5 134.5 81.5C133.672 81.5 133 80.8284 133 80C133 79.1716 133.672 78.5 134.5 78.5C135.328 78.5 136 79.1716 136 80Z" fill="url(#paint156_linear)"/>
<path d="M136 87C136 87.8284 135.328 88.5 134.5 88.5C133.672 88.5 133 87.8284 133 87C133 86.1716 133.672 85.5 134.5 85.5C135.328 85.5 136 86.1716 136 87Z" fill="url(#paint157_linear)"/>
<path d="M136 94C136 94.8284 135.328 95.5 134.5 95.5C133.672 95.5 133 94.8284 133 94C133 93.1716 133.672 92.5 134.5 92.5C135.328 92.5 136 93.1716 136 94Z" fill="url(#paint158_linear)"/>
<path d="M136 101C136 101.828 135.328 102.5 134.5 102.5C133.672 102.5 133 101.828 133 101C133 100.172 133.672 99.5 134.5 99.5C135.328 99.5 136 100.172 136 101Z" fill="url(#paint159_linear)"/>
<path d="M136 108C136 108.828 135.328 109.5 134.5 109.5C133.672 109.5 133 108.828 133 108C133 107.172 133.672 106.5 134.5 106.5C135.328 106.5 136 107.172 136 108Z" fill="url(#paint160_linear)"/>
<path d="M136 115C136 115.828 135.328 116.5 134.5 116.5C133.672 116.5 133 115.828 133 115C133 114.172 133.672 113.5 134.5 113.5C135.328 113.5 136 114.172 136 115Z" fill="url(#paint161_linear)"/>
<path d="M136 122C136 122.828 135.328 123.5 134.5 123.5C133.672 123.5 133 122.828 133 122C133 121.172 133.672 120.5 134.5 120.5C135.328 120.5 136 121.172 136 122Z" fill="url(#paint162_linear)"/>
<path d="M136 129C136 129.828 135.328 130.5 134.5 130.5C133.672 130.5 133 129.828 133 129C133 128.172 133.672 127.5 134.5 127.5C135.328 127.5 136 128.172 136 129Z" fill="url(#paint163_linear)"/>
<path d="M136 136C136 136.828 135.328 137.5 134.5 137.5C133.672 137.5 133 136.828 133 136C133 135.172 133.672 134.5 134.5 134.5C135.328 134.5 136 135.172 136 136Z" fill="url(#paint164_linear)"/>
<path d="M136 143C136 143.828 135.328 144.5 134.5 144.5C133.672 144.5 133 143.828 133 143C133 142.172 133.672 141.5 134.5 141.5C135.328 141.5 136 142.172 136 143Z" fill="url(#paint165_linear)"/>
<path d="M136 150C136 150.828 135.328 151.5 134.5 151.5C133.672 151.5 133 150.828 133 150C133 149.172 133.672 148.5 134.5 148.5C135.328 148.5 136 149.172 136 150Z" fill="url(#paint166_linear)"/>
<path d="M136 157C136 157.828 135.328 158.5 134.5 158.5C133.672 158.5 133 157.828 133 157C133 156.172 133.672 155.5 134.5 155.5C135.328 155.5 136 156.172 136 157Z" fill="url(#paint167_linear)"/>
<path d="M136 164C136 164.828 135.328 165.5 134.5 165.5C133.672 165.5 133 164.828 133 164C133 163.172 133.672 162.5 134.5 162.5C135.328 162.5 136 163.172 136 164Z" fill="url(#paint168_linear)"/>
<path d="M136 171C136 171.828 135.328 172.5 134.5 172.5C133.672 172.5 133 171.828 133 171C133 170.172 133.672 169.5 134.5 169.5C135.328 169.5 136 170.172 136 171Z" fill="url(#paint169_linear)"/>
<path d="M136 178C136 178.828 135.328 179.5 134.5 179.5C133.672 179.5 133 178.828 133 178C133 177.172 133.672 176.5 134.5 176.5C135.328 176.5 136 177.172 136 178Z" fill="url(#paint170_linear)"/>
<path d="M90.28 183H90.804L89.7 180.164H89.144L88.04 183H88.548L88.812 182.288H90.012L90.28 183ZM89.412 180.684L89.844 181.844H88.98L89.412 180.684Z" fill="white"/>
<path d="M93.3838 183V182.544H92.0838V180.164H91.6038V183H93.3838Z" fill="white"/>
<path d="M96.2333 183H96.7573L95.6533 180.164H95.0973L93.9933 183H94.5013L94.7653 182.288H95.9653L96.2333 183ZM95.3653 180.684L95.7973 181.844H94.9333L95.3653 180.684Z" fill="white"/>
<path d="M99.937 183V180.164H99.457V182.176L98.169 180.164H97.557V183H98.037V180.852L99.437 183H99.937Z" fill="white"/>
<path d="M105.072 182.252L104.396 180.164H103.896L103.232 182.236L102.664 180.164H102.16L102.964 183H103.456L104.144 180.856L104.832 183H105.328L106.124 180.164H105.628L105.072 182.252Z" fill="white"/>
<path d="M106.491 182.7C106.491 182.88 106.635 183.024 106.815 183.024C106.995 183.024 107.143 182.88 107.143 182.7C107.143 182.52 106.995 182.372 106.815 182.372C106.635 182.372 106.491 182.52 106.491 182.7Z" fill="white"/>
<path d="M112.203 182.252L111.527 180.164H111.027L110.363 182.236L109.795 180.164H109.291L110.095 183H110.587L111.275 180.856L111.963 183H112.459L113.255 180.164H112.759L112.203 182.252Z" fill="white"/>
<path d="M115.833 183H116.357L115.253 180.164H114.697L113.593 183H114.101L114.365 182.288H115.565L115.833 183ZM114.965 180.684L115.397 181.844H114.533L114.965 180.684Z" fill="white"/>
<path d="M118.931 180.616V180.164H116.607V180.616H117.527V183H118.007V180.616H118.931Z" fill="white"/>
<path d="M121.859 180.616V180.164H119.535V180.616H120.455V183H120.935V180.616H121.859Z" fill="white"/>
<path d="M124.537 180.828C124.473 180.512 124.213 180.104 123.545 180.104C123.017 180.104 122.581 180.496 122.581 180.972C122.581 181.396 122.869 181.68 123.301 181.768L123.701 181.852C123.945 181.904 124.081 182.052 124.081 182.236C124.081 182.456 123.905 182.628 123.565 182.628C123.157 182.628 122.945 182.356 122.917 182.06L122.469 182.188C122.513 182.596 122.845 183.06 123.565 183.06C124.213 183.06 124.569 182.64 124.569 182.2C124.569 181.8 124.301 181.484 123.801 181.384L123.393 181.3C123.173 181.252 123.061 181.116 123.061 180.936C123.061 180.72 123.261 180.528 123.549 180.528C123.929 180.528 124.077 180.788 124.105 180.964L124.537 180.828Z" fill="white"/>
<path d="M25.28 117H25.804L24.7 114.164H24.144L23.04 117H23.548L23.812 116.288H25.012L25.28 117ZM24.412 114.684L24.844 115.844H23.98L24.412 114.684Z" fill="#413B89"/>
<path d="M27.4559 115.468V114.588H27.9559C28.2599 114.588 28.4439 114.76 28.4439 115.032C28.4439 115.3 28.2599 115.468 27.9559 115.468H27.4559ZM28.0279 115.892C28.5719 115.892 28.9319 115.528 28.9319 115.028C28.9319 114.532 28.5719 114.164 28.0279 114.164H26.9759V117H27.4559V115.892H28.0279Z" fill="#413B89"/>
<path d="M29.4256 115.812C29.4416 115.604 29.6096 115.38 29.9016 115.38C30.2216 115.38 30.3736 115.584 30.3816 115.812H29.4256ZM30.4336 116.32C30.3696 116.512 30.2256 116.66 29.9456 116.66C29.6576 116.66 29.4256 116.448 29.4136 116.152H30.8376C30.8416 116.144 30.8496 116.08 30.8496 116.004C30.8496 115.388 30.4976 114.992 29.8976 114.992C29.4056 114.992 28.9496 115.4 28.9496 116.016C28.9496 116.676 29.4176 117.06 29.9456 117.06C30.4136 117.06 30.7216 116.784 30.8256 116.444L30.4336 116.32Z" fill="#413B89"/>
<path d="M31.657 117V114.104H31.193V117H31.657Z" fill="#413B89"/>
<path d="M32.6155 117V115.052H32.1555V117H32.6155ZM32.0835 114.368C32.0835 114.536 32.2195 114.668 32.3835 114.668C32.5515 114.668 32.6875 114.536 32.6875 114.368C32.6875 114.2 32.5515 114.064 32.3835 114.064C32.2195 114.064 32.0835 114.2 32.0835 114.368Z" fill="#413B89"/>
<path d="M33.9621 115.42C34.2581 115.42 34.3901 115.612 34.4341 115.784L34.8501 115.632C34.7701 115.32 34.4821 114.992 33.9581 114.992C33.3981 114.992 32.9621 115.424 32.9621 116.024C32.9621 116.616 33.3981 117.06 33.9701 117.06C34.4821 117.06 34.7741 116.728 34.8661 116.424L34.4581 116.276C34.4141 116.424 34.2741 116.636 33.9701 116.636C33.6781 116.636 33.4261 116.416 33.4261 116.024C33.4261 115.632 33.6781 115.42 33.9621 115.42Z" fill="#413B89"/>
<path d="M35.0464 116.472C35.0464 116.78 35.2984 117.06 35.7064 117.06C36.0224 117.06 36.2144 116.9 36.3064 116.752C36.3064 116.908 36.3224 116.988 36.3264 117H36.7584C36.7544 116.98 36.7344 116.864 36.7344 116.688V115.72C36.7344 115.332 36.5064 114.992 35.9064 114.992C35.4264 114.992 35.1224 115.292 35.0864 115.628L35.5104 115.724C35.5304 115.528 35.6664 115.372 35.9104 115.372C36.1664 115.372 36.2784 115.504 36.2784 115.668C36.2784 115.736 36.2464 115.792 36.1344 115.808L35.6344 115.884C35.3024 115.932 35.0464 116.124 35.0464 116.472ZM35.7944 116.696C35.6104 116.696 35.5104 116.576 35.5104 116.444C35.5104 116.284 35.6264 116.204 35.7704 116.18L36.2784 116.104V116.192C36.2784 116.572 36.0544 116.696 35.7944 116.696Z" fill="#413B89"/>
<path d="M37.6593 115.876C37.6593 115.62 37.7993 115.416 38.0633 115.416C38.3553 115.416 38.4633 115.608 38.4633 115.848V117H38.9273V115.768C38.9273 115.34 38.6993 114.996 38.2233 114.996C38.0073 114.996 37.7753 115.088 37.6473 115.312V115.052H37.1953V117H37.6593V115.876Z" fill="#413B89"/>
<path d="M40.3244 114.164V117H41.3724C41.9004 117 42.2524 116.672 42.2524 116.216C42.2524 115.88 42.0444 115.62 41.7444 115.54C41.9884 115.452 42.1644 115.228 42.1644 114.928C42.1644 114.484 41.8444 114.164 41.3004 114.164H40.3244ZM40.8004 115.364V114.572H41.2244C41.5164 114.572 41.6844 114.728 41.6844 114.968C41.6844 115.204 41.5164 115.364 41.2364 115.364H40.8004ZM40.8004 116.592V115.768H41.3044C41.6004 115.768 41.7644 115.94 41.7644 116.184C41.7644 116.436 41.5764 116.592 41.2884 116.592H40.8004Z" fill="#413B89"/>
<path d="M43.4896 116.644C43.2056 116.644 42.9456 116.428 42.9456 116.024C42.9456 115.62 43.2056 115.412 43.4896 115.412C43.7776 115.412 44.0336 115.62 44.0336 116.024C44.0336 116.432 43.7776 116.644 43.4896 116.644ZM43.4896 114.992C42.9096 114.992 42.4816 115.428 42.4816 116.024C42.4816 116.624 42.9096 117.06 43.4896 117.06C44.0736 117.06 44.5016 116.624 44.5016 116.024C44.5016 115.428 44.0736 114.992 43.4896 114.992Z" fill="#413B89"/>
<path d="M45.706 116.644C45.422 116.644 45.162 116.428 45.162 116.024C45.162 115.62 45.422 115.412 45.706 115.412C45.994 115.412 46.25 115.62 46.25 116.024C46.25 116.432 45.994 116.644 45.706 116.644ZM45.706 114.992C45.126 114.992 44.698 115.428 44.698 116.024C44.698 116.624 45.126 117.06 45.706 117.06C46.29 117.06 46.718 116.624 46.718 116.024C46.718 115.428 46.29 114.992 45.706 114.992Z" fill="#413B89"/>
<path d="M48.8904 115.052H48.2744L47.5264 115.84V114.104H47.0664V117H47.5264V116.456L47.7664 116.204L48.3384 117H48.9064L48.0904 115.876L48.8904 115.052Z" fill="#413B89"/>
<defs>
<filter id="filter0_b" x="-3.5" y="116.831" width="78.5" height="78" filterUnits="userSpaceOnUse" color-interpolation-filters="sRGB">
<feFlood flood-opacity="0" result="BackgroundImageFix"/>
<feGaussianBlur in="BackgroundImage" stdDeviation="2"/>
<feComposite in2="SourceAlpha" operator="in" result="effect1_backgroundBlur"/>
<feBlend mode="normal" in="SourceGraphic" in2="effect1_backgroundBlur" result="shape"/>
</filter>
<linearGradient id="paint0_linear" x1="106.5" y1="50.5" x2="107" y2="155.5" gradientUnits="userSpaceOnUse">
<stop stop-color="#716BB8"/>
<stop offset="1" stop-color="#413B89"/>
</linearGradient>
<linearGradient id="paint1_linear" x1="106.5" y1="50.5" x2="107" y2="155.5" gradientUnits="userSpaceOnUse">
<stop stop-color="#716BB8"/>
<stop offset="1" stop-color="#413B89"/>
</linearGradient>
<linearGradient id="paint2_linear" x1="106.5" y1="50.5" x2="107" y2="155.5" gradientUnits="userSpaceOnUse">
<stop stop-color="#716BB8"/>
<stop offset="1" stop-color="#413B89"/>
</linearGradient>
<linearGradient id="paint3_linear" x1="106.5" y1="50.5" x2="107" y2="155.5" gradientUnits="userSpaceOnUse">
<stop stop-color="#716BB8"/>
<stop offset="1" stop-color="#413B89"/>
</linearGradient>
<linearGradient id="paint4_linear" x1="106.5" y1="50.5" x2="107" y2="155.5" gradientUnits="userSpaceOnUse">
<stop stop-color="#716BB8"/>
<stop offset="1" stop-color="#413B89"/>
</linearGradient>
<linearGradient id="paint5_linear" x1="106.5" y1="50.5" x2="107" y2="155.5" gradientUnits="userSpaceOnUse">
<stop stop-color="#716BB8"/>
<stop offset="1" stop-color="#413B89"/>
</linearGradient>
<linearGradient id="paint6_linear" x1="106.5" y1="50.5" x2="107" y2="155.5" gradientUnits="userSpaceOnUse">
<stop stop-color="#716BB8"/>
<stop offset="1" stop-color="#413B89"/>
</linearGradient>
<linearGradient id="paint7_linear" x1="106.5" y1="50.5" x2="107" y2="155.5" gradientUnits="userSpaceOnUse">
<stop stop-color="#716BB8"/>
<stop offset="1" stop-color="#413B89"/>
</linearGradient>
<linearGradient id="paint8_linear" x1="106.5" y1="50.5" x2="107" y2="155.5" gradientUnits="userSpaceOnUse">
<stop stop-color="#716BB8"/>
<stop offset="1" stop-color="#413B89"/>
</linearGradient>
<linearGradient id="paint9_linear" x1="106.5" y1="50.5" x2="107" y2="155.5" gradientUnits="userSpaceOnUse">
<stop stop-color="#716BB8"/>
<stop offset="1" stop-color="#413B89"/>
</linearGradient>
<linearGradient id="paint10_linear" x1="106.5" y1="50.5" x2="107" y2="155.5" gradientUnits="userSpaceOnUse">
<stop stop-color="#716BB8"/>
<stop offset="1" stop-color="#413B89"/>
</linearGradient>
<linearGradient id="paint11_linear" x1="106.5" y1="50.5" x2="107" y2="155.5" gradientUnits="userSpaceOnUse">
<stop stop-color="#716BB8"/>
<stop offset="1" stop-color="#413B89"/>
</linearGradient>
<linearGradient id="paint12_linear" x1="106.5" y1="50.5" x2="107" y2="155.5" gradientUnits="userSpaceOnUse">
<stop stop-color="#716BB8"/>
<stop offset="1" stop-color="#413B89"/>
</linearGradient>
<linearGradient id="paint13_linear" x1="106.5" y1="50.5" x2="107" y2="155.5" gradientUnits="userSpaceOnUse">
<stop stop-color="#716BB8"/>
<stop offset="1" stop-color="#413B89"/>
</linearGradient>
<linearGradient id="paint14_linear" x1="106.5" y1="50.5" x2="107" y2="155.5" gradientUnits="userSpaceOnUse">
<stop stop-color="#716BB8"/>
<stop offset="1" stop-color="#413B89"/>
</linearGradient>
<linearGradient id="paint15_linear" x1="106.5" y1="50.5" x2="107" y2="155.5" gradientUnits="userSpaceOnUse">
<stop stop-color="#716BB8"/>
<stop offset="1" stop-color="#413B89"/>
</linearGradient>
<linearGradient id="paint16_linear" x1="106.5" y1="50.5" x2="107" y2="155.5" gradientUnits="userSpaceOnUse">
<stop stop-color="#716BB8"/>
<stop offset="1" stop-color="#413B89"/>
</linearGradient>
<linearGradient id="paint17_linear" x1="106.5" y1="50.5" x2="107" y2="155.5" gradientUnits="userSpaceOnUse">
<stop stop-color="#716BB8"/>
<stop offset="1" stop-color="#413B89"/>
</linearGradient>
<linearGradient id="paint18_linear" x1="106.5" y1="50.5" x2="107" y2="155.5" gradientUnits="userSpaceOnUse">
<stop stop-color="#716BB8"/>
<stop offset="1" stop-color="#413B89"/>
</linearGradient>
<linearGradient id="paint19_linear" x1="106.5" y1="50.5" x2="107" y2="155.5" gradientUnits="userSpaceOnUse">
<stop stop-color="#716BB8"/>
<stop offset="1" stop-color="#413B89"/>
</linearGradient>
<linearGradient id="paint20_linear" x1="106.5" y1="50.5" x2="107" y2="155.5" gradientUnits="userSpaceOnUse">
<stop stop-color="#716BB8"/>
<stop offset="1" stop-color="#413B89"/>
</linearGradient>
<linearGradient id="paint21_linear" x1="106.5" y1="50.5" x2="107" y2="155.5" gradientUnits="userSpaceOnUse">
<stop stop-color="#716BB8"/>
<stop offset="1" stop-color="#413B89"/>
</linearGradient>
<linearGradient id="paint22_linear" x1="106.5" y1="50.5" x2="107" y2="155.5" gradientUnits="userSpaceOnUse">
<stop stop-color="#716BB8"/>
<stop offset="1" stop-color="#413B89"/>
</linearGradient>
<linearGradient id="paint23_linear" x1="106.5" y1="50.5" x2="107" y2="155.5" gradientUnits="userSpaceOnUse">
<stop stop-color="#716BB8"/>
<stop offset="1" stop-color="#413B89"/>
</linearGradient>
<linearGradient id="paint24_linear" x1="106.5" y1="50.5" x2="107" y2="155.5" gradientUnits="userSpaceOnUse">
<stop stop-color="#716BB8"/>
<stop offset="1" stop-color="#413B89"/>
</linearGradient>
<linearGradient id="paint25_linear" x1="106.5" y1="50.5" x2="107" y2="155.5" gradientUnits="userSpaceOnUse">
<stop stop-color="#716BB8"/>
<stop offset="1" stop-color="#413B89"/>
</linearGradient>
<linearGradient id="paint26_linear" x1="106.5" y1="50.5" x2="107" y2="155.5" gradientUnits="userSpaceOnUse">
<stop stop-color="#716BB8"/>
<stop offset="1" stop-color="#413B89"/>
</linearGradient>
<linearGradient id="paint27_linear" x1="106.5" y1="50.5" x2="107" y2="155.5" gradientUnits="userSpaceOnUse">
<stop stop-color="#716BB8"/>
<stop offset="1" stop-color="#413B89"/>
</linearGradient>
<linearGradient id="paint28_linear" x1="106.5" y1="50.5" x2="107" y2="155.5" gradientUnits="userSpaceOnUse">
<stop stop-color="#716BB8"/>
<stop offset="1" stop-color="#413B89"/>
</linearGradient>
<linearGradient id="paint29_linear" x1="106.5" y1="50.5" x2="107" y2="155.5" gradientUnits="userSpaceOnUse">
<stop stop-color="#716BB8"/>
<stop offset="1" stop-color="#413B89"/>
</linearGradient>
<linearGradient id="paint30_linear" x1="106.5" y1="50.5" x2="107" y2="155.5" gradientUnits="userSpaceOnUse">
<stop stop-color="#716BB8"/>
<stop offset="1" stop-color="#413B89"/>
</linearGradient>
<linearGradient id="paint31_linear" x1="106.5" y1="50.5" x2="107" y2="155.5" gradientUnits="userSpaceOnUse">
<stop stop-color="#716BB8"/>
<stop offset="1" stop-color="#413B89"/>
</linearGradient>
<linearGradient id="paint32_linear" x1="106.5" y1="50.5" x2="107" y2="155.5" gradientUnits="userSpaceOnUse">
<stop stop-color="#716BB8"/>
<stop offset="1" stop-color="#413B89"/>
</linearGradient>
<linearGradient id="paint33_linear" x1="106.5" y1="50.5" x2="107" y2="155.5" gradientUnits="userSpaceOnUse">
<stop stop-color="#716BB8"/>
<stop offset="1" stop-color="#413B89"/>
</linearGradient>
<linearGradient id="paint34_linear" x1="106.5" y1="50.5" x2="107" y2="155.5" gradientUnits="userSpaceOnUse">
<stop stop-color="#716BB8"/>
<stop offset="1" stop-color="#413B89"/>
</linearGradient>
<linearGradient id="paint35_linear" x1="106.5" y1="50.5" x2="107" y2="155.5" gradientUnits="userSpaceOnUse">
<stop stop-color="#716BB8"/>
<stop offset="1" stop-color="#413B89"/>
</linearGradient>
<linearGradient id="paint36_linear" x1="106.5" y1="50.5" x2="107" y2="155.5" gradientUnits="userSpaceOnUse">
<stop stop-color="#716BB8"/>
<stop offset="1" stop-color="#413B89"/>
</linearGradient>
<linearGradient id="paint37_linear" x1="106.5" y1="50.5" x2="107" y2="155.5" gradientUnits="userSpaceOnUse">
<stop stop-color="#716BB8"/>
<stop offset="1" stop-color="#413B89"/>
</linearGradient>
<linearGradient id="paint38_linear" x1="106.5" y1="50.5" x2="107" y2="155.5" gradientUnits="userSpaceOnUse">
<stop stop-color="#716BB8"/>
<stop offset="1" stop-color="#413B89"/>
</linearGradient>
<linearGradient id="paint39_linear" x1="106.5" y1="50.5" x2="107" y2="155.5" gradientUnits="userSpaceOnUse">
<stop stop-color="#716BB8"/>
<stop offset="1" stop-color="#413B89"/>
</linearGradient>
<linearGradient id="paint40_linear" x1="106.5" y1="50.5" x2="107" y2="155.5" gradientUnits="userSpaceOnUse">
<stop stop-color="#716BB8"/>
<stop offset="1" stop-color="#413B89"/>
</linearGradient>
<linearGradient id="paint41_linear" x1="106.5" y1="50.5" x2="107" y2="155.5" gradientUnits="userSpaceOnUse">
<stop stop-color="#716BB8"/>
<stop offset="1" stop-color="#413B89"/>
</linearGradient>
<linearGradient id="paint42_linear" x1="106.5" y1="50.5" x2="107" y2="155.5" gradientUnits="userSpaceOnUse">
<stop stop-color="#716BB8"/>
<stop offset="1" stop-color="#413B89"/>
</linearGradient>
<linearGradient id="paint43_linear" x1="106.5" y1="50.5" x2="107" y2="155.5" gradientUnits="userSpaceOnUse">
<stop stop-color="#716BB8"/>
<stop offset="1" stop-color="#413B89"/>
</linearGradient>
<linearGradient id="paint44_linear" x1="106.5" y1="50.5" x2="107" y2="155.5" gradientUnits="userSpaceOnUse">
<stop stop-color="#716BB8"/>
<stop offset="1" stop-color="#413B89"/>
</linearGradient>
<linearGradient id="paint45_linear" x1="106.5" y1="50.5" x2="107" y2="155.5" gradientUnits="userSpaceOnUse">
<stop stop-color="#716BB8"/>
<stop offset="1" stop-color="#413B89"/>
</linearGradient>
<linearGradient id="paint46_linear" x1="106.5" y1="50.5" x2="107" y2="155.5" gradientUnits="userSpaceOnUse">
<stop stop-color="#716BB8"/>
<stop offset="1" stop-color="#413B89"/>
</linearGradient>
<linearGradient id="paint47_linear" x1="106.5" y1="50.5" x2="107" y2="155.5" gradientUnits="userSpaceOnUse">
<stop stop-color="#716BB8"/>
<stop offset="1" stop-color="#413B89"/>
</linearGradient>
<linearGradient id="paint48_linear" x1="106.5" y1="50.5" x2="107" y2="155.5" gradientUnits="userSpaceOnUse">
<stop stop-color="#716BB8"/>
<stop offset="1" stop-color="#413B89"/>
</linearGradient>
<linearGradient id="paint49_linear" x1="106.5" y1="50.5" x2="107" y2="155.5" gradientUnits="userSpaceOnUse">
<stop stop-color="#716BB8"/>
<stop offset="1" stop-color="#413B89"/>
</linearGradient>
<linearGradient id="paint50_linear" x1="106.5" y1="50.5" x2="107" y2="155.5" gradientUnits="userSpaceOnUse">
<stop stop-color="#716BB8"/>
<stop offset="1" stop-color="#413B89"/>
</linearGradient>
<linearGradient id="paint51_linear" x1="106.5" y1="50.5" x2="107" y2="155.5" gradientUnits="userSpaceOnUse">
<stop stop-color="#716BB8"/>
<stop offset="1" stop-color="#413B89"/>
</linearGradient>
<linearGradient id="paint52_linear" x1="106.5" y1="50.5" x2="107" y2="155.5" gradientUnits="userSpaceOnUse">
<stop stop-color="#716BB8"/>
<stop offset="1" stop-color="#413B89"/>
</linearGradient>
<linearGradient id="paint53_linear" x1="106.5" y1="50.5" x2="107" y2="155.5" gradientUnits="userSpaceOnUse">
<stop stop-color="#716BB8"/>
<stop offset="1" stop-color="#413B89"/>
</linearGradient>
<linearGradient id="paint54_linear" x1="106.5" y1="50.5" x2="107" y2="155.5" gradientUnits="userSpaceOnUse">
<stop stop-color="#716BB8"/>
<stop offset="1" stop-color="#413B89"/>
</linearGradient>
<linearGradient id="paint55_linear" x1="106.5" y1="50.5" x2="107" y2="155.5" gradientUnits="userSpaceOnUse">
<stop stop-color="#716BB8"/>
<stop offset="1" stop-color="#413B89"/>
</linearGradient>
<linearGradient id="paint56_linear" x1="106.5" y1="50.5" x2="107" y2="155.5" gradientUnits="userSpaceOnUse">
<stop stop-color="#716BB8"/>
<stop offset="1" stop-color="#413B89"/>
</linearGradient>
<linearGradient id="paint57_linear" x1="106.5" y1="50.5" x2="107" y2="155.5" gradientUnits="userSpaceOnUse">
<stop stop-color="#716BB8"/>
<stop offset="1" stop-color="#413B89"/>
</linearGradient>
<linearGradient id="paint58_linear" x1="106.5" y1="50.5" x2="107" y2="155.5" gradientUnits="userSpaceOnUse">
<stop stop-color="#716BB8"/>
<stop offset="1" stop-color="#413B89"/>
</linearGradient>
<linearGradient id="paint59_linear" x1="106.5" y1="50.5" x2="107" y2="155.5" gradientUnits="userSpaceOnUse">
<stop stop-color="#716BB8"/>
<stop offset="1" stop-color="#413B89"/>
</linearGradient>
<linearGradient id="paint60_linear" x1="106.5" y1="50.5" x2="107" y2="155.5" gradientUnits="userSpaceOnUse">
<stop stop-color="#716BB8"/>
<stop offset="1" stop-color="#413B89"/>
</linearGradient>
<linearGradient id="paint61_linear" x1="106.5" y1="50.5" x2="107" y2="155.5" gradientUnits="userSpaceOnUse">
<stop stop-color="#716BB8"/>
<stop offset="1" stop-color="#413B89"/>
</linearGradient>
<linearGradient id="paint62_linear" x1="106.5" y1="50.5" x2="107" y2="155.5" gradientUnits="userSpaceOnUse">
<stop stop-color="#716BB8"/>
<stop offset="1" stop-color="#413B89"/>
</linearGradient>
<linearGradient id="paint63_linear" x1="106.5" y1="50.5" x2="107" y2="155.5" gradientUnits="userSpaceOnUse">
<stop stop-color="#716BB8"/>
<stop offset="1" stop-color="#413B89"/>
</linearGradient>
<linearGradient id="paint64_linear" x1="106.5" y1="50.5" x2="107" y2="155.5" gradientUnits="userSpaceOnUse">
<stop stop-color="#716BB8"/>
<stop offset="1" stop-color="#413B89"/>
</linearGradient>
<linearGradient id="paint65_linear" x1="106.5" y1="50.5" x2="107" y2="155.5" gradientUnits="userSpaceOnUse">
<stop stop-color="#716BB8"/>
<stop offset="1" stop-color="#413B89"/>
</linearGradient>
<linearGradient id="paint66_linear" x1="106.5" y1="50.5" x2="107" y2="155.5" gradientUnits="userSpaceOnUse">
<stop stop-color="#716BB8"/>
<stop offset="1" stop-color="#413B89"/>
</linearGradient>
<linearGradient id="paint67_linear" x1="106.5" y1="50.5" x2="107" y2="155.5" gradientUnits="userSpaceOnUse">
<stop stop-color="#716BB8"/>
<stop offset="1" stop-color="#413B89"/>
</linearGradient>
<linearGradient id="paint68_linear" x1="106.5" y1="50.5" x2="107" y2="155.5" gradientUnits="userSpaceOnUse">
<stop stop-color="#716BB8"/>
<stop offset="1" stop-color="#413B89"/>
</linearGradient>
<linearGradient id="paint69_linear" x1="106.5" y1="50.5" x2="107" y2="155.5" gradientUnits="userSpaceOnUse">
<stop stop-color="#716BB8"/>
<stop offset="1" stop-color="#413B89"/>
</linearGradient>
<linearGradient id="paint70_linear" x1="106.5" y1="50.5" x2="107" y2="155.5" gradientUnits="userSpaceOnUse">
<stop stop-color="#716BB8"/>
<stop offset="1" stop-color="#413B89"/>
</linearGradient>
<linearGradient id="paint71_linear" x1="106.5" y1="50.5" x2="107" y2="155.5" gradientUnits="userSpaceOnUse">
<stop stop-color="#716BB8"/>
<stop offset="1" stop-color="#413B89"/>
</linearGradient>
<linearGradient id="paint72_linear" x1="106.5" y1="50.5" x2="107" y2="155.5" gradientUnits="userSpaceOnUse">
<stop stop-color="#716BB8"/>
<stop offset="1" stop-color="#413B89"/>
</linearGradient>
<linearGradient id="paint73_linear" x1="106.5" y1="50.5" x2="107" y2="155.5" gradientUnits="userSpaceOnUse">
<stop stop-color="#716BB8"/>
<stop offset="1" stop-color="#413B89"/>
</linearGradient>
<linearGradient id="paint74_linear" x1="106.5" y1="50.5" x2="107" y2="155.5" gradientUnits="userSpaceOnUse">
<stop stop-color="#716BB8"/>
<stop offset="1" stop-color="#413B89"/>
</linearGradient>
<linearGradient id="paint75_linear" x1="106.5" y1="50.5" x2="107" y2="155.5" gradientUnits="userSpaceOnUse">
<stop stop-color="#716BB8"/>
<stop offset="1" stop-color="#413B89"/>
</linearGradient>
<linearGradient id="paint76_linear" x1="106.5" y1="50.5" x2="107" y2="155.5" gradientUnits="userSpaceOnUse">
<stop stop-color="#716BB8"/>
<stop offset="1" stop-color="#413B89"/>
</linearGradient>
<linearGradient id="paint77_linear" x1="106.5" y1="50.5" x2="107" y2="155.5" gradientUnits="userSpaceOnUse">
<stop stop-color="#716BB8"/>
<stop offset="1" stop-color="#413B89"/>
</linearGradient>
<linearGradient id="paint78_linear" x1="106.5" y1="50.5" x2="107" y2="155.5" gradientUnits="userSpaceOnUse">
<stop stop-color="#716BB8"/>
<stop offset="1" stop-color="#413B89"/>
</linearGradient>
<linearGradient id="paint79_linear" x1="106.5" y1="50.5" x2="107" y2="155.5" gradientUnits="userSpaceOnUse">
<stop stop-color="#716BB8"/>
<stop offset="1" stop-color="#413B89"/>
</linearGradient>
<linearGradient id="paint80_linear" x1="106.5" y1="50.5" x2="107" y2="155.5" gradientUnits="userSpaceOnUse">
<stop stop-color="#716BB8"/>
<stop offset="1" stop-color="#413B89"/>
</linearGradient>
<linearGradient id="paint81_linear" x1="106.5" y1="50.5" x2="107" y2="155.5" gradientUnits="userSpaceOnUse">
<stop stop-color="#716BB8"/>
<stop offset="1" stop-color="#413B89"/>
</linearGradient>
<linearGradient id="paint82_linear" x1="106.5" y1="50.5" x2="107" y2="155.5" gradientUnits="userSpaceOnUse">
<stop stop-color="#716BB8"/>
<stop offset="1" stop-color="#413B89"/>
</linearGradient>
<linearGradient id="paint83_linear" x1="106.5" y1="50.5" x2="107" y2="155.5" gradientUnits="userSpaceOnUse">
<stop stop-color="#716BB8"/>
<stop offset="1" stop-color="#413B89"/>
</linearGradient>
<linearGradient id="paint84_linear" x1="106.5" y1="50.5" x2="107" y2="155.5" gradientUnits="userSpaceOnUse">
<stop stop-color="#716BB8"/>
<stop offset="1" stop-color="#413B89"/>
</linearGradient>
<linearGradient id="paint85_linear" x1="106.5" y1="50.5" x2="107" y2="155.5" gradientUnits="userSpaceOnUse">
<stop stop-color="#716BB8"/>
<stop offset="1" stop-color="#413B89"/>
</linearGradient>
<linearGradient id="paint86_linear" x1="106.5" y1="50.5" x2="107" y2="155.5" gradientUnits="userSpaceOnUse">
<stop stop-color="#716BB8"/>
<stop offset="1" stop-color="#413B89"/>
</linearGradient>
<linearGradient id="paint87_linear" x1="106.5" y1="50.5" x2="107" y2="155.5" gradientUnits="userSpaceOnUse">
<stop stop-color="#716BB8"/>
<stop offset="1" stop-color="#413B89"/>
</linearGradient>
<linearGradient id="paint88_linear" x1="106.5" y1="50.5" x2="107" y2="155.5" gradientUnits="userSpaceOnUse">
<stop stop-color="#716BB8"/>
<stop offset="1" stop-color="#413B89"/>
</linearGradient>
<linearGradient id="paint89_linear" x1="106.5" y1="50.5" x2="107" y2="155.5" gradientUnits="userSpaceOnUse">
<stop stop-color="#716BB8"/>
<stop offset="1" stop-color="#413B89"/>
</linearGradient>
<linearGradient id="paint90_linear" x1="106.5" y1="50.5" x2="107" y2="155.5" gradientUnits="userSpaceOnUse">
<stop stop-color="#716BB8"/>
<stop offset="1" stop-color="#413B89"/>
</linearGradient>
<linearGradient id="paint91_linear" x1="106.5" y1="50.5" x2="107" y2="155.5" gradientUnits="userSpaceOnUse">
<stop stop-color="#716BB8"/>
<stop offset="1" stop-color="#413B89"/>
</linearGradient>
<linearGradient id="paint92_linear" x1="106.5" y1="50.5" x2="107" y2="155.5" gradientUnits="userSpaceOnUse">
<stop stop-color="#716BB8"/>
<stop offset="1" stop-color="#413B89"/>
</linearGradient>
<linearGradient id="paint93_linear" x1="106.5" y1="50.5" x2="107" y2="155.5" gradientUnits="userSpaceOnUse">
<stop stop-color="#716BB8"/>
<stop offset="1" stop-color="#413B89"/>
</linearGradient>
<linearGradient id="paint94_linear" x1="106.5" y1="50.5" x2="107" y2="155.5" gradientUnits="userSpaceOnUse">
<stop stop-color="#716BB8"/>
<stop offset="1" stop-color="#413B89"/>
</linearGradient>
<linearGradient id="paint95_linear" x1="106.5" y1="50.5" x2="107" y2="155.5" gradientUnits="userSpaceOnUse">
<stop stop-color="#716BB8"/>
<stop offset="1" stop-color="#413B89"/>
</linearGradient>
<linearGradient id="paint96_linear" x1="106.5" y1="50.5" x2="107" y2="155.5" gradientUnits="userSpaceOnUse">
<stop stop-color="#716BB8"/>
<stop offset="1" stop-color="#413B89"/>
</linearGradient>
<linearGradient id="paint97_linear" x1="106.5" y1="50.5" x2="107" y2="155.5" gradientUnits="userSpaceOnUse">
<stop stop-color="#716BB8"/>
<stop offset="1" stop-color="#413B89"/>
</linearGradient>
<linearGradient id="paint98_linear" x1="106.5" y1="50.5" x2="107" y2="155.5" gradientUnits="userSpaceOnUse">
<stop stop-color="#716BB8"/>
<stop offset="1" stop-color="#413B89"/>
</linearGradient>
<linearGradient id="paint99_linear" x1="106.5" y1="50.5" x2="107" y2="155.5" gradientUnits="userSpaceOnUse">
<stop stop-color="#716BB8"/>
<stop offset="1" stop-color="#413B89"/>
</linearGradient>
<linearGradient id="paint100_linear" x1="106.5" y1="50.5" x2="107" y2="155.5" gradientUnits="userSpaceOnUse">
<stop stop-color="#716BB8"/>
<stop offset="1" stop-color="#413B89"/>
</linearGradient>
<linearGradient id="paint101_linear" x1="106.5" y1="50.5" x2="107" y2="155.5" gradientUnits="userSpaceOnUse">
<stop stop-color="#716BB8"/>
<stop offset="1" stop-color="#413B89"/>
</linearGradient>
<linearGradient id="paint102_linear" x1="106.5" y1="50.5" x2="107" y2="155.5" gradientUnits="userSpaceOnUse">
<stop stop-color="#716BB8"/>
<stop offset="1" stop-color="#413B89"/>
</linearGradient>
<linearGradient id="paint103_linear" x1="106.5" y1="50.5" x2="107" y2="155.5" gradientUnits="userSpaceOnUse">
<stop stop-color="#716BB8"/>
<stop offset="1" stop-color="#413B89"/>
</linearGradient>
<linearGradient id="paint104_linear" x1="106.5" y1="50.5" x2="107" y2="155.5" gradientUnits="userSpaceOnUse">
<stop stop-color="#716BB8"/>
<stop offset="1" stop-color="#413B89"/>
</linearGradient>
<linearGradient id="paint105_linear" x1="106.5" y1="50.5" x2="107" y2="155.5" gradientUnits="userSpaceOnUse">
<stop stop-color="#716BB8"/>
<stop offset="1" stop-color="#413B89"/>
</linearGradient>
<linearGradient id="paint106_linear" x1="106.5" y1="50.5" x2="107" y2="155.5" gradientUnits="userSpaceOnUse">
<stop stop-color="#716BB8"/>
<stop offset="1" stop-color="#413B89"/>
</linearGradient>
<linearGradient id="paint107_linear" x1="106.5" y1="50.5" x2="107" y2="155.5" gradientUnits="userSpaceOnUse">
<stop stop-color="#716BB8"/>
<stop offset="1" stop-color="#413B89"/>
</linearGradient>
<linearGradient id="paint108_linear" x1="106.5" y1="50.5" x2="107" y2="155.5" gradientUnits="userSpaceOnUse">
<stop stop-color="#716BB8"/>
<stop offset="1" stop-color="#413B89"/>
</linearGradient>
<linearGradient id="paint109_linear" x1="106.5" y1="50.5" x2="107" y2="155.5" gradientUnits="userSpaceOnUse">
<stop stop-color="#716BB8"/>
<stop offset="1" stop-color="#413B89"/>
</linearGradient>
<linearGradient id="paint110_linear" x1="106.5" y1="50.5" x2="107" y2="155.5" gradientUnits="userSpaceOnUse">
<stop stop-color="#716BB8"/>
<stop offset="1" stop-color="#413B89"/>
</linearGradient>
<linearGradient id="paint111_linear" x1="106.5" y1="50.5" x2="107" y2="155.5" gradientUnits="userSpaceOnUse">
<stop stop-color="#716BB8"/>
<stop offset="1" stop-color="#413B89"/>
</linearGradient>
<linearGradient id="paint112_linear" x1="106.5" y1="50.5" x2="107" y2="155.5" gradientUnits="userSpaceOnUse">
<stop stop-color="#716BB8"/>
<stop offset="1" stop-color="#413B89"/>
</linearGradient>
<linearGradient id="paint113_linear" x1="106.5" y1="50.5" x2="107" y2="155.5" gradientUnits="userSpaceOnUse">
<stop stop-color="#716BB8"/>
<stop offset="1" stop-color="#413B89"/>
</linearGradient>
<linearGradient id="paint114_linear" x1="106.5" y1="50.5" x2="107" y2="155.5" gradientUnits="userSpaceOnUse">
<stop stop-color="#716BB8"/>
<stop offset="1" stop-color="#413B89"/>
</linearGradient>
<linearGradient id="paint115_linear" x1="106.5" y1="50.5" x2="107" y2="155.5" gradientUnits="userSpaceOnUse">
<stop stop-color="#716BB8"/>
<stop offset="1" stop-color="#413B89"/>
</linearGradient>
<linearGradient id="paint116_linear" x1="106.5" y1="50.5" x2="107" y2="155.5" gradientUnits="userSpaceOnUse">
<stop stop-color="#716BB8"/>
<stop offset="1" stop-color="#413B89"/>
</linearGradient>
<linearGradient id="paint117_linear" x1="106.5" y1="50.5" x2="107" y2="155.5" gradientUnits="userSpaceOnUse">
<stop stop-color="#716BB8"/>
<stop offset="1" stop-color="#413B89"/>
</linearGradient>
<linearGradient id="paint118_linear" x1="106.5" y1="50.5" x2="107" y2="155.5" gradientUnits="userSpaceOnUse">
<stop stop-color="#716BB8"/>
<stop offset="1" stop-color="#413B89"/>
</linearGradient>
<linearGradient id="paint119_linear" x1="106.5" y1="50.5" x2="107" y2="155.5" gradientUnits="userSpaceOnUse">
<stop stop-color="#716BB8"/>
<stop offset="1" stop-color="#413B89"/>
</linearGradient>
<linearGradient id="paint120_linear" x1="106.5" y1="50.5" x2="107" y2="155.5" gradientUnits="userSpaceOnUse">
<stop stop-color="#716BB8"/>
<stop offset="1" stop-color="#413B89"/>
</linearGradient>
<linearGradient id="paint121_linear" x1="106.5" y1="50.5" x2="107" y2="155.5" gradientUnits="userSpaceOnUse">
<stop stop-color="#716BB8"/>
<stop offset="1" stop-color="#413B89"/>
</linearGradient>
<linearGradient id="paint122_linear" x1="106.5" y1="50.5" x2="107" y2="155.5" gradientUnits="userSpaceOnUse">
<stop stop-color="#716BB8"/>
<stop offset="1" stop-color="#413B89"/>
</linearGradient>
<linearGradient id="paint123_linear" x1="106.5" y1="50.5" x2="107" y2="155.5" gradientUnits="userSpaceOnUse">
<stop stop-color="#716BB8"/>
<stop offset="1" stop-color="#413B89"/>
</linearGradient>
<linearGradient id="paint124_linear" x1="106.5" y1="50.5" x2="107" y2="155.5" gradientUnits="userSpaceOnUse">
<stop stop-color="#716BB8"/>
<stop offset="1" stop-color="#413B89"/>
</linearGradient>
<linearGradient id="paint125_linear" x1="106.5" y1="50.5" x2="107" y2="155.5" gradientUnits="userSpaceOnUse">
<stop stop-color="#716BB8"/>
<stop offset="1" stop-color="#413B89"/>
</linearGradient>
<linearGradient id="paint126_linear" x1="106.5" y1="50.5" x2="107" y2="155.5" gradientUnits="userSpaceOnUse">
<stop stop-color="#716BB8"/>
<stop offset="1" stop-color="#413B89"/>
</linearGradient>
<linearGradient id="paint127_linear" x1="106.5" y1="50.5" x2="107" y2="155.5" gradientUnits="userSpaceOnUse">
<stop stop-color="#716BB8"/>
<stop offset="1" stop-color="#413B89"/>
</linearGradient>
<linearGradient id="paint128_linear" x1="106.5" y1="50.5" x2="107" y2="155.5" gradientUnits="userSpaceOnUse">
<stop stop-color="#716BB8"/>
<stop offset="1" stop-color="#413B89"/>
</linearGradient>
<linearGradient id="paint129_linear" x1="106.5" y1="50.5" x2="107" y2="155.5" gradientUnits="userSpaceOnUse">
<stop stop-color="#716BB8"/>
<stop offset="1" stop-color="#413B89"/>
</linearGradient>
<linearGradient id="paint130_linear" x1="106.5" y1="50.5" x2="107" y2="155.5" gradientUnits="userSpaceOnUse">
<stop stop-color="#716BB8"/>
<stop offset="1" stop-color="#413B89"/>
</linearGradient>
<linearGradient id="paint131_linear" x1="106.5" y1="50.5" x2="107" y2="155.5" gradientUnits="userSpaceOnUse">
<stop stop-color="#716BB8"/>
<stop offset="1" stop-color="#413B89"/>
</linearGradient>
<linearGradient id="paint132_linear" x1="106.5" y1="50.5" x2="107" y2="155.5" gradientUnits="userSpaceOnUse">
<stop stop-color="#716BB8"/>
<stop offset="1" stop-color="#413B89"/>
</linearGradient>
<linearGradient id="paint133_linear" x1="106.5" y1="50.5" x2="107" y2="155.5" gradientUnits="userSpaceOnUse">
<stop stop-color="#716BB8"/>
<stop offset="1" stop-color="#413B89"/>
</linearGradient>
<linearGradient id="paint134_linear" x1="106.5" y1="50.5" x2="107" y2="155.5" gradientUnits="userSpaceOnUse">
<stop stop-color="#716BB8"/>
<stop offset="1" stop-color="#413B89"/>
</linearGradient>
<linearGradient id="paint135_linear" x1="106.5" y1="50.5" x2="107" y2="155.5" gradientUnits="userSpaceOnUse">
<stop stop-color="#716BB8"/>
<stop offset="1" stop-color="#413B89"/>
</linearGradient>
<linearGradient id="paint136_linear" x1="106.5" y1="50.5" x2="107" y2="155.5" gradientUnits="userSpaceOnUse">
<stop stop-color="#716BB8"/>
<stop offset="1" stop-color="#413B89"/>
</linearGradient>
<linearGradient id="paint137_linear" x1="106.5" y1="50.5" x2="107" y2="155.5" gradientUnits="userSpaceOnUse">
<stop stop-color="#716BB8"/>
<stop offset="1" stop-color="#413B89"/>
</linearGradient>
<linearGradient id="paint138_linear" x1="106.5" y1="50.5" x2="107" y2="155.5" gradientUnits="userSpaceOnUse">
<stop stop-color="#716BB8"/>
<stop offset="1" stop-color="#413B89"/>
</linearGradient>
<linearGradient id="paint139_linear" x1="106.5" y1="50.5" x2="107" y2="155.5" gradientUnits="userSpaceOnUse">
<stop stop-color="#716BB8"/>
<stop offset="1" stop-color="#413B89"/>
</linearGradient>
<linearGradient id="paint140_linear" x1="106.5" y1="50.5" x2="107" y2="155.5" gradientUnits="userSpaceOnUse">
<stop stop-color="#716BB8"/>
<stop offset="1" stop-color="#413B89"/>
</linearGradient>
<linearGradient id="paint141_linear" x1="106.5" y1="50.5" x2="107" y2="155.5" gradientUnits="userSpaceOnUse">
<stop stop-color="#716BB8"/>
<stop offset="1" stop-color="#413B89"/>
</linearGradient>
<linearGradient id="paint142_linear" x1="106.5" y1="50.5" x2="107" y2="155.5" gradientUnits="userSpaceOnUse">
<stop stop-color="#716BB8"/>
<stop offset="1" stop-color="#413B89"/>
</linearGradient>
<linearGradient id="paint143_linear" x1="106.5" y1="50.5" x2="107" y2="155.5" gradientUnits="userSpaceOnUse">
<stop stop-color="#716BB8"/>
<stop offset="1" stop-color="#413B89"/>
</linearGradient>
<linearGradient id="paint144_linear" x1="106.5" y1="50.5" x2="107" y2="155.5" gradientUnits="userSpaceOnUse">
<stop stop-color="#716BB8"/>
<stop offset="1" stop-color="#413B89"/>
</linearGradient>
<linearGradient id="paint145_linear" x1="106.5" y1="50.5" x2="107" y2="155.5" gradientUnits="userSpaceOnUse">
<stop stop-color="#716BB8"/>
<stop offset="1" stop-color="#413B89"/>
</linearGradient>
<linearGradient id="paint146_linear" x1="106.5" y1="50.5" x2="107" y2="155.5" gradientUnits="userSpaceOnUse">
<stop stop-color="#716BB8"/>
<stop offset="1" stop-color="#413B89"/>
</linearGradient>
<linearGradient id="paint147_linear" x1="106.5" y1="50.5" x2="107" y2="155.5" gradientUnits="userSpaceOnUse">
<stop stop-color="#716BB8"/>
<stop offset="1" stop-color="#413B89"/>
</linearGradient>
<linearGradient id="paint148_linear" x1="106.5" y1="50.5" x2="107" y2="155.5" gradientUnits="userSpaceOnUse">
<stop stop-color="#716BB8"/>
<stop offset="1" stop-color="#413B89"/>
</linearGradient>
<linearGradient id="paint149_linear" x1="106.5" y1="50.5" x2="107" y2="155.5" gradientUnits="userSpaceOnUse">
<stop stop-color="#716BB8"/>
<stop offset="1" stop-color="#413B89"/>
</linearGradient>
<linearGradient id="paint150_linear" x1="106.5" y1="50.5" x2="107" y2="155.5" gradientUnits="userSpaceOnUse">
<stop stop-color="#716BB8"/>
<stop offset="1" stop-color="#413B89"/>
</linearGradient>
<linearGradient id="paint151_linear" x1="106.5" y1="50.5" x2="107" y2="155.5" gradientUnits="userSpaceOnUse">
<stop stop-color="#716BB8"/>
<stop offset="1" stop-color="#413B89"/>
</linearGradient>
<linearGradient id="paint152_linear" x1="106.5" y1="50.5" x2="107" y2="155.5" gradientUnits="userSpaceOnUse">
<stop stop-color="#716BB8"/>
<stop offset="1" stop-color="#413B89"/>
</linearGradient>
<linearGradient id="paint153_linear" x1="106.5" y1="50.5" x2="107" y2="155.5" gradientUnits="userSpaceOnUse">
<stop stop-color="#716BB8"/>
<stop offset="1" stop-color="#413B89"/>
</linearGradient>
<linearGradient id="paint154_linear" x1="106.5" y1="50.5" x2="107" y2="155.5" gradientUnits="userSpaceOnUse">
<stop stop-color="#716BB8"/>
<stop offset="1" stop-color="#413B89"/>
</linearGradient>
<linearGradient id="paint155_linear" x1="106.5" y1="50.5" x2="107" y2="155.5" gradientUnits="userSpaceOnUse">
<stop stop-color="#716BB8"/>
<stop offset="1" stop-color="#413B89"/>
</linearGradient>
<linearGradient id="paint156_linear" x1="106.5" y1="50.5" x2="107" y2="155.5" gradientUnits="userSpaceOnUse">
<stop stop-color="#716BB8"/>
<stop offset="1" stop-color="#413B89"/>
</linearGradient>
<linearGradient id="paint157_linear" x1="106.5" y1="50.5" x2="107" y2="155.5" gradientUnits="userSpaceOnUse">
<stop stop-color="#716BB8"/>
<stop offset="1" stop-color="#413B89"/>
</linearGradient>
<linearGradient id="paint158_linear" x1="106.5" y1="50.5" x2="107" y2="155.5" gradientUnits="userSpaceOnUse">
<stop stop-color="#716BB8"/>
<stop offset="1" stop-color="#413B89"/>
</linearGradient>
<linearGradient id="paint159_linear" x1="106.5" y1="50.5" x2="107" y2="155.5" gradientUnits="userSpaceOnUse">
<stop stop-color="#716BB8"/>
<stop offset="1" stop-color="#413B89"/>
</linearGradient>
<linearGradient id="paint160_linear" x1="106.5" y1="50.5" x2="107" y2="155.5" gradientUnits="userSpaceOnUse">
<stop stop-color="#716BB8"/>
<stop offset="1" stop-color="#413B89"/>
</linearGradient>
<linearGradient id="paint161_linear" x1="106.5" y1="50.5" x2="107" y2="155.5" gradientUnits="userSpaceOnUse">
<stop stop-color="#716BB8"/>
<stop offset="1" stop-color="#413B89"/>
</linearGradient>
<linearGradient id="paint162_linear" x1="106.5" y1="50.5" x2="107" y2="155.5" gradientUnits="userSpaceOnUse">
<stop stop-color="#716BB8"/>
<stop offset="1" stop-color="#413B89"/>
</linearGradient>
<linearGradient id="paint163_linear" x1="106.5" y1="50.5" x2="107" y2="155.5" gradientUnits="userSpaceOnUse">
<stop stop-color="#716BB8"/>
<stop offset="1" stop-color="#413B89"/>
</linearGradient>
<linearGradient id="paint164_linear" x1="106.5" y1="50.5" x2="107" y2="155.5" gradientUnits="userSpaceOnUse">
<stop stop-color="#716BB8"/>
<stop offset="1" stop-color="#413B89"/>
</linearGradient>
<linearGradient id="paint165_linear" x1="106.5" y1="50.5" x2="107" y2="155.5" gradientUnits="userSpaceOnUse">
<stop stop-color="#716BB8"/>
<stop offset="1" stop-color="#413B89"/>
</linearGradient>
<linearGradient id="paint166_linear" x1="106.5" y1="50.5" x2="107" y2="155.5" gradientUnits="userSpaceOnUse">
<stop stop-color="#716BB8"/>
<stop offset="1" stop-color="#413B89"/>
</linearGradient>
<linearGradient id="paint167_linear" x1="106.5" y1="50.5" x2="107" y2="155.5" gradientUnits="userSpaceOnUse">
<stop stop-color="#716BB8"/>
<stop offset="1" stop-color="#413B89"/>
</linearGradient>
<linearGradient id="paint168_linear" x1="106.5" y1="50.5" x2="107" y2="155.5" gradientUnits="userSpaceOnUse">
<stop stop-color="#716BB8"/>
<stop offset="1" stop-color="#413B89"/>
</linearGradient>
<linearGradient id="paint169_linear" x1="106.5" y1="50.5" x2="107" y2="155.5" gradientUnits="userSpaceOnUse">
<stop stop-color="#716BB8"/>
<stop offset="1" stop-color="#413B89"/>
</linearGradient>
<linearGradient id="paint170_linear" x1="106.5" y1="50.5" x2="107" y2="155.5" gradientUnits="userSpaceOnUse">
<stop stop-color="#716BB8"/>
<stop offset="1" stop-color="#413B89"/>
</linearGradient>
</defs>
</svg>
