<svg width="142" height="192" viewBox="0 0 142 192" fill="none" xmlns="http://www.w3.org/2000/svg">
<path d="M0 10C0 4.47715 4.47715 0 10 0H132C137.523 0 142 4.47715 142 10V182C142 187.523 137.523 192 132 192H10C4.47715 192 0 187.523 0 182V10Z" fill="#F9DFF3"/>
<mask id="mask0" mask-type="alpha" maskUnits="userSpaceOnUse" x="0" y="0" width="142" height="192">
<path d="M0 10C0 4.47715 4.47715 0 10 0H132C137.523 0 142 4.47715 142 10V182C142 187.523 137.523 192 132 192H10C4.47715 192 0 187.523 0 182V10Z" fill="#F9DFF3"/>
</mask>
<g mask="url(#mask0)">
<path d="M121.712 93.4158C139.072 93.4158 153.373 98.8718 164.616 109.784C175.859 120.53 181.48 134.501 181.48 151.696C181.48 168.89 175.859 182.944 164.616 193.856C153.373 204.768 139.072 210.224 121.712 210.224C104.021 210.224 89.6372 204.768 78.5599 193.856C67.4825 182.944 61.9438 168.89 61.9438 151.696C61.9438 138.304 65.4158 126.73 72.3598 116.976L128.16 33.3998H154.448L113.528 93.9118C115.347 93.7465 116.917 93.6638 118.24 93.6638C119.728 93.4985 120.885 93.4158 121.712 93.4158ZM121.712 115.488C110.635 115.488 101.707 118.794 94.9278 125.408C88.1492 132.021 84.7598 140.784 84.7598 151.696C84.7598 157.152 85.6692 162.112 87.4879 166.576C89.3065 171.04 91.7865 174.925 94.9278 178.232C98.2345 181.373 102.12 183.853 106.584 185.672C111.213 187.325 116.256 188.152 121.712 188.152C127.168 188.152 132.128 187.325 136.592 185.672C141.221 183.853 145.107 181.373 148.248 178.232C151.555 174.925 154.117 171.04 155.936 166.576C157.755 162.112 158.664 157.152 158.664 151.696C158.664 140.784 155.192 132.021 148.248 125.408C141.469 118.794 132.624 115.488 121.712 115.488Z" fill="#413B89"/>
<path d="M87.4799 24.4558C87.4799 38.0131 83.9252 49.6691 76.8158 59.4238H77.0639L21.0159 143H-5.02415L36.1438 82.2398C34.3252 82.4051 32.6719 82.5705 31.1839 82.7358C29.8612 82.7358 28.7038 82.7358 27.7119 82.7358C10.1865 82.7358 -4.19748 77.3625 -15.4402 66.6158C-26.5175 55.7038 -32.0562 41.6505 -32.0562 24.4558C-32.0562 7.09579 -26.5175 -6.87487 -15.4402 -17.4562C-4.36282 -28.3682 10.0212 -33.8242 27.7119 -33.8242C45.0719 -33.8242 59.3732 -28.3682 70.6159 -17.4562C81.8585 -6.70954 87.4799 7.26112 87.4799 24.4558ZM27.7119 -11.7522C16.7999 -11.7522 7.87185 -8.44554 0.927853 -1.83222C-5.85081 4.78112 -9.24015 13.5438 -9.24015 24.4558C-9.24015 29.9118 -8.33082 34.8718 -6.51215 39.3358C-4.69349 43.7998 -2.21348 47.6851 0.927853 50.9918C4.23452 54.1331 8.11985 56.6131 12.5838 58.4318C17.2132 60.0851 22.2559 60.9118 27.7119 60.9118C33.1679 60.9118 38.1278 60.0851 42.5919 58.4318C47.2212 56.6131 51.1065 54.1331 54.2478 50.9918C57.5545 47.6851 60.1172 43.7998 61.9359 39.3358C63.7545 34.8718 64.6638 29.9118 64.6638 24.4558C64.6638 13.5438 61.2745 4.78112 54.4958 -1.83222C47.7172 -8.44554 38.7892 -11.7522 27.7119 -11.7522Z" fill="#413B89"/>
</g>
</svg>
