<svg width="142" height="192" viewBox="0 0 142 192" fill="none" xmlns="http://www.w3.org/2000/svg">
<path d="M0 10C0 4.47716 4.47715 1.52588e-05 10 1.52588e-05H132C137.523 1.52588e-05 142 4.47717 142 10V182C142 187.523 137.523 192 132 192H10C4.47715 192 0 187.523 0 182V10Z" fill="#F3E7DD"/>
<path d="M55 1.52588e-05H132C137.523 1.52588e-05 142 4.47717 142 10V182C142 187.523 137.523 192 132 192H55V1.52588e-05Z" fill="#413B89"/>
<mask id="mask0" mask-type="alpha" maskUnits="userSpaceOnUse" x="0" y="0" width="142" height="192">
<path d="M142 182C142 187.523 137.523 192 132 192L10 192C4.47715 192 3.91405e-07 187.523 8.74228e-07 182L1.59109e-05 10C1.63938e-05 4.47716 4.47717 3.23616e-06 10 3.71898e-06L132 1.43846e-05C137.523 1.48674e-05 142 4.47717 142 10L142 182Z" fill="#EBC7E3"/>
</mask>
<g mask="url(#mask0)">
<path d="M29 78C29 63.6406 40.6406 52 55 52C69.3594 52 81 63.6406 81 78C81 92.3594 69.3594 104 55 104C40.6406 104 29 92.3594 29 78Z" fill="white"/>
<path d="M10 133C10 108.699 29.9233 89 54.5 89C79.0767 89 99 108.699 99 133C99 157.301 79.0767 177 54.5 177C29.9233 177 9.99999 157.301 10 133Z" fill="#EEAD76" fill-opacity="0.44"/>
</g>
<path d="M76.628 23.21C79.414 23.21 80.842 21.362 81.22 19.836L79.414 19.29C79.148 20.214 78.322 21.32 76.628 21.32C75.032 21.32 73.548 20.158 73.548 18.044C73.548 15.79 75.116 14.726 76.6 14.726C78.322 14.726 79.092 15.776 79.33 16.728L81.15 16.154C80.758 14.544 79.344 12.864 76.6 12.864C73.94 12.864 71.546 14.88 71.546 18.044C71.546 21.208 73.856 23.21 76.628 23.21Z" fill="#F3E7DD"/>
<path d="M86.2023 16.084C86.0623 16.07 85.9223 16.056 85.7683 16.056C85.1803 16.056 84.2283 16.224 83.8083 17.134V16.112H82.0023V23H83.8643V19.85C83.8643 18.366 84.6903 17.904 85.6423 17.904C85.8103 17.904 85.9923 17.918 86.2023 17.96V16.084Z" fill="#F3E7DD"/>
<path d="M88.2418 18.772C88.2838 18.142 88.8158 17.414 89.7818 17.414C90.8458 17.414 91.2938 18.086 91.3218 18.772H88.2418ZM91.5038 20.564C91.2798 21.18 90.8038 21.614 89.9358 21.614C89.0118 21.614 88.2418 20.956 88.1998 20.046H93.1278C93.1278 20.018 93.1558 19.738 93.1558 19.472C93.1558 17.26 91.8818 15.902 89.7538 15.902C87.9898 15.902 86.3658 17.33 86.3658 19.528C86.3658 21.852 88.0318 23.21 89.9218 23.21C91.6158 23.21 92.7078 22.216 93.0578 21.026L91.5038 20.564Z" fill="#F3E7DD"/>
<path d="M93.642 21.124C93.642 22.202 94.538 23.196 96.008 23.196C97.03 23.196 97.688 22.72 98.038 22.174C98.038 22.44 98.066 22.818 98.108 23H99.816C99.774 22.762 99.732 22.272 99.732 21.908V18.52C99.732 17.134 98.92 15.902 96.736 15.902C94.888 15.902 93.894 17.092 93.782 18.17L95.434 18.52C95.49 17.918 95.938 17.4 96.75 17.4C97.534 17.4 97.912 17.806 97.912 18.296C97.912 18.534 97.786 18.73 97.394 18.786L95.7 19.038C94.552 19.206 93.642 19.892 93.642 21.124ZM96.4 21.81C95.798 21.81 95.504 21.418 95.504 21.012C95.504 20.48 95.882 20.214 96.358 20.144L97.912 19.906V20.214C97.912 21.432 97.184 21.81 96.4 21.81Z" fill="#F3E7DD"/>
<path d="M103.304 14.054H101.624V15.02C101.624 15.636 101.288 16.112 100.56 16.112H100.21V17.764H101.456V20.97C101.456 22.3 102.296 23.098 103.64 23.098C104.186 23.098 104.522 23 104.69 22.93V21.39C104.592 21.418 104.34 21.446 104.116 21.446C103.584 21.446 103.304 21.25 103.304 20.648V17.764H104.69V16.112H103.304V14.054Z" fill="#F3E7DD"/>
<path d="M107.574 23V16.112H105.712V23H107.574ZM105.488 13.858C105.488 14.474 106.006 14.992 106.636 14.992C107.28 14.992 107.784 14.474 107.784 13.858C107.784 13.214 107.28 12.696 106.636 12.696C106.006 12.696 105.488 13.214 105.488 13.858Z" fill="#F3E7DD"/>
<path d="M115.503 16.112H113.543L111.905 20.732L110.197 16.112H108.153L110.967 23H112.829L115.503 16.112Z" fill="#F3E7DD"/>
<path d="M117.229 18.772C117.271 18.142 117.803 17.414 118.769 17.414C119.833 17.414 120.281 18.086 120.309 18.772H117.229ZM120.491 20.564C120.267 21.18 119.791 21.614 118.923 21.614C117.999 21.614 117.229 20.956 117.187 20.046H122.115C122.115 20.018 122.143 19.738 122.143 19.472C122.143 17.26 120.869 15.902 118.741 15.902C116.977 15.902 115.353 17.33 115.353 19.528C115.353 21.852 117.019 23.21 118.909 23.21C120.603 23.21 121.695 22.216 122.045 21.026L120.491 20.564Z" fill="#F3E7DD"/>
<path d="M80.338 37V27.074H78.392V31.064H74.066V27.074H72.134V37H74.066V32.884H78.392V37H80.338Z" fill="#F3E7DD"/>
<path d="M86.4146 37H88.1926C88.1646 36.762 88.1226 36.286 88.1226 35.754V30.112H86.2606V34.116C86.2606 34.914 85.7846 35.474 84.9586 35.474C84.0906 35.474 83.6986 34.858 83.6986 34.088V30.112H81.8366V34.466C81.8366 35.964 82.7886 37.182 84.4546 37.182C85.1826 37.182 85.9806 36.902 86.3586 36.258C86.3586 36.538 86.3866 36.86 86.4146 37Z" fill="#F3E7DD"/>
<path d="M88.9618 35.082C89.0458 35.866 89.7598 37.21 91.8318 37.21C93.6378 37.21 94.5058 36.062 94.5058 34.942C94.5058 33.934 93.8198 33.108 92.4618 32.828L91.4818 32.618C91.1038 32.548 90.8518 32.338 90.8518 32.002C90.8518 31.61 91.2438 31.316 91.7338 31.316C92.5178 31.316 92.8118 31.834 92.8678 32.24L94.4218 31.89C94.3378 31.148 93.6798 29.902 91.7198 29.902C90.2358 29.902 89.1438 30.924 89.1438 32.156C89.1438 33.122 89.7458 33.92 91.0758 34.214L91.9858 34.424C92.5178 34.536 92.7278 34.788 92.7278 35.096C92.7278 35.46 92.4338 35.782 91.8178 35.782C91.0058 35.782 90.5998 35.278 90.5578 34.732L88.9618 35.082Z" fill="#F3E7DD"/>
<path d="M97.7389 28.054H96.0589V29.02C96.0589 29.636 95.7229 30.112 94.9949 30.112H94.6449V31.764H95.8909V34.97C95.8909 36.3 96.7309 37.098 98.0749 37.098C98.6209 37.098 98.9569 37 99.1249 36.93V35.39C99.0269 35.418 98.7749 35.446 98.5509 35.446C98.0189 35.446 97.7389 35.25 97.7389 34.648V31.764H99.1249V30.112H97.7389V28.054Z" fill="#F3E7DD"/>
<path d="M101.667 37V26.864H99.8048V37H101.667Z" fill="#F3E7DD"/>
<path d="M104.458 32.772C104.5 32.142 105.032 31.414 105.998 31.414C107.062 31.414 107.51 32.086 107.538 32.772H104.458ZM107.72 34.564C107.496 35.18 107.02 35.614 106.152 35.614C105.228 35.614 104.458 34.956 104.416 34.046H109.344C109.344 34.018 109.372 33.738 109.372 33.472C109.372 31.26 108.098 29.902 105.97 29.902C104.206 29.902 102.582 31.33 102.582 33.528C102.582 35.852 104.248 37.21 106.138 37.21C107.832 37.21 108.924 36.216 109.274 35.026L107.72 34.564Z" fill="#F3E7DD"/>
<path d="M82.828 181L83.284 181L82.608 179.812C83.036 179.732 83.296 179.416 83.296 179.008C83.296 178.54 82.964 178.164 82.428 178.164L81.36 178.164L81.36 181L81.756 181L81.756 179.84L82.18 179.84L82.828 181ZM81.756 179.488L81.756 178.516L82.356 178.516C82.676 178.516 82.892 178.708 82.892 179.008C82.892 179.3 82.676 179.488 82.356 179.488L81.756 179.488Z" fill="#F3E7DD"/>
<path d="M86.201 181L86.625 181L85.497 178.164L85.045 178.164L83.917 181L84.337 181L84.637 180.208L85.893 180.208L86.201 181ZM85.261 178.572L85.753 179.844L84.777 179.844L85.261 178.572Z" fill="#F3E7DD"/>
<path d="M90.5101 181L90.5101 178.164L89.9861 178.164L88.9781 180.472L87.9781 178.164L87.4461 178.164L87.4461 181L87.8341 181L87.8341 178.792L88.7941 181L89.1541 181L90.1221 178.792L90.1221 181L90.5101 181Z" fill="#F3E7DD"/>
<path d="M93.3752 181L93.3752 180.636L92.0432 180.636L92.0432 179.768L93.2512 179.768L93.2512 179.4L92.0432 179.4L92.0432 178.528L93.3752 178.528L93.3752 178.164L91.6512 178.164L91.6512 181L93.3752 181Z" fill="#F3E7DD"/>
<path d="M96.7275 181L96.7275 178.164L96.3355 178.164L96.3355 180.34L94.9195 178.164L94.3955 178.164L94.3955 181L94.7875 181L94.7875 178.688L96.3195 181L96.7275 181Z" fill="#F3E7DD"/>
<path d="M101.25 181L101.674 181L100.546 178.164L100.094 178.164L98.9662 181L99.3862 181L99.6862 180.208L100.942 180.208L101.25 181ZM100.31 178.572L100.802 179.844L99.8262 179.844L100.31 178.572Z" fill="#F3E7DD"/>
<path d="M104.227 181L104.227 180.632L102.887 180.632L102.887 178.164L102.495 178.164L102.495 181L104.227 181Z" fill="#F3E7DD"/>
<path d="M105.107 178.164L105.107 181L106.099 181C106.619 181 106.975 180.676 106.975 180.228C106.975 179.912 106.787 179.624 106.463 179.544C106.711 179.452 106.887 179.236 106.887 178.932C106.887 178.484 106.571 178.164 106.031 178.164L105.107 178.164ZM105.499 179.404L105.499 178.508L105.971 178.508C106.295 178.508 106.491 178.684 106.491 178.952C106.491 179.216 106.303 179.404 105.987 179.404L105.499 179.404ZM105.499 180.656L105.499 179.74L106.059 179.74C106.403 179.74 106.575 179.932 106.575 180.204C106.575 180.48 106.359 180.656 106.043 180.656L105.499 180.656Z" fill="#F3E7DD"/>
<path d="M109.657 181L109.657 180.636L108.325 180.636L108.325 179.768L109.533 179.768L109.533 179.4L108.325 179.4L108.325 178.528L109.657 178.528L109.657 178.164L107.933 178.164L107.933 181L109.657 181Z" fill="#F3E7DD"/>
<path d="M112.145 181L112.601 181L111.925 179.812C112.353 179.732 112.613 179.416 112.613 179.008C112.613 178.54 112.281 178.164 111.745 178.164L110.677 178.164L110.677 181L111.073 181L111.073 179.84L111.497 179.84L112.145 181ZM111.073 179.488L111.073 178.516L111.673 178.516C111.993 178.516 112.209 178.708 112.209 179.008C112.209 179.3 111.993 179.488 111.673 179.488L111.073 179.488Z" fill="#F3E7DD"/>
<path d="M115.542 178.528L115.542 178.164L113.254 178.164L113.254 178.528L114.202 178.528L114.202 181L114.594 181L114.594 178.528L115.542 178.528Z" fill="#F3E7DD"/>
</svg>
