<svg width="142" height="192" viewBox="0 0 142 192" fill="none" xmlns="http://www.w3.org/2000/svg">
<path d="M0 10C0 4.47715 4.47715 0 10 0H132C137.523 0 142 4.47715 142 10V182C142 187.523 137.523 192 132 192H10C4.47715 192 0 187.523 0 182V10Z" fill="#F3E7DD"/>
<path d="M19.892 16.076H19.92L20.858 20.164H18.94L19.892 16.076ZM18.044 24L18.59 21.872H21.264L21.754 24H23.602L21.166 13.892H18.688L16.182 24H18.044Z" fill="#413B89"/>
<path d="M30.6953 24L28.7913 19.492C29.8693 19.086 30.3173 18.176 30.3173 16.916C30.3173 15.012 29.2113 13.892 26.8873 13.892H24.0873V24H26.0193V19.884H26.9433L28.6233 24H30.6953ZM26.0193 15.488H27.0133C27.8673 15.488 28.3853 15.908 28.3853 16.888C28.3853 17.868 27.8673 18.288 27.0133 18.288H26.0193V15.488Z" fill="#413B89"/>
<path d="M30.7186 13.892V15.6H32.9726V24H34.9046V15.6H37.1586V13.892H30.7186Z" fill="#413B89"/>
<path d="M41.1951 13.892V20.976C41.1951 23.202 42.4971 24.14 44.4851 24.14C46.4731 24.14 47.7891 23.202 47.7891 20.976V13.892H45.8571V20.962C45.8571 21.928 45.4231 22.432 44.4851 22.432C43.5471 22.432 43.1271 21.928 43.1271 20.962V13.892H41.1951Z" fill="#413B89"/>
<path d="M50.9577 24V17.476H50.9857L53.9397 24H55.7877V13.892H54.0237V19.884H53.9957L51.3077 13.892H49.1937V24H50.9577Z" fill="#413B89"/>
<path d="M62.1203 24V22.292H59.0123V13.892H57.0803V24H62.1203Z" fill="#413B89"/>
<path d="M68.173 24V22.292H64.673V19.632H67.235V17.924H64.673V15.6H68.033V13.892H62.741V24H68.173Z" fill="#413B89"/>
<path d="M72.205 16.076H72.233L73.171 20.164H71.253L72.205 16.076ZM70.357 24L70.903 21.872H73.577L74.067 24H75.915L73.479 13.892H71.001L68.495 24H70.357Z" fill="#413B89"/>
<path d="M82.4063 16.202C82.0703 14.774 81.0203 13.752 79.2983 13.752C77.2963 13.752 76.2603 14.844 76.2603 16.58C76.2603 19.408 80.5723 19.436 80.5723 21.34C80.5723 22.096 80.0543 22.544 79.3823 22.544C78.8083 22.544 78.1083 22.11 77.8843 20.892L75.9803 21.298C76.4983 23.286 77.7163 24.14 79.2843 24.14C81.3143 24.14 82.5043 22.992 82.5043 21.256C82.5043 18.092 78.1923 17.98 78.1923 16.454C78.1923 15.768 78.5703 15.348 79.2563 15.348C79.9283 15.348 80.3483 15.754 80.6703 16.706L82.4063 16.202Z" fill="#413B89"/>
<path d="M85.6636 24V19.632H88.3936V24H90.3256V13.892H88.3936V17.924H85.6636V13.892H83.7316V24H85.6636Z" fill="#413B89"/>
<path d="M97.0502 24V22.292H93.5502V19.632H96.1122V17.924H93.5502V15.6H96.9102V13.892H91.6182V24H97.0502Z" fill="#413B89"/>
<path d="M98.0582 24H100.746C102.958 24 104.19 23.048 104.274 20.5V17.392C104.19 14.844 102.958 13.892 100.746 13.892H98.0582V24ZM99.9902 15.6H100.662C101.866 15.6 102.342 16.188 102.342 17.616V20.276C102.342 21.788 101.726 22.292 100.662 22.292H99.9902V15.6Z" fill="#413B89"/>
<path d="M19.928 29.544C19.736 28.728 19.136 28.144 18.152 28.144C17.008 28.144 16.416 28.768 16.416 29.76C16.416 31.376 18.88 31.392 18.88 32.48C18.88 32.912 18.584 33.168 18.2 33.168C17.872 33.168 17.472 32.92 17.344 32.224L16.256 32.456C16.552 33.592 17.248 34.08 18.144 34.08C19.304 34.08 19.984 33.424 19.984 32.432C19.984 30.624 17.52 30.56 17.52 29.688C17.52 29.296 17.736 29.056 18.128 29.056C18.512 29.056 18.752 29.288 18.936 29.832L19.928 29.544Z" fill="#DA5E3A"/>
<path d="M20.2853 28.224V29.2H21.5733V34H22.6773V29.2H23.9653V28.224H20.2853Z" fill="#DA5E3A"/>
<path d="M27.4053 34V33.024H25.4053V31.504H26.8693V30.528H25.4053V29.2H27.3253V28.224H24.3013V34H27.4053Z" fill="#DA5E3A"/>
<path d="M29.0853 34V31.504H30.4773V30.528H29.0853V29.2H30.8613V28.224H27.9813V34H29.0853Z" fill="#DA5E3A"/>
<path d="M32.6471 29.472H32.6631L33.1991 31.808H32.1031L32.6471 29.472ZM31.5911 34L31.9031 32.784H33.4311L33.7111 34H34.7671L33.3751 28.224H31.9591L30.5271 34H31.5911Z" fill="#DA5E3A"/>
<path d="M36.1164 34V30.272H36.1324L37.8204 34H38.8764V28.224H37.8684V31.648H37.8524L36.3164 28.224H35.1084V34H36.1164Z" fill="#DA5E3A"/>
<path d="M39.5191 32.144C39.5191 33.568 40.2711 34.08 41.3431 34.08C42.4151 34.08 43.1671 33.568 43.1671 32.144V30.08C43.1671 28.656 42.4151 28.144 41.3431 28.144C40.2711 28.144 39.5191 28.656 39.5191 30.08V32.144ZM40.6231 29.936C40.6231 29.296 40.9031 29.12 41.3431 29.12C41.7831 29.12 42.0631 29.296 42.0631 29.936V32.288C42.0631 32.928 41.7831 33.104 41.3431 33.104C40.9031 33.104 40.6231 32.928 40.6231 32.288V29.936Z" fill="#DA5E3A"/>
<path d="M46.6549 34V29.456H46.6709L47.8469 34H48.6789L49.8549 29.456H49.8709V34H50.8149V28.224H49.2709L48.2709 32.016H48.2549L47.2549 28.224H45.7109V34H46.6549Z" fill="#DA5E3A"/>
<path d="M52.7215 34V28.224H51.6175V34H52.7215Z" fill="#DA5E3A"/>
<path d="M56.3401 34V33.024H54.5641V28.224H53.4601V34H56.3401Z" fill="#DA5E3A"/>
<path d="M57.8627 34V28.224H56.7587V34H57.8627Z" fill="#DA5E3A"/>
<path d="M59.7053 34V32.232L60.1373 31.576L61.2893 34H62.5293L60.8733 30.552L62.3613 28.224H61.1533L59.7213 30.608H59.7053V28.224H58.6013V34H59.7053Z" fill="#DA5E3A"/>
<path d="M33.7876 97H14V83.7171C14 76.642 15.5628 71.0961 18.6884 67.0793C21.8599 63.0625 26.7321 60.3694 33.305 59V66.0523C29.1222 67.3303 26.2954 69.2246 24.8246 71.7351C23.8593 73.4697 23.2158 75.9574 22.8941 79.1982H33.7876V97ZM60 97H40.2124V83.7171C40.2124 76.642 41.7752 71.0961 44.9007 67.0793C48.0723 63.0625 52.9445 60.3694 59.5174 59V66.0523C55.3346 67.3303 52.5078 69.2246 51.037 71.7351C50.0717 73.4697 49.4282 75.9574 49.1065 79.1982H60V97Z" fill="#413B89"/>
<path d="M111.212 143L131 143L131 156.283C131 163.358 129.437 168.904 126.312 172.921C123.14 176.938 118.268 179.631 111.695 181L111.695 173.948C115.878 172.67 118.705 170.775 120.175 168.265C121.141 166.53 121.784 164.043 122.106 160.802L111.212 160.802L111.212 143ZM85 143L104.788 143L104.788 156.283C104.788 163.358 103.225 168.904 100.099 172.921C96.9277 176.938 92.0555 179.631 85.4826 181L85.4826 173.948C89.6654 172.67 92.4922 170.775 93.963 168.265C94.9283 166.53 95.5718 164.043 95.8935 160.802L85 160.802L85 143Z" fill="#413B89"/>
</svg>
