<svg xmlns="http://www.w3.org/2000/svg" width="61.726" height="38.878" viewBox="0 0 61.726 38.878">
  <g id="LOGO" transform="translate(-1005 -1246)">
    <path id="Path_468" data-name="Path 468" d="M1011.658,1248.8l4.143,8.446-4.143,7.968H1047.2l5.259-9.4-6.693-7.968Z" transform="translate(1)" fill="#f7e094"/>
    <rect id="Rectangle_175" data-name="Rectangle 175" width="11.797" height="3.291" rx="1.646" transform="translate(1027 1255.61)" fill="#343f5c"/>
    <path id="Path_469" data-name="Path 469" d="M1011.658,1248.8l4.143,8.446-4.143,7.968,47.445,1.006,5.259-9.4-6.693-7.968Z" transform="translate(1 17)" fill="#dfb786"/>
    <rect id="Rectangle_176" data-name="Rectangle 176" width="19.797" height="3.291" rx="1.646" transform="translate(1027 1272.61)" fill="#343f5c"/>
    <path id="Path_467" data-name="Path 467" d="M222.857,457.306H218.22a10.609,10.609,0,0,0-7.971-17.627H173.856l-2.1.017v4.123l2.019.078a6.411,6.411,0,0,1,0,12.814l-2.019.1v4.638l2.019.078a6.411,6.411,0,0,1,0,12.814l-2.019.1v4.123h51.1a10.625,10.625,0,0,0,0-21.251Zm-40.864-13.424h28.257a6.423,6.423,0,0,1,0,12.846H181.992a10.662,10.662,0,0,0,0-12.846Zm40.864,30.473H181.992a10.662,10.662,0,0,0,0-12.846h40.864a6.423,6.423,0,0,1,0,12.846Z" transform="translate(833.245 806.321)" fill="#343f5c"/>
  </g>
</svg>
