<svg xmlns="http://www.w3.org/2000/svg" width="251.149" height="194.184" viewBox="0 0 251.149 194.184">
  <g id="Group_79" data-name="Group 79" transform="translate(-346.507 -759.401)">
    <path id="Path_435" data-name="Path 435" d="M557.438,522.391h0a8.318,8.318,0,0,1,9.588,6.953l3.253,21.35-11.069,2.936-8.11-19.892a8.318,8.318,0,0,1,6.338-11.346Z" transform="translate(-60.934 274.127)" fill="#a0616a"/>
    <path id="Path_436" data-name="Path 436" d="M457.283,561.348c-6.143,24.412-3.5,46.741,19.375,64.272,27.436-7.563,45.684-25.811,56.818-52.33a13.237,13.237,0,0,0-7.634-17.546h0a13.23,13.23,0,0,0-14.565,3.754l-26.92,31.07-12.629-31.33Z" transform="translate(39.43 263.432)" fill="#dcddfb"/>
    <path id="Path_437" data-name="Path 437" d="M721.942,737.9c25.052-1.331,40.614-9.933,44.383-27.571l-4.035-7.4-46.2,21.044a6.462,6.462,0,0,0,.454,11.947Z" transform="translate(-365.805 214.957)" fill="#b9ccd2"/>
    <path id="Path_438" data-name="Path 438" d="M668.863,735.458c13.016-.394,25.534-.272,37.4.531a7.922,7.922,0,0,0,8.438-7.273l.712-8.9,10.087-16.139-8.742-8.742c-14.691,14.632-30.8,26.923-49.94,34.228a3.451,3.451,0,0,0,2.05,6.3Z" transform="translate(-293.367 217.577)" fill="#798fa4"/>
    <path id="Path_439" data-name="Path 439" d="M525.264,644.056c16.621,29.741,32.968,49.79,54.47,60.522,26.454,8.731,45.789-2.837,60.858-26.563L596.882,649.1l-6.388,6.388-57.9-44.059a7.393,7.393,0,0,0-10.4.231L472.812,672.3l6.052,10.087Z" transform="translate(-79.016 245.59)" fill="#2f2e41"/>
    <path id="Path_440" data-name="Path 440" d="M486.565,547.062l22.864-34.968-5.38-10.087-30.261,31.606Z" transform="translate(-55.109 377.552)" fill="#2f2e41"/>
    <ellipse id="Ellipse_35" data-name="Ellipse 35" cx="22.864" cy="22.864" rx="22.864" ry="22.864" transform="translate(540.395 767.257)" fill="#a0616a"/>
    <path id="Path_441" data-name="Path 441" d="M441.312,561.849l25.554-8.742a31.737,31.737,0,0,1-4.707-20.174H441.312C442.5,543.193,442.675,552.925,441.312,561.849Z" transform="translate(115.895 270.637)" fill="#a0616a"/>
    <path id="Path_442" data-name="Path 442" d="M419.16,630.577c3.831,1.573,4.111,6.673,7.733,8.406,17.511,8.378,36.037,15.176,48.754,27.235,29.718-20.181,57.264-82.86,21.519-110.285-12.2,7.14-23.1,12.249-22.864,0Z" transform="translate(83.576 263.104)" fill="#dcddfb"/>
    <path id="Path_443" data-name="Path 443" d="M427.143,613.4l12.441-4.371L464.129,628.2l11-39.61c.763-2.747,2-1.355,3.775.554a13.224,13.224,0,0,1,22.193,9.116c1.309,28.732-7.356,53.04-28.9,71.633-28.181-6.034-40.141-25.074-45.055-49.763l1.332-.888Q427.739,616.376,427.143,613.4Z" transform="translate(91.061 253.381)" opacity="0.2"/>
    <path id="Path_444" data-name="Path 444" d="M454.7,467.894c-7.542,1.723-16.126,4.164-16.607,6.434-7.758,1.955-13.614,6.638-14.81,13.777a4.275,4.275,0,0,0,4.289,4.958c4.219-.054,10.553-.458,14.735-2.205,12.149,7.828,14.189,28.189,8.883,42.048l8.349-.765,8.638-25.286,2.206,24.292,19.053-2.519-2.454-30.977a46.152,46.152,0,0,0-7.248-20.465,17.427,17.427,0,0,0-1.364-1.767,24.216,24.216,0,0,0-23.671-7.524Z" transform="translate(105.48 292.149)" fill="#2f2e41"/>
    <path id="Path_445" data-name="Path 445" d="M432.6,419.834l-20.925,24.6-31.388-37.044,21.208-25.733Z" transform="translate(84.598 416.97)" fill="#dfb786"/>
    <path id="Path_446" data-name="Path 446" d="M576.132,554.006l24.885-20.36c-1.414-3.393-8.2-2.262-8.2-2.262l-19.479,19.748a10.653,10.653,0,0,0-1.729,2.309h0Z" transform="translate(-105.875 271.204)" fill="#f2f2f2"/>
    <path id="Path_447" data-name="Path 447" d="M525.951,552.267l28.278-22.056,31.388,47.506-29.55,19.936c-2.828,1.131-5.656-.848-5.656-.848l-28.843-44.113Z" transform="translate(-56.824 271.529)" fill="#dfb786"/>
    <rect id="Rectangle_163" data-name="Rectangle 163" width="0.458" height="22.287" transform="translate(476.043 822.004) rotate(-125.701)" fill="#dcddfb"/>
    <rect id="Rectangle_164" data-name="Rectangle 164" width="43.058" height="0.458" transform="matrix(-0.552, -0.834, 0.834, -0.552, 498.904, 862.664)" fill="#dcddfb"/>
    <rect id="Rectangle_165" data-name="Rectangle 165" width="0.458" height="23.867" transform="translate(502.068 863.855) rotate(-126.344)" fill="#dcddfb"/>
    <rect id="Rectangle_166" data-name="Rectangle 166" width="43.065" height="0.458" transform="matrix(-0.571, -0.821, 0.821, -0.571, 521.533, 844.854)" fill="#dcddfb"/>
    <rect id="Rectangle_167" data-name="Rectangle 167" width="0.283" height="30.371" transform="translate(467.523 823.053) rotate(-132.545)" fill="#b3b3b3"/>
    <rect id="Rectangle_168" data-name="Rectangle 168" width="0.283" height="31.195" transform="translate(468.371 823.341) rotate(-131.439)" fill="#b3b3b3"/>
    <rect id="Rectangle_169" data-name="Rectangle 169" width="0.283" height="31.604" transform="matrix(-0.64, -0.768, 0.768, -0.64, 468.941, 823.349)" fill="#b3b3b3"/>
    <path id="Path_448" data-name="Path 448" d="M523.88,592.368h0a8.318,8.318,0,0,1,11.643,2.171l12.091,17.895-8.742,7.4-15.854-14.5a8.318,8.318,0,0,1,.863-12.968Z" transform="translate(-17.979 251.658)" fill="#a0616a"/>
    <path id="Path_449" data-name="Path 449" d="M427.143,614.127c4.914,24.689,16.874,43.729,45.055,49.763,21.546-18.594,30.21-42.9,28.9-71.633a13.237,13.237,0,0,0-14.419-12.581h0a13.23,13.23,0,0,0-11.549,9.635l-11,39.61-24.839-22.892Z" transform="translate(91.061 255.345)" fill="#dcddfb"/>
  </g>
</svg>
