<svg xmlns="http://www.w3.org/2000/svg" width="382.622" height="360.781" viewBox="0 0 382.622 360.781">
  <g id="Group_78" data-name="Group 78" transform="translate(-1177.035 -178.804)">
    <path id="Path_462" data-name="Path 462" d="M914.3,285.687v70h-70v-70Z" transform="translate(554.695 -89.687)" fill="#fff"/>
    <text id="ebugging" transform="translate(1396 240)" fill="#3b3b3b" font-size="18" font-family="GDSage-Bold, GD Sage" font-weight="700"><tspan x="0" y="0">e</tspan><tspan y="0" fill="#dfb786">bug</tspan><tspan y="0">ging</tspan></text>
    <path id="Subtraction_1" data-name="Subtraction 1" d="M-12494-3057h-78a1.11,1.11,0,0,1-1-1.193v-77.614a1.11,1.11,0,0,1,1-1.193h78a1.111,1.111,0,0,1,1,1.193v77.614A1.111,1.111,0,0,1-12494-3057Zm-74-75v70h70v-70Z" transform="translate(13967 3328)" fill="#9d8277"/>
    <path id="Path_456" data-name="Path 456" d="M871.851,269.829h11.741a1.61,1.61,0,0,0,1.4-2.421l-5.87-10.168-.015-.025a1.6,1.6,0,0,0-1.222-.774h-.009c-.05,0-.1-.007-.152-.007a1.6,1.6,0,0,0-1.4.807l-5.87,10.168a1.614,1.614,0,0,0,1.4,2.421Zm12.065-1.616a.33.33,0,0,1-.044.163.317.317,0,0,1-.28.161H871.851a.317.317,0,0,1-.28-.161.333.333,0,0,1-.044-.163.319.319,0,0,1,.044-.16l5.87-10.168a.323.323,0,0,1,.559,0l5.87,10.168a.315.315,0,0,1,.045.16Z" transform="translate(556.521 -77.629)" fill="#c2b6b2"/>
    <path id="Path_460" data-name="Path 460" d="M870.353,283.993a38.432,38.432,0,0,0-10.084,18.8,37.961,37.961,0,0,0,8.207,32.233c.913,1.075-.639,2.642-1.559,1.559a40.725,40.725,0,0,1-9.332-21.072,40.193,40.193,0,0,1,11.209-33.083C869.789,281.419,871.348,282.978,870.353,283.993Z" transform="translate(575.016 -75.955)" fill="#dcddfb"/>
    <path id="Path_461" data-name="Path 461" d="M897.055,278.2c6.757,4.956,10.539,12.954,11.072,21.228.554,8.608-2.729,16.922-8.016,23.605a45.905,45.905,0,0,1-10.912,9.85c-1.191.779-2.3-1.129-1.113-1.9a40.659,40.659,0,0,0,15.593-18.219,29.48,29.48,0,0,0,.064-22.589,24.131,24.131,0,0,0-7.8-10.068c-1.132-.831-.034-2.745,1.113-1.9Z" transform="translate(511.235 -70.863)" fill="#dcddfb"/>
    <text id="JS" transform="translate(1455 262)" fill="#dedede" font-size="9" font-family="Inter-Black, Inter" font-weight="800"><tspan x="0" y="0">JS</tspan></text>
    <path id="Path_432" data-name="Path 432" d="M443.168,310.522v-22.6h3.514v22.6a4.685,4.685,0,1,1-3.514,0Z" transform="translate(763.731 -21.36)" fill="#fff" opacity="0.8"/>
    <path id="Path_433" data-name="Path 433" d="M351.907,509.549h24.009V217.926h9.369V509.549h24.009a21.667,21.667,0,0,1,21.667,21.667H330.24a21.667,21.667,0,0,1,21.667-21.667Z" transform="translate(846.795 7.649)" fill="#fff" opacity="0.8"/>
    <path id="Path_434" data-name="Path 434" d="M430.947,230.593H330.323l6.153-76.911a10.656,10.656,0,0,1,10.567-9.756h67.183a10.656,10.656,0,0,1,10.567,9.756Z" transform="translate(846.76 38.315)" fill="#535c73"/>
    <path id="Path_435" data-name="Path 435" d="M557.438,522.391h0a8.318,8.318,0,0,1,9.588,6.953l3.253,21.35-11.069,2.936-8.11-19.892a8.318,8.318,0,0,1,6.338-11.346Z" transform="translate(901.067 -139.873)" fill="#a0616a"/>
    <path id="Path_436" data-name="Path 436" d="M457.283,561.348c-6.143,24.412-3.5,46.741,19.375,64.272,27.436-7.563,45.684-25.811,56.818-52.33a13.237,13.237,0,0,0-7.634-17.546h0a13.23,13.23,0,0,0-14.565,3.754l-26.92,31.07-12.629-31.33Z" transform="translate(1001.43 -150.568)" fill="#dcddfb"/>
    <path id="Path_437" data-name="Path 437" d="M721.942,737.9c25.052-1.331,40.614-9.933,44.383-27.571l-4.035-7.4-46.2,21.044a6.462,6.462,0,0,0,.454,11.947Z" transform="translate(596.196 -199.043)" fill="#b9ccd2"/>
    <path id="Path_438" data-name="Path 438" d="M668.863,735.458c13.016-.394,25.534-.272,37.4.531a7.922,7.922,0,0,0,8.438-7.273l.712-8.9,10.087-16.139-8.742-8.742c-14.691,14.632-30.8,26.923-49.94,34.228a3.451,3.451,0,0,0,2.05,6.3Z" transform="translate(668.634 -196.423)" fill="#798fa4"/>
    <path id="Path_439" data-name="Path 439" d="M525.264,644.056c16.621,29.741,32.968,49.79,54.47,60.522,26.454,8.731,45.789-2.837,60.858-26.563L596.882,649.1l-6.388,6.388-57.9-44.059a7.393,7.393,0,0,0-10.4.231L472.812,672.3l6.052,10.087Z" transform="translate(882.985 -168.41)" fill="#2f2e41"/>
    <path id="Path_440" data-name="Path 440" d="M486.565,547.062l22.864-34.968-5.38-10.087-30.261,31.606Z" transform="translate(906.891 -36.448)" fill="#2f2e41"/>
    <ellipse id="Ellipse_35" data-name="Ellipse 35" cx="22.864" cy="22.864" rx="22.864" ry="22.864" transform="translate(1502.396 353.257)" fill="#a0616a"/>
    <path id="Path_441" data-name="Path 441" d="M441.312,561.849l25.554-8.742a31.737,31.737,0,0,1-4.707-20.174H441.312C442.5,543.193,442.675,552.925,441.312,561.849Z" transform="translate(1077.896 -143.363)" fill="#a0616a"/>
    <path id="Path_442" data-name="Path 442" d="M419.16,630.577c3.831,1.573,4.111,6.673,7.733,8.406,17.511,8.378,36.037,15.176,48.754,27.235,29.718-20.181,57.264-82.86,21.519-110.285-12.2,7.14-23.1,12.249-22.864,0Z" transform="translate(1045.576 -150.896)" fill="#dcddfb"/>
    <path id="Path_443" data-name="Path 443" d="M427.143,613.4l12.441-4.371L464.129,628.2l11-39.61c.763-2.747,2-1.355,3.775.554a13.224,13.224,0,0,1,22.193,9.116c1.309,28.732-7.356,53.04-28.9,71.633-28.181-6.034-40.141-25.074-45.055-49.763l1.332-.888Q427.739,616.376,427.143,613.4Z" transform="translate(1053.061 -160.619)" opacity="0.2"/>
    <path id="Path_444" data-name="Path 444" d="M454.7,467.894c-7.542,1.723-16.126,4.164-16.607,6.434-7.758,1.955-13.614,6.638-14.81,13.777a4.275,4.275,0,0,0,4.289,4.958c4.219-.054,10.553-.458,14.735-2.205,12.149,7.828,14.189,28.189,8.883,42.048l8.349-.765,8.638-25.286,2.206,24.292,19.053-2.519-2.454-30.977a46.152,46.152,0,0,0-7.248-20.465,17.427,17.427,0,0,0-1.364-1.767,24.216,24.216,0,0,0-23.671-7.524Z" transform="translate(1067.48 -121.851)" fill="#2f2e41"/>
    <path id="Path_445" data-name="Path 445" d="M432.6,419.834l-20.925,24.6-31.388-37.044,21.208-25.733Z" transform="translate(1046.598 2.97)" fill="#dfb786"/>
    <path id="Path_446" data-name="Path 446" d="M576.132,554.006l24.885-20.36c-1.414-3.393-8.2-2.262-8.2-2.262l-19.479,19.748a10.653,10.653,0,0,0-1.729,2.309h0Z" transform="translate(856.125 -142.796)" fill="#f2f2f2"/>
    <path id="Path_447" data-name="Path 447" d="M525.951,552.267l28.278-22.056,31.388,47.506-29.55,19.936c-2.828,1.131-5.656-.848-5.656-.848l-28.843-44.113Z" transform="translate(905.175 -142.471)" fill="#dfb786"/>
    <rect id="Rectangle_163" data-name="Rectangle 163" width="0.458" height="22.287" transform="translate(1438.044 408.004) rotate(-125.701)" fill="#dcddfb"/>
    <rect id="Rectangle_164" data-name="Rectangle 164" width="43.058" height="0.458" transform="matrix(-0.552, -0.834, 0.834, -0.552, 1460.904, 448.664)" fill="#dcddfb"/>
    <rect id="Rectangle_165" data-name="Rectangle 165" width="0.458" height="23.867" transform="translate(1464.068 449.855) rotate(-126.344)" fill="#dcddfb"/>
    <rect id="Rectangle_166" data-name="Rectangle 166" width="43.065" height="0.458" transform="matrix(-0.571, -0.821, 0.821, -0.571, 1483.533, 430.854)" fill="#dcddfb"/>
    <rect id="Rectangle_167" data-name="Rectangle 167" width="0.283" height="30.371" transform="translate(1429.522 409.053) rotate(-132.545)" fill="#b3b3b3"/>
    <rect id="Rectangle_168" data-name="Rectangle 168" width="0.283" height="31.195" transform="translate(1430.372 409.341) rotate(-131.439)" fill="#b3b3b3"/>
    <rect id="Rectangle_169" data-name="Rectangle 169" width="0.283" height="31.604" transform="matrix(-0.64, -0.768, 0.768, -0.64, 1430.941, 409.349)" fill="#b3b3b3"/>
    <path id="Path_448" data-name="Path 448" d="M523.88,592.368h0a8.318,8.318,0,0,1,11.643,2.171l12.091,17.895-8.742,7.4-15.854-14.5a8.318,8.318,0,0,1,.863-12.968Z" transform="translate(944.021 -162.342)" fill="#a0616a"/>
    <path id="Path_449" data-name="Path 449" d="M427.143,614.127c4.914,24.689,16.874,43.729,45.055,49.763,21.546-18.594,30.21-42.9,28.9-71.633a13.237,13.237,0,0,0-14.419-12.581h0a13.23,13.23,0,0,0-11.549,9.635l-11,39.61-24.839-22.892Z" transform="translate(1053.061 -158.655)" fill="#dcddfb"/>
  </g>
</svg>
