<svg xmlns="http://www.w3.org/2000/svg" width="61.726" height="50.513" viewBox="0 0 61.726 50.513">
  <g id="Group_24" data-name="Group 24" transform="translate(-761 -1149)">
    <path id="Path_62" data-name="Path 62" d="M240.6,447.487H218.737l21.46-50.513h21.864Z" transform="translate(547.939 752.025)" fill="#f0ac49"/>
    <rect id="Rectangle_26" data-name="Rectangle 26" width="7.797" height="3.291" rx="1.646" transform="translate(786 1164.61)" fill="#040505"/>
    <rect id="Rectangle_27" data-name="Rectangle 27" width="13.797" height="3.291" rx="1.646" transform="translate(786 1182.492)" fill="#040505"/>
    <path id="Path_64" data-name="Path 64" d="M222.857,457.306H218.22a10.609,10.609,0,0,0-7.971-17.627H173.856l-2.1.017v4.123l2.019.078a6.411,6.411,0,0,1,0,12.814l-2.019.1v4.638l2.019.078a6.411,6.411,0,0,1,0,12.814l-2.019.1v4.123h51.1a10.625,10.625,0,0,0,0-21.251Zm-40.864-13.424h28.257a6.423,6.423,0,0,1,0,12.846H181.992a10.662,10.662,0,0,0,0-12.846Zm40.864,30.473H181.992a10.662,10.662,0,0,0,0-12.846h40.864a6.423,6.423,0,0,1,0,12.846Z" transform="translate(589.245 715.321)" fill="#111"/>
  </g>
</svg>
