<svg xmlns="http://www.w3.org/2000/svg" width="80" height="80.157" viewBox="0 0 80 80.157">
  <g id="robot" transform="translate(-0.501)">
    <g id="Group_1" data-name="Group 1" transform="translate(46.499 62.477)">
      <path id="Path_1" data-name="Path 1" d="M297.951,406.75l2.99-2.114-.813-6.784-3.142-1.718-3.453,2.212.756,6.308C294.407,404.645,297.951,406.75,297.951,406.75Z" transform="translate(-293.533 -396.134)" fill="#9d9696" fill-rule="evenodd"/>
    </g>
    <g id="Group_2" data-name="Group 2" transform="translate(26.703 62.415)">
      <path id="Path_2" data-name="Path 2" d="M174.077,404.313l.734-6.115-3.169-2.465-3.374,1.534-.844,7.029,4.021,1.373Z" transform="translate(-167.425 -395.733)" fill="#9d9696" fill-rule="evenodd"/>
    </g>
    <g id="Group_3" data-name="Group 3" transform="translate(26.14 54.662)">
      <path id="Path_3" data-name="Path 3" d="M171.589,357.563a5.273,5.273,0,0,0,2.565-4.891,5.334,5.334,0,0,0-.468-1.853l-4.79-3.038-4.79,3.038a5.276,5.276,0,0,0,7.482,6.745Z" transform="translate(-163.622 -347.78)" fill="#fdb440" fill-rule="evenodd"/>
    </g>
    <g id="Group_4" data-name="Group 4" transform="translate(44.206 54.754)">
      <path id="Path_4" data-name="Path 4" d="M284.189,358.8a5.275,5.275,0,0,0,4.436-7.47l-4.807-2.946-4.772,2.946a5.274,5.274,0,0,0,1.8,6.552A5.2,5.2,0,0,0,284.189,358.8Z" transform="translate(-278.561 -348.381)" fill="#fdb440" fill-rule="evenodd"/>
    </g>
    <g id="Group_5" data-name="Group 5" transform="translate(26.157 57.716)">
      <path id="Path_5" data-name="Path 5" d="M171.68,374.434a5.273,5.273,0,0,0,2.565-4.891,5.334,5.334,0,0,0-.468-1.853H164.2a5.229,5.229,0,0,0-.468,1.766h5.419c1.39,0,2.028.214,2.141,1.853a5.305,5.305,0,0,1-.437,2.483,5.23,5.23,0,0,1-.8,1.272A5.224,5.224,0,0,0,171.68,374.434Z" transform="translate(-163.73 -367.689)" fill="#fe9737" fill-rule="evenodd"/>
    </g>
    <g id="Group_6" data-name="Group 6" transform="translate(44.227 57.716)">
      <path id="Path_6" data-name="Path 6" d="M286.642,374.434a5.277,5.277,0,0,0,2.1-6.745h-9.58a5.122,5.122,0,0,0-.463,1.766h5.415c1.394,0,2.032.214,2.141,1.853a5.3,5.3,0,0,1-1.228,3.755A5.16,5.16,0,0,0,286.642,374.434Z" transform="translate(-278.697 -367.689)" fill="#fe9737" fill-rule="evenodd"/>
    </g>
    <g id="Group_7" data-name="Group 7" transform="translate(24.665 13.338)">
      <path id="Path_7" data-name="Path 7" d="M152.217,100.921l15.9,3.9,15.777-3.9c0-10.989-7.919-16.479-15.838-16.479S152.217,89.932,152.217,100.921Z" transform="translate(-152.217 -84.442)" fill="#eee1dc" fill-rule="evenodd"/>
    </g>
    <g id="Group_8" data-name="Group 8" transform="translate(32.4 20.433)">
      <path id="Path_8" data-name="Path 8" d="M206.507,135.525a2.625,2.625,0,1,0-2.622-2.623A2.625,2.625,0,0,0,206.507,135.525Z" transform="translate(-203.885 -130.275)" fill="#60b7ff" fill-rule="evenodd"/>
    </g>
    <g id="Group_9" data-name="Group 9" transform="translate(43.366 20.433)">
      <path id="Path_9" data-name="Path 9" d="M276.426,135.525A2.625,2.625,0,1,0,273.8,132.9,2.625,2.625,0,0,0,276.426,135.525Z" transform="translate(-273.799 -130.275)" fill="#60b7ff" fill-rule="evenodd"/>
    </g>
    <g id="Group_10" data-name="Group 10" transform="translate(8.648 27.282)">
      <path id="Path_10" data-name="Path 10" d="M61.912,185.392l-8.02-8.021.328-3.545,3.571-.354,7.294,7.3-.865,3.082Z" transform="translate(-53.892 -173.472)" fill="#9d9696" fill-rule="evenodd"/>
    </g>
    <g id="Group_11" data-name="Group 11" transform="translate(16.641 33.435)">
      <path id="Path_11" data-name="Path 11" d="M108.091,223.261a5.277,5.277,0,0,1-4.917-5.1,5.061,5.061,0,0,1,.013-.516,5.274,5.274,0,0,1,7.469-4.437l3.308,4.952-3.308,4.629A5.27,5.27,0,0,1,108.091,223.261Z" transform="translate(-103.173 -212.723)" fill="#fdb440" fill-rule="evenodd"/>
    </g>
    <g id="Group_12" data-name="Group 12" transform="translate(3.233 21.676)">
      <path id="Path_12" data-name="Path 12" d="M23.091,147.352a4.686,4.686,0,1,1,4.685-4.686,4.462,4.462,0,0,1-.057.73,4.689,4.689,0,0,1-3.9,3.9A4.45,4.45,0,0,1,23.091,147.352Z" transform="translate(-18.406 -137.98)" fill="#fdb440" fill-rule="evenodd"/>
    </g>
    <g id="Group_13" data-name="Group 13" transform="translate(42.282 35.03)">
      <path id="Path_13" data-name="Path 13" d="M272.15,225.885H267.91a1.153,1.153,0,1,1,0-2.306h4.239a1.153,1.153,0,0,1,0,2.306Z" transform="translate(-266.757 -223.579)"/>
    </g>
    <g id="Group_14" data-name="Group 14" transform="translate(32.305 35.03)">
      <path id="Path_14" data-name="Path 14" d="M208.566,225.885h-4.239a1.153,1.153,0,0,1,0-2.306h4.239a1.153,1.153,0,0,1,0,2.306Z" transform="translate(-203.174 -223.579)"/>
    </g>
    <g id="Group_15" data-name="Group 15" transform="translate(21.208 70.978)">
      <path id="Path_15" data-name="Path 15" d="M145.885,459.875a1.529,1.529,0,0,0,1.521-1.526v-2.736a3.775,3.775,0,0,0-3.4-3.746c-.118-.009-.24-.018-.358-.018H135.7a3.774,3.774,0,0,0-3.759,3.764v2.736a1.529,1.529,0,0,0,1.521,1.526Z" transform="translate(-131.939 -451.85)" fill="#fdb440" fill-rule="evenodd"/>
    </g>
    <g id="Group_16" data-name="Group 16" transform="translate(43.935 70.978)">
      <path id="Path_16" data-name="Path 16" d="M277.726,459.875h12.425a1.529,1.529,0,0,0,1.521-1.526v-2.736a3.774,3.774,0,0,0-3.758-3.764h-7.95c-.122,0-.24.009-.358.018a3.775,3.775,0,0,0-3.4,3.746v2.736A1.526,1.526,0,0,0,277.726,459.875Z" transform="translate(-276.205 -451.85)" fill="#fdb440" fill-rule="evenodd"/>
    </g>
    <g id="Group_17" data-name="Group 17" transform="translate(61.165 27.282)">
      <path id="Path_17" data-name="Path 17" d="M387.956,185.392l8.02-8.021-.332-3.545-3.571-.354-7.29,7.3.861,3.082Z" transform="translate(-384.783 -173.472)" fill="#9d9696" fill-rule="evenodd"/>
    </g>
    <g id="Group_18" data-name="Group 18" transform="translate(53.569 33.435)">
      <path id="Path_18" data-name="Path 18" d="M343.973,223.261a5.273,5.273,0,0,0,4.917-5.1c0-.17,0-.345-.009-.516a5.276,5.276,0,0,0-5.62-4.909,5.216,5.216,0,0,0-1.849.472L338.1,218.16l3.313,4.629A5.242,5.242,0,0,0,343.973,223.261Z" transform="translate(-338.099 -212.723)" fill="#fdb440" fill-rule="evenodd"/>
    </g>
    <g id="Group_19" data-name="Group 19" transform="translate(68.403 21.676)">
      <path id="Path_19" data-name="Path 19" d="M436.9,147.352a4.686,4.686,0,1,0-4.685-4.686,5,5,0,0,0,.052.73,4.689,4.689,0,0,0,3.9,3.9A4.443,4.443,0,0,0,436.9,147.352Z" transform="translate(-432.212 -137.98)" fill="#fdb440" fill-rule="evenodd"/>
    </g>
    <g id="Group_20" data-name="Group 20" transform="translate(24.665 30.524)">
      <path id="Path_20" data-name="Path 20" d="M164.022,219.178H181.56a2.338,2.338,0,0,0,2.334-2.33V192.436H152.217v24.522a2.23,2.23,0,0,0,2.224,2.221Z" transform="translate(-152.217 -192.436)" fill="#cdbeb9" fill-rule="evenodd"/>
    </g>
    <g id="Group_21" data-name="Group 21" transform="translate(57.155 33.435)">
      <path id="Path_21" data-name="Path 21" d="M363.753,223.261a5.273,5.273,0,0,0,4.917-5.1c0-.17,0-.345-.009-.516a5.276,5.276,0,0,0-5.62-4.909,5.37,5.37,0,0,0-1.6.363,5.538,5.538,0,0,1,1.093.4,5.367,5.367,0,0,1,1.678,1.32,5.257,5.257,0,0,1,1.228,3.047,4.047,4.047,0,0,1,.009.516,1.289,1.289,0,0,1,0,.131,5.273,5.273,0,0,1-3.308,4.607A5.231,5.231,0,0,0,363.753,223.261Z" transform="translate(-361.441 -212.723)" fill="#fe9737" fill-rule="evenodd"/>
    </g>
    <g id="Group_22" data-name="Group 22" transform="translate(6.358 21.676)">
      <path id="Path_22" data-name="Path 22" d="M45.071,143.4a4.444,4.444,0,0,0,.057-.73,4.685,4.685,0,0,0-4.685-4.686,4.735,4.735,0,0,0-1.56.267,4.677,4.677,0,0,1,3.125,4.419,4.84,4.84,0,0,1-.114,1.045,4.671,4.671,0,0,1-1.67,2.636,4.612,4.612,0,0,1-1.342.739,4.623,4.623,0,0,0,1.56.267,4.458,4.458,0,0,0,.73-.057A4.689,4.689,0,0,0,45.071,143.4Z" transform="translate(-38.882 -137.98)" fill="#fe9737" fill-rule="evenodd"/>
    </g>
    <g id="Group_23" data-name="Group 23" transform="translate(71.527 21.699)">
      <path id="Path_23" data-name="Path 23" d="M458.88,143.539a5.038,5.038,0,0,0,.052-.73,4.676,4.676,0,0,0-4.685-4.686,4.583,4.583,0,0,0-1.556.267,4.677,4.677,0,0,1,3.125,4.419,4.69,4.69,0,0,1-.625,2.338,4.714,4.714,0,0,1-2.5,2.081,4.69,4.69,0,0,0,1.556.267,4.987,4.987,0,0,0,.73-.057A4.694,4.694,0,0,0,458.88,143.539Z" transform="translate(-452.691 -138.123)" fill="#fe9737" fill-rule="evenodd"/>
    </g>
    <g id="Group_24" data-name="Group 24" transform="translate(32.088 42.48)">
      <path id="Path_24" data-name="Path 24" d="M216.6,278.595a1.216,1.216,0,0,0,1.211-1.211v-5.621a1.216,1.216,0,0,0-1.211-1.211H202.061a1.216,1.216,0,0,0-1.211,1.211v5.621a1.216,1.216,0,0,0,1.211,1.211Z" transform="translate(-200.85 -270.552)" fill="#60b7ff" fill-rule="evenodd"/>
    </g>
    <g id="Group_25" data-name="Group 25" transform="translate(21.145 33.435)">
      <path id="Path_25" data-name="Path 25" d="M135.276,218.118v-4.909a5.263,5.263,0,0,0-3.051-.415v10.412c.157.026.323.044.485.057a5.268,5.268,0,0,0,2.565-.472v-4.673Z" transform="translate(-132.225 -212.725)" fill="#fe9737" fill-rule="evenodd"/>
    </g>
    <g id="Group_26" data-name="Group 26" transform="translate(51.739 70.978)">
      <path id="Path_26" data-name="Path 26" d="M334.607,458.349v-2.736a3.774,3.774,0,0,0-3.759-3.763h-3.977a3.774,3.774,0,0,1,3.763,3.763v2.736a1.53,1.53,0,0,1-1.525,1.526h3.977A1.529,1.529,0,0,0,334.607,458.349Z" transform="translate(-326.871 -451.849)" fill="#fe9737" fill-rule="evenodd"/>
    </g>
    <g id="Group_27" data-name="Group 27" transform="translate(29.09 70.978)">
      <path id="Path_27" data-name="Path 27" d="M190.342,458.349v-2.736a3.774,3.774,0,0,0-3.758-3.763h-3.977a3.774,3.774,0,0,1,3.763,3.763v2.736a1.53,1.53,0,0,1-1.525,1.526h3.977a1.529,1.529,0,0,0,1.521-1.526Z" transform="translate(-182.606 -451.849)" fill="#fe9737" fill-rule="evenodd"/>
    </g>
    <g id="Group_28" data-name="Group 28" transform="translate(38.385 13.309)">
      <path id="Path_28" data-name="Path 28" d="M258.818,100.921c0-10.989-7.919-16.479-15.838-16.479a16.851,16.851,0,0,0-2.347.162c7.067.979,13.5,6.417,13.5,16.317Z" transform="translate(-240.633 -84.442)" fill="#cdbeb9" fill-rule="evenodd"/>
    </g>
    <g id="Group_29" data-name="Group 29" transform="translate(52.025 30.524)">
      <path id="Path_29" data-name="Path 29" d="M333.766,216.849V192.436h-4.689v26.742h2.356A2.338,2.338,0,0,0,333.766,216.849Z" transform="translate(-329.076 -192.436)" fill="#9d9696" fill-rule="evenodd"/>
    </g>
    <g id="Group_30" data-name="Group 30" transform="translate(37.059 1.153)">
      <path id="Path_30" data-name="Path 30" d="M236.887,14.442A3.442,3.442,0,1,0,233.443,11,3.442,3.442,0,0,0,236.887,14.442Z" transform="translate(-233.443 -7.557)" fill="#fd8087" fill-rule="evenodd"/>
    </g>
    <g id="Group_31" data-name="Group 31" transform="translate(38.787 1.153)">
      <path id="Path_31" data-name="Path 31" d="M246.352,14.442a3.442,3.442,0,0,0,0-6.885,3.4,3.4,0,0,0-1.215.219,3.443,3.443,0,0,1-.524,6.194A3.441,3.441,0,0,0,246.352,14.442Z" transform="translate(-244.613 -7.557)" fill="#fd4755" fill-rule="evenodd"/>
    </g>
    <g id="Group_32" data-name="Group 32" transform="translate(29.905 64.881)">
      <path id="Path_32" data-name="Path 32" d="M191.552,418l.734-6.115a5.217,5.217,0,0,1-1.621.629,5.39,5.39,0,0,1-1.875.048l-.743,5.42h3.147C191.312,417.987,191.434,418,191.552,418Z" transform="translate(-188.047 -411.889)" fill="#746e6e" fill-rule="evenodd"/>
    </g>
    <g id="Group_33" data-name="Group 33" transform="translate(50.079 64.194)">
      <path id="Path_33" data-name="Path 33" d="M320.624,414.175l-.813-6.784a5.186,5.186,0,0,1-3.05,1.394l.743,5.39h3.12Z" transform="translate(-316.761 -407.391)" fill="#746e6e" fill-rule="evenodd"/>
    </g>
    <g id="Group_34" data-name="Group 34" transform="translate(32.088 42.415)">
      <path id="Path_34" data-name="Path 34" d="M216.6,270.552H202.061a1.216,1.216,0,0,0-1.211,1.211v2.811a1.213,1.213,0,0,1,1.211-1.211H216.6a1.214,1.214,0,0,1,1.211,1.211v-2.811A1.216,1.216,0,0,0,216.6,270.552Z" transform="translate(-200.85 -270.552)" fill="#22a6fe" fill-rule="evenodd"/>
    </g>
    <g id="Group_35" data-name="Group 35" transform="translate(0.501 0)">
      <path id="Path_35" data-name="Path 35" d="M203.883,126.5a3.778,3.778,0,1,0-3.78,3.776A3.784,3.784,0,0,0,203.883,126.5Zm-5.249,0a1.471,1.471,0,1,1,1.469,1.469A1.473,1.473,0,0,1,198.634,126.5Z" transform="translate(-165.587 -103.453)"/>
      <path id="Path_36" data-name="Path 36" d="M80.5,16.264c0-.1,0-.2,0-.3V13a2.152,2.152,0,0,0-.528-1.615,2.219,2.219,0,0,0-1.725-.5H77.177a1.183,1.183,0,1,0,0,2.366h.951V15.96c0,.121,0,.235,0,.344.01.567,0,.652-.155.88l-2.59,3.781a5.964,5.964,0,0,0-4.987,0l-2.592-3.783c-.156-.227-.164-.312-.154-.879,0-.108,0-.222,0-.343V13.246h.951a1.183,1.183,0,0,0,0-2.366H67.544a2.221,2.221,0,0,0-1.725.5A2.152,2.152,0,0,0,65.291,13V15.96c0,.107,0,.208,0,.3a3.441,3.441,0,0,0,.569,2.258l2.629,3.838a5.968,5.968,0,0,0-1.581,4.05q0,.155.008.309l-5.761,5.758a6.556,6.556,0,0,0-2.581-.341c-.214.014-.425.039-.635.074V30.127c0-7.306-3.367-13.2-9.237-16.169a18.012,18.012,0,0,0-7.013-1.875v-2.8a4.716,4.716,0,1,0-2.366,0v2.807a17.777,17.777,0,0,0-9.383,3.324,1.183,1.183,0,1,0,1.4,1.906A15.94,15.94,0,0,1,47.631,16.07c2.827,1.431,7.482,4.971,7.907,12.874H25.468a16.232,16.232,0,0,1,2.365-7.865,1.183,1.183,0,0,0-2-1.26,19.035,19.035,0,0,0-2.76,10.308V32.21c-.211-.035-.424-.06-.638-.075a6.556,6.556,0,0,0-2.582.342l-5.757-5.758q.008-.154.008-.309a5.967,5.967,0,0,0-1.581-4.05l2.631-3.841a3.441,3.441,0,0,0,.567-2.263c0-.093,0-.191,0-.3V13a2.152,2.152,0,0,0-.528-1.615,2.22,2.22,0,0,0-1.725-.5H12.393a1.183,1.183,0,1,0,0,2.366h.956V15.96c0,.117,0,.227,0,.332.009.568,0,.665-.155.892l-2.591,3.782a5.968,5.968,0,0,0-4.989,0L3.027,17.187c-.157-.23-.166-.327-.157-.9,0-.1,0-.215,0-.332V13.246h.956a1.183,1.183,0,1,0,0-2.366H2.76a2.22,2.22,0,0,0-1.725.5A2.152,2.152,0,0,0,.507,13V15.96c0,.1,0,.2,0,.3a3.444,3.444,0,0,0,.569,2.266L3.7,22.357A5.987,5.987,0,0,0,8.111,32.4q.155,0,.309-.008L15.431,39.4A6.593,6.593,0,0,0,21.542,45.3q.22.015.44.015a6.645,6.645,0,0,0,1.088-.09V55.286A3.465,3.465,0,0,0,25.017,58.4a6.634,6.634,0,0,0-.147,1.88A6.547,6.547,0,0,0,26.263,63.9l-.678,5.652h-.65A5.047,5.047,0,0,0,19.9,74.6v2.807a2.749,2.749,0,0,0,2.743,2.748H35.387a2.749,2.749,0,0,0,2.744-2.748V74.6a5.052,5.052,0,0,0-3.37-4.759l.562-4.682a6.591,6.591,0,0,0,2.7-5.773c-.014-.215-.04-.428-.075-.64h4.993a6.637,6.637,0,0,0-.078,1.529A6.549,6.549,0,0,0,45.108,64.8c.051.044.1.086.155.129l.589,4.915a5.052,5.052,0,0,0-3.37,4.759v2.807a2.749,2.749,0,0,0,2.744,2.748H57.973a2.749,2.749,0,0,0,2.743-2.748V74.6a5.048,5.048,0,0,0-5.039-5.044h-.65l-.643-5.365a6.577,6.577,0,0,0,1.5-5.785,3.577,3.577,0,0,0,2.054-3.232V45.221a6.627,6.627,0,0,0,1.083.09c.147,0,.294,0,.441-.015A6.6,6.6,0,0,0,65.575,39.4l7.011-7.012q.154.008.309.008A5.988,5.988,0,0,0,77.3,22.359l2.628-3.836a3.443,3.443,0,0,0,.57-2.259ZM38.153,4.713A2.348,2.348,0,1,1,40.5,7.063,2.351,2.351,0,0,1,38.153,4.713ZM55.57,31.31V55.174a1.225,1.225,0,0,1-1.211,1.207H26.536a1.1,1.1,0,0,1-1.1-1.1V31.31H55.57Zm-51.082-4.9a3.621,3.621,0,0,1,1.446-2.9l.016-.012a3.623,3.623,0,1,1-1.462,2.907Zm8.858,2.908,4.376,4.376A6.6,6.6,0,0,0,15.8,36.431l-4.786-4.787a6.033,6.033,0,0,0,2.327-2.327ZM21.7,42.934a4.227,4.227,0,0,1-3.937-4.052c0-.013,0-.026,0-.039q-.006-.2.008-.412a4.234,4.234,0,0,1,4.215-3.945c.1,0,.192,0,.288.01a4.185,4.185,0,0,1,.8.13V42.8A4.207,4.207,0,0,1,21.7,42.934ZM35.764,74.6v2.807a.385.385,0,0,1-.377.382H22.639a.385.385,0,0,1-.377-.382V74.6a2.679,2.679,0,0,1,2.673-2.678h8.156A2.679,2.679,0,0,1,35.764,74.6Zm-3.353-5.044H27.968l.463-3.862a6.534,6.534,0,0,0,3.007.729q.227,0,.455-.015a6.613,6.613,0,0,0,.911-.127Zm3.252-10.011a4.226,4.226,0,0,1-7,3.47q-.156-.137-.3-.286l-.022-.024a4.23,4.23,0,0,1-.985-3.958h8.169A4.232,4.232,0,0,1,35.664,59.545Zm17.867-.8a4.186,4.186,0,0,1,.132.8,4.228,4.228,0,0,1-6.625,3.76l-.028-.019a4.336,4.336,0,0,1-.346-.271,4.227,4.227,0,0,1-1.306-4.268H53.53ZM58.35,74.6v2.807a.385.385,0,0,1-.377.382H45.225a.385.385,0,0,1-.377-.382V74.6a2.679,2.679,0,0,1,2.673-2.678h8.156A2.679,2.679,0,0,1,58.35,74.6ZM48.2,69.557l-.4-3.339a6.572,6.572,0,0,0,1.632.206q.227,0,.455-.015A6.564,6.564,0,0,0,52.2,65.82l.448,3.737H48.2ZM59.3,42.934a4.238,4.238,0,0,1-1.365-.131V34.626a4.161,4.161,0,0,1,.793-.13,4.235,4.235,0,0,1,4.506,3.936q.014.207.008.412c0,.013,0,.025,0,.038a4.231,4.231,0,0,1-3.94,4.052Zm5.9-6.5a6.6,6.6,0,0,0-1.919-2.738l4.378-4.376a6.034,6.034,0,0,0,2.327,2.328Zm7.693-6.4a3.624,3.624,0,1,1,3.619-3.624A3.628,3.628,0,0,1,72.9,30.034Z" transform="translate(-0.501 0)"/>
      <path id="Path_37" data-name="Path 37" d="M273.8,126.5a3.78,3.78,0,1,0-3.78,3.776A3.784,3.784,0,0,0,273.8,126.5Zm-5.253,0a1.473,1.473,0,1,1,1.473,1.469A1.475,1.475,0,0,1,268.547,126.5Z" transform="translate(-224.525 -103.453)"/>
      <path id="Path_38" data-name="Path 38" d="M195.657,273.343h4.584a1.153,1.153,0,0,0,0-2.306h-4.584a.064.064,0,0,1-.057-.058v-5.621a.064.064,0,0,1,.057-.057h14.536a.064.064,0,0,1,.057.057v5.621a.064.064,0,0,1-.057.058h-4.458a1.153,1.153,0,1,0,0,2.306h4.458a2.367,2.367,0,0,0,2.364-2.364v-5.621a2.367,2.367,0,0,0-2.364-2.364H195.657a2.367,2.367,0,0,0-2.364,2.364v5.621a2.366,2.366,0,0,0,2.364,2.364Z" transform="translate(-162.859 -221.661)"/>
      <path id="Path_39" data-name="Path 39" d="M194.446,224.4h3.042a1.153,1.153,0,0,0,0-2.306h-3.042a1.153,1.153,0,1,0,0,2.306Z" transform="translate(-163.054 -187.294)"/>
      <path id="Path_40" data-name="Path 40" d="M285.639,224.4h3.042a1.153,1.153,0,0,0,0-2.306h-3.042a1.153,1.153,0,1,0,0,2.306Z" transform="translate(-239.943 -187.294)"/>
    </g>
  </g>
</svg>
