<svg xmlns="http://www.w3.org/2000/svg" width="166" height="50.513" viewBox="0 0 166 50.513">
  <g id="Group_31" data-name="Group 31" transform="translate(-1282 -1369)">
    <text id="store" transform="translate(1395 1400)" fill="#1a202c" stroke="#1a202c" stroke-width="1" font-size="30" font-family="LexendGiga-Regular, Lexend Giga"><tspan x="-51.255" y="0">store</tspan></text>
    <path id="Path_214" data-name="Path 214" d="M240.6,447.487H218.737l21.46-50.513h21.864Z" transform="translate(1065.939 972.025)" fill="#00bfa6"/>
    <rect id="Rectangle_68" data-name="Rectangle 68" width="6.797" height="3.291" rx="1.646" transform="translate(1302.732 1383.61)" fill="#1a202c"/>
    <rect id="Rectangle_69" data-name="Rectangle 69" width="6.797" height="3.291" rx="1.646" transform="translate(1302.732 1401.492)" fill="#1a202c"/>
    <path id="Path_64" data-name="Path 64" d="M215.857,457.306H211.22a10.609,10.609,0,0,0-7.971-17.627H173.856l-2.1.017v4.123l2.019.078a6.411,6.411,0,0,1,0,12.814l-2.019.1v4.638l2.019.078a6.411,6.411,0,0,1,0,12.814l-2.019.1v4.123h44.1a10.625,10.625,0,0,0,0-21.251Zm-33.864-13.424h21.257a6.423,6.423,0,0,1,0,12.846H181.992a10.662,10.662,0,0,0,0-12.846Zm33.864,30.473H181.992a10.662,10.662,0,0,0,0-12.846h33.864a6.423,6.423,0,0,1,0,12.846Z" transform="translate(1110.245 935.321)" fill="#1a202c"/>
  </g>
</svg>
