<svg xmlns="http://www.w3.org/2000/svg" width="166.5" height="68.225" viewBox="0 0 166.5 68.225">
  <g id="Group_69" data-name="Group 69" transform="translate(-127.268 -323.16)">
    <g id="Group_36" data-name="Group 36" transform="translate(127.268 323.16)">
      <g id="robot">
        <g id="Group_1" data-name="Group 1" transform="translate(37.344 50.712)">
          <path id="Path_1" data-name="Path 1" d="M159.854,371.156l2.427-1.717-.661-5.505-2.55-1.395-2.8,1.8.614,5.12C156.977,369.447,159.854,371.156,159.854,371.156Z" transform="translate(-156.267 -362.539)" fill="#8b8484" fill-rule="evenodd"/>
        </g>
        <g id="Group_2" data-name="Group 2" transform="translate(21.277 50.662)">
          <path id="Path_2" data-name="Path 2" d="M149.19,369.464l.6-4.964-2.573-2-2.738,1.245-.685,5.7,3.263,1.114Z" transform="translate(-143.79 -362.5)" fill="#8b8484" fill-rule="evenodd"/>
        </g>
        <g id="Group_3" data-name="Group 3" transform="translate(20.82 44.369)">
          <g id="Group_52" data-name="Group 52">
            <path id="Path_3" data-name="Path 3" d="M149.9,365.553a4.281,4.281,0,0,0,2.082-3.97,4.38,4.38,0,0,0-.38-1.5l-3.888-2.465-3.889,2.465a4.283,4.283,0,0,0,6.073,5.476Z" transform="translate(-143.435 -357.614)" fill="#29a873" fill-rule="evenodd"/>
          </g>
        </g>
        <g id="Group_4" data-name="Group 4" transform="translate(35.484 44.445)">
          <g id="Group_53" data-name="Group 53">
            <path id="Path_4" data-name="Path 4" d="M159.39,366.127a4.28,4.28,0,0,0,3.6-6.063l-3.9-2.391-3.874,2.391a4.281,4.281,0,0,0,1.46,5.317A4.216,4.216,0,0,0,159.39,366.127Z" transform="translate(-154.823 -357.673)" fill="#29a873" fill-rule="evenodd"/>
          </g>
        </g>
        <g id="Group_5" data-name="Group 5" transform="translate(20.835 46.848)">
          <g id="Group_54" data-name="Group 54">
            <path id="Path_5" data-name="Path 5" d="M149.9,365.012a4.28,4.28,0,0,0,2.082-3.97,4.374,4.374,0,0,0-.38-1.5h-7.774a4.251,4.251,0,0,0-.38,1.433h4.4c1.128,0,1.646.174,1.737,1.5a4.243,4.243,0,0,1-1,3.047A4.235,4.235,0,0,0,149.9,365.012Z" transform="translate(-143.447 -359.539)" fill="#1d7651" fill-rule="evenodd"/>
          </g>
        </g>
        <g id="Group_6" data-name="Group 6" transform="translate(35.503 46.847)">
          <g id="Group_55" data-name="Group 55">
            <path id="Path_6" data-name="Path 6" d="M161.284,365.012a4.283,4.283,0,0,0,1.705-5.474h-7.776a4.13,4.13,0,0,0-.376,1.433h4.4c1.131,0,1.648.174,1.737,1.5a4.3,4.3,0,0,1-1,3.048A4.181,4.181,0,0,0,161.284,365.012Z" transform="translate(-154.837 -359.538)" fill="#1d7651" fill-rule="evenodd"/>
          </g>
        </g>
        <g id="Group_7" data-name="Group 7" transform="translate(19.623 10.826)">
          <path id="Path_7" data-name="Path 7" d="M142.506,344.942l12.9,3.167,12.806-3.167c0-8.919-6.427-13.375-12.855-13.375S142.506,336.023,142.506,344.942Z" transform="translate(-142.506 -331.567)" fill="#e9d8d2" fill-rule="evenodd"/>
        </g>
        <g id="Group_8" data-name="Group 8" transform="translate(25.901 16.585)">
          <path id="Path_8" data-name="Path 8" d="M149.51,340.3a2.131,2.131,0,1,0-2.129-2.134v.005A2.131,2.131,0,0,0,149.51,340.3Z" transform="translate(-147.381 -336.039)" fill="#56a5dc" fill-rule="evenodd"/>
        </g>
        <g id="Group_9" data-name="Group 9" transform="translate(34.802 16.585)">
          <path id="Path_9" data-name="Path 9" d="M156.424,340.3a2.131,2.131,0,1,0-2.131-2.131,2.131,2.131,0,0,0,2.131,2.131Z" transform="translate(-154.293 -336.039)" fill="#56a5dc" fill-rule="evenodd"/>
        </g>
        <g id="Group_10" data-name="Group 10" transform="translate(6.621 22.145)">
          <path id="Path_10" data-name="Path 10" d="M138.92,350.031l-6.51-6.511.267-2.877,2.9-.287,5.92,5.925-.7,2.5Z" transform="translate(-132.41 -340.356)" fill="#8b8484" fill-rule="evenodd"/>
        </g>
        <g id="Group_11" data-name="Group 11" transform="translate(13.109 27.139)">
          <g id="Group_56" data-name="Group 56">
            <path id="Path_11" data-name="Path 11" d="M141.44,352.787a4.283,4.283,0,0,1-3.991-4.14,4.13,4.13,0,0,1,.01-.419,4.28,4.28,0,0,1,6.063-3.6l2.685,4.019-2.685,3.757A4.281,4.281,0,0,1,141.44,352.787Z" transform="translate(-137.448 -344.234)" fill="#29a873" fill-rule="evenodd"/>
          </g>
        </g>
        <g id="Group_12" data-name="Group 12" transform="translate(2.225 17.594)">
          <g id="Group_57" data-name="Group 57">
            <path id="Path_12" data-name="Path 12" d="M132.8,344.429a3.8,3.8,0,1,1,3.8-3.8h0a3.509,3.509,0,0,1-.046.592,3.8,3.8,0,0,1-3.165,3.165A3.636,3.636,0,0,1,132.8,344.429Z" transform="translate(-128.996 -336.822)" fill="#29a873" fill-rule="evenodd"/>
          </g>
        </g>
        <g id="Group_13" data-name="Group 13" transform="translate(33.921 28.433)">
          <path id="Path_13" data-name="Path 13" d="M157.988,347.111h-3.442a.936.936,0,1,1,0-1.872h3.441a.936.936,0,0,1,0,1.872Z" transform="translate(-153.609 -345.239)" fill="#040505"/>
        </g>
        <g id="Group_14" data-name="Group 14" transform="translate(25.824 28.433)">
          <path id="Path_14" data-name="Path 14" d="M151.7,347.111h-3.441a.936.936,0,1,1,0-1.872H151.7a.936.936,0,0,1,0,1.872Z" transform="translate(-147.321 -345.239)" fill="#040505"/>
        </g>
        <g id="Group_15" data-name="Group 15" transform="translate(16.818 57.611)">
          <g id="Group_58" data-name="Group 58">
            <path id="Path_15" data-name="Path 15" d="M151.646,374.411a1.241,1.241,0,0,0,1.234-1.239v-2.22a3.063,3.063,0,0,0-2.76-3.041c-.1-.008-.194-.015-.29-.015h-6.452a3.063,3.063,0,0,0-3.051,3.056v2.22a1.241,1.241,0,0,0,1.235,1.239Z" transform="translate(-140.328 -367.896)" fill="#29a873" fill-rule="evenodd"/>
          </g>
        </g>
        <g id="Group_16" data-name="Group 16" transform="translate(35.265 57.611)">
          <g id="Group_59" data-name="Group 59">
            <path id="Path_16" data-name="Path 16" d="M155.886,374.411H165.97a1.241,1.241,0,0,0,1.235-1.239v-2.22a3.063,3.063,0,0,0-3.051-3.056H157.7c-.1,0-.2.008-.291.015a3.064,3.064,0,0,0-2.76,3.041v2.22A1.238,1.238,0,0,0,155.886,374.411Z" transform="translate(-154.652 -367.896)" fill="#29a873" fill-rule="evenodd"/>
          </g>
        </g>
        <g id="Group_17" data-name="Group 17" transform="translate(49.249 22.145)">
          <path id="Path_17" data-name="Path 17" d="M168.087,350.031l6.51-6.511-.269-2.877-2.9-.287-5.917,5.925.7,2.5Z" transform="translate(-165.511 -340.356)" fill="#8b8484" fill-rule="evenodd"/>
        </g>
        <g id="Group_18" data-name="Group 18" transform="translate(43.084 27.139)">
          <g id="Group_60" data-name="Group 60">
            <path id="Path_18" data-name="Path 18" d="M165.491,352.787a4.28,4.28,0,0,0,3.991-4.14c0-.138,0-.279-.008-.419a4.281,4.281,0,0,0-4.56-3.984h0a4.245,4.245,0,0,0-1.5.384l-2.689,4.019,2.689,3.757A4.251,4.251,0,0,0,165.491,352.787Z" transform="translate(-160.724 -344.234)" fill="#29a873" fill-rule="evenodd"/>
          </g>
        </g>
        <g id="Group_19" data-name="Group 19" transform="translate(55.126 17.594)">
          <g id="Group_61" data-name="Group 61">
            <path id="Path_19" data-name="Path 19" d="M173.878,344.429a3.8,3.8,0,1,0-3.8-3.8h0a4.138,4.138,0,0,0,.042.592,3.806,3.806,0,0,0,3.165,3.165A3.544,3.544,0,0,0,173.878,344.429Z" transform="translate(-170.075 -336.822)" fill="#29a873" fill-rule="evenodd"/>
          </g>
        </g>
        <g id="Group_20" data-name="Group 20" transform="translate(19.623 24.776)">
          <path id="Path_20" data-name="Path 20" d="M152.087,364.1h14.235a1.9,1.9,0,0,0,1.894-1.89V342.4H142.506v19.9a1.809,1.809,0,0,0,1.8,1.8Z" transform="translate(-142.506 -342.399)" fill="#c2b0aa" fill-rule="evenodd"/>
        </g>
        <g id="Group_21" data-name="Group 21" transform="translate(45.995 27.139)">
          <g id="Group_62" data-name="Group 62">
            <path id="Path_21" data-name="Path 21" d="M164.86,352.787a4.28,4.28,0,0,0,3.991-4.14c0-.138,0-.279-.008-.419a4.281,4.281,0,0,0-4.56-3.984h0a4.322,4.322,0,0,0-1.3.295,4.438,4.438,0,0,1,.887.324,4.373,4.373,0,0,1,1.361,1.071,4.261,4.261,0,0,1,1,2.473,3.259,3.259,0,0,1,.008.42c0,.035,0,.071,0,.106a4.28,4.28,0,0,1-2.685,3.74A4.263,4.263,0,0,0,164.86,352.787Z" transform="translate(-162.984 -344.234)" fill="#1d7651" fill-rule="evenodd"/>
          </g>
        </g>
        <g id="Group_22" data-name="Group 22" transform="translate(4.763 17.597)">
          <g id="Group_63" data-name="Group 63">
            <path id="Path_22" data-name="Path 22" d="M135.991,341.22a3.8,3.8,0,0,0-3.756-4.4h0a3.817,3.817,0,0,0-1.266.216,3.8,3.8,0,0,1,2.536,3.587,3.913,3.913,0,0,1-.093.849,3.786,3.786,0,0,1-1.355,2.139,3.724,3.724,0,0,1-1.089.6,3.753,3.753,0,0,0,1.266.216,3.645,3.645,0,0,0,.592-.045A3.808,3.808,0,0,0,135.991,341.22Z" transform="translate(-130.967 -336.825)" fill="#1d7651" fill-rule="evenodd"/>
          </g>
        </g>
        <g id="Group_23" data-name="Group 23" transform="translate(57.659 17.613)">
          <path id="Path_23" data-name="Path 23" d="M177.066,341.232a4.139,4.139,0,0,0,.042-.592,3.8,3.8,0,0,0-3.787-3.8h-.015a3.739,3.739,0,0,0-1.263.216,3.8,3.8,0,0,1,0,7.174,3.8,3.8,0,0,0,1.263.216,4.14,4.14,0,0,0,.592-.046A3.809,3.809,0,0,0,177.066,341.232Z" transform="translate(-172.042 -336.837)" fill="#1d7651" fill-rule="evenodd"/>
        </g>
        <g id="Group_24" data-name="Group 24" transform="translate(25.647 34.48)">
          <path id="Path_24" data-name="Path 24" d="M159.968,356.463a.987.987,0,0,0,.984-.983v-4.563a.988.988,0,0,0-.984-.983h-11.8a.988.988,0,0,0-.984.983v4.563a.987.987,0,0,0,.984.983Z" transform="translate(-147.184 -349.935)" fill="#1966b0" fill-rule="evenodd"/>
        </g>
        <g id="Group_25" data-name="Group 25" transform="translate(16.765 27.139)">
          <g id="Group_64" data-name="Group 64">
            <path id="Path_25" data-name="Path 25" d="M142.763,348.611v-3.984a4.276,4.276,0,0,0-2.476-.337v8.452c.127.021.263.036.394.046a4.273,4.273,0,0,0,2.081-.384v-3.793Z" transform="translate(-140.287 -344.234)" fill="#1d7651" fill-rule="evenodd"/>
          </g>
        </g>
        <g id="Group_26" data-name="Group 26" transform="translate(41.598 57.612)">
          <g id="Group_65" data-name="Group 65">
            <path id="Path_26" data-name="Path 26" d="M165.849,373.173v-2.221A3.065,3.065,0,0,0,162.8,367.9H159.57a3.065,3.065,0,0,1,3.055,3.055v2.221a1.242,1.242,0,0,1-1.238,1.239h3.227A1.242,1.242,0,0,0,165.849,373.173Z" transform="translate(-159.57 -367.897)" fill="#1d7651" fill-rule="evenodd"/>
          </g>
        </g>
        <g id="Group_27" data-name="Group 27" transform="translate(23.215 57.612)">
          <g id="Group_66" data-name="Group 66">
            <path id="Path_27" data-name="Path 27" d="M151.574,373.173v-2.221a3.065,3.065,0,0,0-3.051-3.055h-3.229a3.064,3.064,0,0,1,3.055,3.055v2.221a1.242,1.242,0,0,1-1.238,1.239h3.229a1.242,1.242,0,0,0,1.234-1.239Z" transform="translate(-145.295 -367.897)" fill="#1d7651" fill-rule="evenodd"/>
          </g>
        </g>
        <g id="Group_28" data-name="Group 28" transform="translate(30.759 10.803)">
          <path id="Path_28" data-name="Path 28" d="M165.914,344.924c0-8.919-6.427-13.375-12.855-13.375a13.478,13.478,0,0,0-1.906.131c5.737.795,10.958,5.208,10.958,13.244Z" transform="translate(-151.153 -331.549)" fill="#c2b0aa" fill-rule="evenodd"/>
        </g>
        <g id="Group_29" data-name="Group 29" transform="translate(41.831 24.776)">
          <path id="Path_29" data-name="Path 29" d="M163.556,362.214V342.4h-3.805V364.1h1.912A1.9,1.9,0,0,0,163.556,362.214Z" transform="translate(-159.751 -342.399)" fill="#8b8484" fill-rule="evenodd"/>
        </g>
        <g id="Group_30" data-name="Group 30" transform="translate(29.682 0.936)">
          <g id="Group_67" data-name="Group 67">
            <path id="Path_30" data-name="Path 30" d="M153.113,329.475a2.794,2.794,0,1,0-2.8-2.793,2.792,2.792,0,0,0,2.8,2.793Z" transform="translate(-150.317 -323.887)" fill="#ffa22c" fill-rule="evenodd"/>
          </g>
        </g>
        <g id="Group_31" data-name="Group 31" transform="translate(31.086 0.936)">
          <path id="Path_31" data-name="Path 31" d="M152.818,329.475a2.794,2.794,0,1,0-.986-5.41,2.794,2.794,0,0,1-.425,5.028A2.784,2.784,0,0,0,152.818,329.475Z" transform="translate(-151.407 -323.887)" fill="#e38a24" fill-rule="evenodd"/>
        </g>
        <g id="Group_32" data-name="Group 32" transform="translate(23.875 52.659)">
          <path id="Path_32" data-name="Path 32" d="M148.654,369.015l.595-4.964a4.214,4.214,0,0,1-1.315.511,4.381,4.381,0,0,1-1.522.039l-.6,4.4h2.555C148.458,369,148.557,369.015,148.654,369.015Z" transform="translate(-145.808 -364.051)" fill="#615b5b" fill-rule="evenodd"/>
        </g>
        <g id="Group_33" data-name="Group 33" transform="translate(40.251 52.105)">
          <path id="Path_33" data-name="Path 33" d="M161.66,369.128,161,363.621a4.209,4.209,0,0,1-2.475,1.132l.6,4.375Z" transform="translate(-158.524 -363.621)" fill="#615b5b" fill-rule="evenodd"/>
        </g>
        <g id="Group_34" data-name="Group 34" transform="translate(25.647 34.428)">
          <path id="Path_34" data-name="Path 34" d="M159.968,349.894h-11.8a.988.988,0,0,0-.984.983v2.282a.984.984,0,0,1,.984-.983h11.8a.985.985,0,0,1,.984.983v-2.282A.988.988,0,0,0,159.968,349.894Z" transform="translate(-147.184 -349.894)" fill="#318fcf" fill-rule="evenodd"/>
        </g>
        <g id="Group_35" data-name="Group 35">
          <path id="Path_35" data-name="Path 35" d="M152.784,338.372a3.067,3.067,0,1,0-3.069,3.065A3.066,3.066,0,0,0,152.784,338.372Zm-4.26,0a1.194,1.194,0,1,1,1.2,1.192h0A1.2,1.2,0,0,1,148.524,338.372Z" transform="translate(-121.69 -319.665)" fill="#040505"/>
          <path id="Path_36" data-name="Path 36" d="M192.211,336.361v-2.649a1.747,1.747,0,0,0-.429-1.311,1.8,1.8,0,0,0-1.4-.406h-.869a.96.96,0,0,0,0,1.92h.773v2.478c.008.461,0,.529-.126.715l-2.1,3.069a4.844,4.844,0,0,0-4.049,0l-2.1-3.07c-.127-.184-.134-.254-.125-.713v-2.482h.771a.96.96,0,1,0,0-1.92H181.7a1.8,1.8,0,0,0-1.4.406,1.746,1.746,0,0,0-.429,1.315v2.646a2.791,2.791,0,0,0,.461,1.833l2.135,3.115a4.838,4.838,0,0,0-1.284,3.288c0,.084,0,.167.006.25l-4.676,4.675a5.311,5.311,0,0,0-2.1-.277,4.893,4.893,0,0,0-.515.059v-1.687c0-5.93-2.733-10.714-7.5-13.124a14.621,14.621,0,0,0-5.692-1.522v-2.273a3.827,3.827,0,1,0-1.921,0v2.278a14.437,14.437,0,0,0-7.616,2.7.961.961,0,1,0,1.091,1.581l.046-.033a12.938,12.938,0,0,1,13.223-1.015c2.295,1.162,6.073,4.035,6.418,10.449H147.543a13.184,13.184,0,0,1,1.919-6.384.96.96,0,0,0-1.623-1.023,15.449,15.449,0,0,0-2.241,8.367V349.3q-.257-.042-.518-.062a5.335,5.335,0,0,0-2.1.278l-4.673-4.673c.005-.084.006-.167.006-.251a4.845,4.845,0,0,0-1.283-3.288l2.135-3.118a2.784,2.784,0,0,0,.46-1.836v-2.643a1.746,1.746,0,0,0-.428-1.311,1.8,1.8,0,0,0-1.4-.406h-.872a.96.96,0,1,0,0,1.92h.775v2.469c.008.461,0,.54-.125.724l-2.1,3.07a4.847,4.847,0,0,0-4.05,0l-2.1-3.068c-.126-.187-.134-.265-.126-.73v-2.469h.775a.96.96,0,1,0,0-1.92h-.865a1.8,1.8,0,0,0-1.4.406,1.746,1.746,0,0,0-.429,1.315v2.646a2.8,2.8,0,0,0,.462,1.839l2.13,3.109a4.859,4.859,0,0,0,3.58,8.152c.084,0,.167,0,.251-.006l5.691,5.689a5.351,5.351,0,0,0,4.959,4.788c.12.009.238.013.358.013a5.332,5.332,0,0,0,.882-.073v8.166a2.815,2.815,0,0,0,1.581,2.528,5.311,5.311,0,0,0,1.011,4.465l-.55,4.587h-.528a4.1,4.1,0,0,0-4.087,4.1v2.278a2.232,2.232,0,0,0,2.227,2.23h10.345a2.231,2.231,0,0,0,2.227-2.23v-2.278a4.1,4.1,0,0,0-2.735-3.863l.456-3.8a5.35,5.35,0,0,0,2.192-4.686c-.012-.174-.032-.346-.061-.519h4.053a5.333,5.333,0,0,0,1.759,4.914c.041.036.081.07.125.1l.479,3.99a4.1,4.1,0,0,0-2.735,3.863v2.278a2.231,2.231,0,0,0,2.227,2.23h10.346a2.231,2.231,0,0,0,2.227-2.23v-2.281a4.1,4.1,0,0,0-4.09-4.094h-.527l-.523-4.355a5.34,5.34,0,0,0,1.218-4.7,2.9,2.9,0,0,0,1.666-2.623v-8.08a5.294,5.294,0,0,0,.88.073c.12,0,.238,0,.358-.012a5.358,5.358,0,0,0,4.962-4.785l5.691-5.692c.084,0,.166.006.251.006a4.86,4.86,0,0,0,3.575-8.147l2.133-3.114a2.794,2.794,0,0,0,.464-1.834Zm-34.373-9.375a1.906,1.906,0,1,1,1.9,1.907A1.906,1.906,0,0,1,157.839,326.986Zm14.137,21.587v19.371a.993.993,0,0,1-.983.979H148.41a.892.892,0,0,1-.892-.892V348.573ZM130.513,344.6a2.939,2.939,0,0,1,1.174-2.354l.013-.009a2.94,2.94,0,1,1-1.187,2.359Zm7.19,2.361,3.553,3.552a5.358,5.358,0,0,0-1.561,2.221l-3.884-3.885a4.893,4.893,0,0,0,1.888-1.889Zm6.782,11.052a3.433,3.433,0,0,1-3.2-3.289v-.032c0-.108,0-.219.006-.334a3.438,3.438,0,0,1,3.422-3.2,2.011,2.011,0,0,1,.234.009,3.361,3.361,0,0,1,.649.106V357.9A3.429,3.429,0,0,1,144.484,358.009Zm11.415,25.7v2.278a.313.313,0,0,1-.305.31H145.247a.313.313,0,0,1-.306-.31v-2.278a2.174,2.174,0,0,1,2.17-2.174h6.621A2.174,2.174,0,0,1,155.9,383.712Zm-2.721-4.094h-3.606l.375-3.136a5.3,5.3,0,0,0,2.442.592c.122,0,.246,0,.368-.013a5.336,5.336,0,0,0,.74-.1Zm2.64-8.126a3.431,3.431,0,0,1-5.682,2.816c-.085-.075-.166-.152-.245-.232l-.017-.021a3.431,3.431,0,0,1-.8-3.212h6.631a3.444,3.444,0,0,1,.112.648Zm14.5-.65a3.362,3.362,0,0,1,.107.65,3.432,3.432,0,0,1-5.377,3.052l-.023-.015c-.1-.07-.191-.143-.281-.22a3.431,3.431,0,0,1-1.06-3.464h6.633Zm3.912,12.87v2.278a.313.313,0,0,1-.307.31H163.579a.313.313,0,0,1-.305-.31v-2.278a2.174,2.174,0,0,1,2.17-2.174h6.619A2.174,2.174,0,0,1,174.233,383.712Zm-8.238-4.094-.326-2.71a5.353,5.353,0,0,0,1.325.166c.122,0,.246,0,.37-.012a5.336,5.336,0,0,0,1.878-.478l.363,3.033ZM175,358.009a3.46,3.46,0,0,1-1.109-.107v-6.636a3.309,3.309,0,0,1,.644-.106,3.436,3.436,0,0,1,3.657,3.194,3.242,3.242,0,0,1,.006.335v.031a3.435,3.435,0,0,1-3.2,3.289Zm4.788-5.276a5.353,5.353,0,0,0-1.557-2.223l3.553-3.552a4.908,4.908,0,0,0,1.889,1.89Zm6.245-5.195a2.941,2.941,0,1,1,2.937-2.945v0a2.943,2.943,0,0,1-2.931,2.941Z" transform="translate(-127.268 -323.16)" fill="#040505"/>
          <path id="Path_37" data-name="Path 37" d="M159.7,338.372a3.068,3.068,0,1,0-3.071,3.065h0A3.071,3.071,0,0,0,159.7,338.372Zm-4.264,0a1.2,1.2,0,1,1,1.2,1.192h0A1.2,1.2,0,0,1,155.44,338.372Z" transform="translate(-119.699 -319.666)" fill="#040505"/>
          <path id="Path_38" data-name="Path 38" d="M148.377,357.612h3.72a.936.936,0,0,0,0-1.872h-3.72a.05.05,0,0,1-.046-.046v-4.563a.052.052,0,0,1,.046-.046h11.8a.052.052,0,0,1,.046.046v4.563a.05.05,0,0,1-.046.046h-3.617a.936.936,0,0,0,0,1.872h3.619a1.923,1.923,0,0,0,1.92-1.919v-4.563a1.922,1.922,0,0,0-1.92-1.919h-11.8a1.92,1.92,0,0,0-1.919,1.919v4.563A1.92,1.92,0,0,0,148.377,357.612Z" transform="translate(-121.746 -315.663)" fill="#040505"/>
          <path id="Path_39" data-name="Path 39" d="M147.27,346.966h2.47a.936.936,0,0,0,0-1.872h-2.47a.936.936,0,1,0,0,1.872Z" transform="translate(-121.781 -316.848)" fill="#040505"/>
          <path id="Path_40" data-name="Path 40" d="M156.286,346.966h2.469a.936.936,0,1,0,0-1.872h-2.469a.936.936,0,0,0,0,1.872Z" transform="translate(-119.186 -316.848)" fill="#040505"/>
        </g>
      </g>
    </g>
    <g id="Group_68" data-name="Group 68" transform="translate(202.985 330.319)">
      <path id="Path_41" data-name="Path 41" d="M207.119,336.6h-3.826l-.828-3.625H200.1v12.3h2.4v4.255H191.532v-4.255h2.4v-12.3h-2.4l-.8,3.625h-3.826v-7.88h20.213Z" transform="translate(-185.822 -328.719)" fill="#10151d"/>
      <path id="Path_42" data-name="Path 42" d="M218.879,342.247h-10.62q-.029,2.712,2.74,2.712a2.559,2.559,0,0,0,2.4-1.285l5,1.028a5.928,5.928,0,0,1-2.97,2.97,9.323,9.323,0,0,1-4.169.913,10.625,10.625,0,0,1-6.281-1.684,6.569,6.569,0,0,1-2.682-5.68,6.96,6.96,0,0,1,2.511-5.653,8.947,8.947,0,0,1,5.968-1.969q4.283,0,6.252,2.227Q218.877,337.908,218.879,342.247Zm-5.51-2.313q0-2.826-2.4-2.827a2.74,2.74,0,0,0-2.027.771,2.778,2.778,0,0,0-.771,2.055Z" transform="translate(-181.394 -327.315)" fill="#10151d"/>
      <path id="Path_43" data-name="Path 43" d="M232.231,342.818a6.165,6.165,0,0,1-2.712,4.4,9.008,9.008,0,0,1-5.11,1.37,7.228,7.228,0,0,1-5.5-2.112,7.814,7.814,0,0,1-2.012-5.624,7.375,7.375,0,0,1,1.884-5.21,6.5,6.5,0,0,1,5.024-2.041,5.245,5.245,0,0,1,4.282,1.912v-1.457h3.683v5.6H227.25a2.048,2.048,0,0,0-2.234-1.512,2.13,2.13,0,0,0-1.8.828,3.247,3.247,0,0,0-.63,2.026,3.514,3.514,0,0,0,.6,2.027,2.087,2.087,0,0,0,1.775.971,2.008,2.008,0,0,0,2.118-1.171Z" transform="translate(-177.189 -327.315)" fill="#10151d"/>
      <path id="Path_44" data-name="Path 44" d="M248.911,349.532h-7.594v-8.394q0-2.026-1.856-2.027a1.817,1.817,0,0,0-2.084,2.027v4.31h1.684v4.084h-8.993v-4.084h1.54V332.8h-1.54v-4.084h7.308v8.366A8.021,8.021,0,0,1,242.658,335q2.826,0,3.939,1.57a6.4,6.4,0,0,1,.886,3.768c0,.533-.04,1.375-.115,2.527s-.115,2.013-.115,2.583h1.656Z" transform="translate(-173.4 -328.719)" fill="#10151d"/>
      <path id="Path_45" data-name="Path 45" d="M194.2,355.322l-5.57,21.269h-2.565l5.51-21.269Z" transform="translate(-186.064 -321.063)" fill="#10151d"/>
      <path id="Path_46" data-name="Path 46" d="M199.191,363.34a3.083,3.083,0,1,1-6.166,0,3.07,3.07,0,0,1,.9-2.212,3.033,3.033,0,0,1,4.368,0A3.07,3.07,0,0,1,199.191,363.34Zm0,8.765a3.083,3.083,0,1,1-6.166,0,3.07,3.07,0,0,1,.9-2.212,3.033,3.033,0,0,1,4.368,0A3.07,3.07,0,0,1,199.191,372.1Z" transform="translate(-184.061 -319.659)" fill="#29a873"/>
      <path id="Path_47" data-name="Path 47" d="M219.293,368.529a8.325,8.325,0,0,1-3.568,6.081,11.431,11.431,0,0,1-6.881,2.084,9.263,9.263,0,0,1-7.48-3.256,11.736,11.736,0,0,1-2.6-7.879,10.94,10.94,0,0,1,2.551-7.479,8.955,8.955,0,0,1,7.167-3.113q3.352,0,4.814,1.914v-1.457h5.424v7.965h-5.509q-.572-2.712-3.941-2.712a3.737,3.737,0,0,0-3.083,1.541,5.336,5.336,0,0,0-1.084,3.369,5.62,5.62,0,0,0,1.114,3.568,3.853,3.853,0,0,0,3.254,1.542,3.414,3.414,0,0,0,3.454-2.169Z" transform="translate(-182.408 -321.165)" fill="#29a873"/>
      <path id="Path_48" data-name="Path 48" d="M232.309,367.707a6.788,6.788,0,0,1-2.6,5.426,9.078,9.078,0,0,1-11.505,0,7.01,7.01,0,0,1,0-10.85,8.634,8.634,0,0,1,5.767-2.084,8.532,8.532,0,0,1,5.738,2.084A6.789,6.789,0,0,1,232.309,367.707Zm-5.68,0a2.655,2.655,0,1,0-5.311,0,2.528,2.528,0,0,0,.765,1.871,2.723,2.723,0,0,0,3.766,0A2.5,2.5,0,0,0,226.629,367.707Z" transform="translate(-177.553 -319.659)" fill="#29a873"/>
      <path id="Path_49" data-name="Path 49" d="M244.355,363.568q0,3.342-3.141,3.341a3.164,3.164,0,0,1-2.255-.628,9.535,9.535,0,0,1-1.056-1.969.506.506,0,0,0-.4-.314l-.286.428v6.224h1.912v4.082h-9.307v-4.082h1.628v-5.881h-1.628v-4.111h7.451a4.986,4.986,0,0,0,.2,2c.134-.019.343-.238.628-.657a4.568,4.568,0,0,1,1-1.171,3.258,3.258,0,0,1,2.027-.628,3.051,3.051,0,0,1,2.355.943A3.439,3.439,0,0,1,244.355,363.568Z" transform="translate(-173.47 -319.659)" fill="#29a873"/>
      <path id="Path_50" data-name="Path 50" d="M260.687,367.336a8.714,8.714,0,0,1-1.664,5.51,6.127,6.127,0,0,1-5.107,2.341,5.282,5.282,0,0,1-4.476-2.142v3.6h1.884v4.081h-9.107v-4.081h1.457V364.767h-1.457v-4.111h7.052v1.771a4.5,4.5,0,0,1,2.113-1.656,6.461,6.461,0,0,1,2.654-.572,6.187,6.187,0,0,1,4.854,2.013A7.4,7.4,0,0,1,260.687,367.336Zm-6.109.457a2.487,2.487,0,0,0-.8-1.856,2.627,2.627,0,0,0-1.885-.77,2.372,2.372,0,0,0-1.812.784,2.622,2.622,0,0,0-.729,1.842,2.722,2.722,0,0,0,.715,1.9,2.358,2.358,0,0,0,1.826.784,2.678,2.678,0,0,0,2.684-2.684Z" transform="translate(-169.904 -319.659)" fill="#29a873"/>
    </g>
  </g>
</svg>
